%FSLAX25Y25*%
%MOIN*%
G70*
G01*
G75*
G04 Layer_Physical_Order=1*
G04 Layer_Color=255*
%ADD10C,0.01969*%
%ADD11C,0.01000*%
%ADD12R,0.05512X0.03543*%
%ADD13R,0.03543X0.05512*%
%ADD14R,0.04016X0.07008*%
%ADD15R,0.06693X0.03150*%
%ADD16R,0.02756X0.03543*%
%ADD17R,0.05512X0.03150*%
%ADD18O,0.03740X0.00906*%
%ADD19R,0.03740X0.00906*%
%ADD20R,0.00906X0.03740*%
%ADD21R,0.09843X0.09843*%
%ADD22R,0.02756X0.02165*%
%ADD23R,0.12795X0.05118*%
%ADD24R,0.07087X0.01772*%
%ADD25R,0.05709X0.07874*%
%ADD26R,0.03543X0.02756*%
%ADD27R,0.04724X0.04331*%
%ADD28O,0.01181X0.06890*%
%ADD29O,0.06890X0.01181*%
G04:AMPARAMS|DCode=30|XSize=60mil|YSize=40mil|CornerRadius=19.8mil|HoleSize=0mil|Usage=FLASHONLY|Rotation=270.000|XOffset=0mil|YOffset=0mil|HoleType=Round|Shape=RoundedRectangle|*
%AMROUNDEDRECTD30*
21,1,0.06000,0.00040,0,0,270.0*
21,1,0.02040,0.04000,0,0,270.0*
1,1,0.03960,-0.00020,-0.01020*
1,1,0.03960,-0.00020,0.01020*
1,1,0.03960,0.00020,0.01020*
1,1,0.03960,0.00020,-0.01020*
%
%ADD30ROUNDEDRECTD30*%
G04:AMPARAMS|DCode=31|XSize=60mil|YSize=40mil|CornerRadius=19.8mil|HoleSize=0mil|Usage=FLASHONLY|Rotation=180.000|XOffset=0mil|YOffset=0mil|HoleType=Round|Shape=RoundedRectangle|*
%AMROUNDEDRECTD31*
21,1,0.06000,0.00040,0,0,180.0*
21,1,0.02040,0.04000,0,0,180.0*
1,1,0.03960,-0.01020,0.00020*
1,1,0.03960,0.01020,0.00020*
1,1,0.03960,0.01020,-0.00020*
1,1,0.03960,-0.01020,-0.00020*
%
%ADD31ROUNDEDRECTD31*%
%ADD32C,0.00787*%
%ADD33C,0.01500*%
%ADD34C,0.05906*%
%ADD35R,0.05906X0.05906*%
%ADD36C,0.20000*%
%ADD37C,0.20031*%
%ADD38O,0.04724X0.03150*%
%ADD39O,0.05118X0.03150*%
%ADD40C,0.05118*%
%ADD41C,0.09843*%
%ADD42C,0.06693*%
%ADD43R,0.05906X0.05906*%
%ADD44C,0.05000*%
%ADD45C,0.01969*%
G36*
X492687Y519716D02*
X492331Y519370D01*
X492187Y519370D01*
X482291D01*
Y521437D01*
X477961D01*
Y521142D01*
X471071D01*
Y511693D01*
X470574Y511686D01*
X466618D01*
Y512559D01*
X466020D01*
Y521547D01*
X465901Y522147D01*
X465788Y522316D01*
X465561Y522656D01*
X465165Y523052D01*
X465203Y523142D01*
X465316Y524000D01*
X465203Y524858D01*
X464872Y525658D01*
X464345Y526345D01*
X463658Y526871D01*
X462858Y527203D01*
X462000Y527316D01*
X461142Y527203D01*
X460342Y526871D01*
X459655Y526345D01*
X459129Y525658D01*
X458797Y524858D01*
X458684Y524000D01*
X458797Y523142D01*
X459129Y522342D01*
X459655Y521655D01*
X460342Y521129D01*
X461142Y520797D01*
X462000Y520684D01*
X462385Y520735D01*
X462885Y520296D01*
Y512559D01*
X462287D01*
Y507441D01*
X466618D01*
Y508551D01*
X471169D01*
Y508445D01*
Y505886D01*
Y503327D01*
Y501768D01*
X470957D01*
Y500382D01*
X480043D01*
Y501768D01*
X479831D01*
Y503327D01*
Y505886D01*
Y508445D01*
Y511791D01*
X478354D01*
Y512324D01*
X478708Y512677D01*
X492187D01*
X492331Y512677D01*
X492687Y512331D01*
Y497669D01*
X492331Y497323D01*
X492187Y497323D01*
X478354D01*
Y497996D01*
X480043D01*
Y499382D01*
X470957D01*
Y497996D01*
X471071D01*
Y488858D01*
X477961D01*
Y488563D01*
X482291D01*
Y490276D01*
X482645Y490630D01*
X492187D01*
X492331Y490630D01*
X492687Y490284D01*
Y306313D01*
X295000D01*
Y352194D01*
X296307D01*
Y350457D01*
X301425D01*
Y357543D01*
X296307D01*
Y355806D01*
X295000D01*
Y598187D01*
X492687D01*
Y519716D01*
D02*
G37*
%LPC*%
G36*
X388866Y396524D02*
X386595D01*
Y393268D01*
X388866D01*
Y396524D01*
D02*
G37*
G36*
X392138D02*
X389866D01*
Y393268D01*
X392138D01*
Y396524D01*
D02*
G37*
G36*
X396000Y387429D02*
X392744D01*
Y385157D01*
X396000D01*
Y387429D01*
D02*
G37*
G36*
X400256D02*
X397000D01*
Y385157D01*
X400256D01*
Y387429D01*
D02*
G37*
G36*
X343205Y398500D02*
X340697D01*
Y394496D01*
X343205D01*
Y398500D01*
D02*
G37*
G36*
X388866Y400779D02*
X386595D01*
Y397524D01*
X388866D01*
Y400779D01*
D02*
G37*
G36*
X392138D02*
X389866D01*
Y397524D01*
X392138D01*
Y400779D01*
D02*
G37*
G36*
X343205Y403504D02*
X340697D01*
Y399500D01*
X343205D01*
Y403504D01*
D02*
G37*
G36*
X346713Y398500D02*
X344205D01*
Y394496D01*
X346713D01*
Y398500D01*
D02*
G37*
G36*
X351000Y424772D02*
X350024Y424644D01*
X349114Y424267D01*
X348333Y423667D01*
X347733Y422886D01*
X347356Y421976D01*
X347228Y421000D01*
X347356Y420024D01*
X347733Y419114D01*
X348333Y418332D01*
X349114Y417733D01*
X349194Y417700D01*
Y412043D01*
X348575D01*
Y404957D01*
X349194D01*
Y403291D01*
X347917D01*
Y394709D01*
X352237D01*
X360773Y386173D01*
X360684Y385500D01*
X360797Y384642D01*
X361128Y383842D01*
X361655Y383155D01*
X362342Y382628D01*
X363142Y382297D01*
X364000Y382184D01*
X364858Y382297D01*
X365658Y382628D01*
X366345Y383155D01*
X366872Y383842D01*
X367203Y384642D01*
X367316Y385500D01*
X367203Y386358D01*
X366872Y387158D01*
X366345Y387845D01*
X365658Y388371D01*
X364858Y388703D01*
X364000Y388816D01*
X363327Y388727D01*
X353508Y398547D01*
Y403291D01*
X352806D01*
Y404957D01*
X353693D01*
Y412043D01*
X352806D01*
Y417700D01*
X352886Y417733D01*
X353667Y418332D01*
X354267Y419114D01*
X354644Y420024D01*
X354772Y421000D01*
X354644Y421976D01*
X354267Y422886D01*
X353667Y423667D01*
X352886Y424267D01*
X351976Y424644D01*
X351000Y424772D01*
D02*
G37*
G36*
X366756Y376496D02*
X363500D01*
Y374224D01*
X366756D01*
Y376496D01*
D02*
G37*
G36*
X370366Y378279D02*
X368094D01*
Y375024D01*
X370366D01*
Y378279D01*
D02*
G37*
G36*
X373638Y374024D02*
X371366D01*
Y370768D01*
X373638D01*
Y374024D01*
D02*
G37*
G36*
X362500Y376496D02*
X359244D01*
Y374224D01*
X362500D01*
Y376496D01*
D02*
G37*
G36*
X373638Y378279D02*
X371366D01*
Y375024D01*
X373638D01*
Y378279D01*
D02*
G37*
G36*
X396000Y384157D02*
X392744D01*
Y381886D01*
X396000D01*
Y384157D01*
D02*
G37*
G36*
X400256D02*
X397000D01*
Y381886D01*
X400256D01*
Y384157D01*
D02*
G37*
G36*
X362500Y379768D02*
X359244D01*
Y377496D01*
X362500D01*
Y379768D01*
D02*
G37*
G36*
X366756D02*
X363500D01*
Y377496D01*
X366756D01*
Y379768D01*
D02*
G37*
G36*
X381000Y434772D02*
X380024Y434644D01*
X379114Y434267D01*
X378332Y433668D01*
X377733Y432886D01*
X377356Y431976D01*
X377228Y431000D01*
X377356Y430024D01*
X377733Y429114D01*
X378332Y428333D01*
X379114Y427733D01*
X380024Y427356D01*
X381000Y427228D01*
X381976Y427356D01*
X382886Y427733D01*
X383667Y428333D01*
X384267Y429114D01*
X384644Y430024D01*
X384772Y431000D01*
X384644Y431976D01*
X384267Y432886D01*
X383667Y433668D01*
X382886Y434267D01*
X381976Y434644D01*
X381000Y434772D01*
D02*
G37*
G36*
X391000D02*
X390024Y434644D01*
X389114Y434267D01*
X388333Y433668D01*
X387733Y432886D01*
X387356Y431976D01*
X387228Y431000D01*
X387356Y430024D01*
X387733Y429114D01*
X388333Y428333D01*
X389114Y427733D01*
X390024Y427356D01*
X391000Y427228D01*
X391976Y427356D01*
X392886Y427733D01*
X393668Y428333D01*
X394267Y429114D01*
X394644Y430024D01*
X394772Y431000D01*
X394644Y431976D01*
X394267Y432886D01*
X393668Y433668D01*
X392886Y434267D01*
X391976Y434644D01*
X391000Y434772D01*
D02*
G37*
G36*
X371000D02*
X370024Y434644D01*
X369114Y434267D01*
X368333Y433668D01*
X367733Y432886D01*
X367356Y431976D01*
X367228Y431000D01*
X367356Y430024D01*
X367733Y429114D01*
X368333Y428333D01*
X369114Y427733D01*
X370024Y427356D01*
X371000Y427228D01*
X371976Y427356D01*
X372886Y427733D01*
X373668Y428333D01*
X374267Y429114D01*
X374644Y430024D01*
X374772Y431000D01*
X374644Y431976D01*
X374267Y432886D01*
X373668Y433668D01*
X372886Y434267D01*
X371976Y434644D01*
X371000Y434772D01*
D02*
G37*
G36*
X360500Y424921D02*
X359968Y424851D01*
X359007Y424453D01*
X358181Y423819D01*
X357547Y422993D01*
X357149Y422032D01*
X357079Y421500D01*
X360500D01*
Y424921D01*
D02*
G37*
G36*
X361500D02*
Y421500D01*
X364921D01*
X364851Y422032D01*
X364453Y422993D01*
X363819Y423819D01*
X362993Y424453D01*
X362032Y424851D01*
X361500Y424921D01*
D02*
G37*
G36*
X371000Y441866D02*
X367744D01*
Y439595D01*
X371000D01*
Y441866D01*
D02*
G37*
G36*
X375256D02*
X372000D01*
Y439595D01*
X375256D01*
Y441866D01*
D02*
G37*
G36*
X364512Y441504D02*
X361256D01*
Y439232D01*
X364512D01*
Y441504D01*
D02*
G37*
G36*
X383000Y439366D02*
X379744D01*
Y437094D01*
X383000D01*
Y439366D01*
D02*
G37*
G36*
X387256D02*
X384000D01*
Y437094D01*
X387256D01*
Y439366D01*
D02*
G37*
G36*
X432500Y407134D02*
X429244D01*
Y404862D01*
X432500D01*
Y407134D01*
D02*
G37*
G36*
Y410405D02*
X429244D01*
Y408134D01*
X432500D01*
Y410405D01*
D02*
G37*
G36*
X345638Y408000D02*
X343366D01*
Y404744D01*
X345638D01*
Y408000D01*
D02*
G37*
G36*
X346713Y403504D02*
X344205D01*
Y399500D01*
X346713D01*
Y403504D01*
D02*
G37*
G36*
X342366Y408000D02*
X340094D01*
Y404744D01*
X342366D01*
Y408000D01*
D02*
G37*
G36*
X364921Y420500D02*
X361500D01*
Y417079D01*
X362032Y417149D01*
X362993Y417547D01*
X363819Y418181D01*
X364453Y419007D01*
X364851Y419968D01*
X364921Y420500D01*
D02*
G37*
G36*
X341000Y424772D02*
X340024Y424644D01*
X339114Y424267D01*
X338333Y423667D01*
X337733Y422886D01*
X337356Y421976D01*
X337228Y421000D01*
X337356Y420024D01*
X337733Y419114D01*
X338333Y418332D01*
X339114Y417733D01*
X340024Y417356D01*
X341000Y417228D01*
X341976Y417356D01*
X342886Y417733D01*
X343668Y418332D01*
X344267Y419114D01*
X344644Y420024D01*
X344772Y421000D01*
X344644Y421976D01*
X344267Y422886D01*
X343668Y423667D01*
X342886Y424267D01*
X341976Y424644D01*
X341000Y424772D01*
D02*
G37*
G36*
X360500Y420500D02*
X357079D01*
X357149Y419968D01*
X357547Y419007D01*
X358181Y418181D01*
X359007Y417547D01*
X359968Y417149D01*
X360500Y417079D01*
Y420500D01*
D02*
G37*
G36*
X342366Y412256D02*
X340094D01*
Y409000D01*
X342366D01*
Y412256D01*
D02*
G37*
G36*
X345638D02*
X343366D01*
Y409000D01*
X345638D01*
Y412256D01*
D02*
G37*
G36*
X442756Y313638D02*
X439500D01*
Y311366D01*
X442756D01*
Y313638D01*
D02*
G37*
G36*
X403000Y313768D02*
X399744D01*
Y311693D01*
X403000D01*
Y313768D01*
D02*
G37*
G36*
X407256Y310693D02*
X404000D01*
Y308618D01*
X407256D01*
Y310693D01*
D02*
G37*
G36*
X438500Y313638D02*
X435244D01*
Y311366D01*
X438500D01*
Y313638D01*
D02*
G37*
G36*
X407256Y313768D02*
X404000D01*
Y311693D01*
X407256D01*
Y313768D01*
D02*
G37*
G36*
X380000Y314161D02*
X376744D01*
Y311890D01*
X380000D01*
Y314161D01*
D02*
G37*
G36*
X384256D02*
X381000D01*
Y311890D01*
X384256D01*
Y314161D01*
D02*
G37*
G36*
X391500Y314138D02*
X388244D01*
Y311866D01*
X391500D01*
Y314138D01*
D02*
G37*
G36*
X395756D02*
X392500D01*
Y311866D01*
X395756D01*
Y314138D01*
D02*
G37*
G36*
X403000Y310693D02*
X399744D01*
Y308618D01*
X403000D01*
Y310693D01*
D02*
G37*
G36*
X480000Y329821D02*
X478307Y329688D01*
X476656Y329291D01*
X475087Y328641D01*
X473640Y327754D01*
X472349Y326651D01*
X471246Y325360D01*
X470359Y323913D01*
X469709Y322344D01*
X469312Y320693D01*
X469179Y319000D01*
X469312Y317307D01*
X469709Y315656D01*
X470359Y314088D01*
X471246Y312640D01*
X472349Y311349D01*
X473640Y310246D01*
X475087Y309359D01*
X476656Y308709D01*
X478307Y308313D01*
X480000Y308179D01*
X481693Y308313D01*
X483344Y308709D01*
X484912Y309359D01*
X486360Y310246D01*
X487651Y311349D01*
X488754Y312640D01*
X489641Y314088D01*
X490291Y315656D01*
X490688Y317307D01*
X490821Y319000D01*
X490688Y320693D01*
X490291Y322344D01*
X489641Y323913D01*
X488754Y325360D01*
X487651Y326651D01*
X486360Y327754D01*
X484912Y328641D01*
X483344Y329291D01*
X481693Y329688D01*
X480000Y329821D01*
D02*
G37*
G36*
X391500Y310866D02*
X388244D01*
Y308594D01*
X391500D01*
Y310866D01*
D02*
G37*
G36*
X438500Y310366D02*
X435244D01*
Y308095D01*
X438500D01*
Y310366D01*
D02*
G37*
G36*
X442756D02*
X439500D01*
Y308095D01*
X442756D01*
Y310366D01*
D02*
G37*
G36*
X395756Y310866D02*
X392500D01*
Y308594D01*
X395756D01*
Y310866D01*
D02*
G37*
G36*
X414500Y310890D02*
X411244D01*
Y308618D01*
X414500D01*
Y310890D01*
D02*
G37*
G36*
X418756D02*
X415500D01*
Y308618D01*
X418756D01*
Y310890D01*
D02*
G37*
G36*
X380000D02*
X376744D01*
Y308618D01*
X380000D01*
Y310890D01*
D02*
G37*
G36*
X384256D02*
X381000D01*
Y308618D01*
X384256D01*
Y310890D01*
D02*
G37*
G36*
X414500Y314161D02*
X411244D01*
Y311890D01*
X414500D01*
Y314161D01*
D02*
G37*
G36*
X339925Y350043D02*
X334807D01*
Y347838D01*
X333543D01*
Y349193D01*
X326457D01*
Y347704D01*
X325193D01*
Y350043D01*
X320075D01*
Y342957D01*
X325193D01*
Y345296D01*
X326457D01*
Y344075D01*
X333543D01*
Y345430D01*
X334807D01*
Y342957D01*
X339925D01*
Y350043D01*
D02*
G37*
G36*
X313500Y361634D02*
X310244D01*
Y359362D01*
X313500D01*
Y361634D01*
D02*
G37*
G36*
X393917Y345295D02*
X392965D01*
Y342925D01*
X393917D01*
Y345295D01*
D02*
G37*
G36*
X309693Y357543D02*
X304575D01*
Y350457D01*
X309693D01*
Y352796D01*
X310457D01*
Y351307D01*
X312796D01*
Y350043D01*
X311807D01*
Y342957D01*
X316925D01*
Y350043D01*
X315204D01*
Y351307D01*
X317543D01*
Y356425D01*
X310457D01*
Y355204D01*
X309693D01*
Y357543D01*
D02*
G37*
G36*
X317756Y361634D02*
X314500D01*
Y359362D01*
X317756D01*
Y361634D01*
D02*
G37*
G36*
Y364906D02*
X314500D01*
Y362634D01*
X317756D01*
Y364906D01*
D02*
G37*
G36*
X370366Y374024D02*
X368094D01*
Y370768D01*
X370366D01*
Y374024D01*
D02*
G37*
G36*
X366543Y371287D02*
X359457D01*
Y366169D01*
X361796D01*
Y365193D01*
X359457D01*
Y360075D01*
X366543D01*
Y365193D01*
X364204D01*
Y366169D01*
X366543D01*
Y371287D01*
D02*
G37*
G36*
X313500Y364906D02*
X310244D01*
Y362634D01*
X313500D01*
Y364906D01*
D02*
G37*
G36*
X333756Y341138D02*
X330500D01*
Y338866D01*
X333756D01*
Y341138D01*
D02*
G37*
G36*
X365256Y329366D02*
X362000D01*
Y327095D01*
X365256D01*
Y329366D01*
D02*
G37*
G36*
X361000Y332638D02*
X357744D01*
Y330366D01*
X361000D01*
Y332638D01*
D02*
G37*
G36*
X418756Y314161D02*
X415500D01*
Y311890D01*
X418756D01*
Y314161D01*
D02*
G37*
G36*
X361000Y329366D02*
X357744D01*
Y327095D01*
X361000D01*
Y329366D01*
D02*
G37*
G36*
X365256Y332638D02*
X362000D01*
Y330366D01*
X365256D01*
Y332638D01*
D02*
G37*
G36*
X333756Y337866D02*
X330500D01*
Y335595D01*
X333756D01*
Y337866D01*
D02*
G37*
G36*
X329500Y341138D02*
X326244D01*
Y338866D01*
X329500D01*
Y341138D01*
D02*
G37*
G36*
X348425Y358043D02*
X343307D01*
Y350957D01*
X344430D01*
Y350043D01*
X343075D01*
Y342957D01*
X344662D01*
Y342043D01*
X343307D01*
Y334957D01*
X348425D01*
Y342043D01*
X347071D01*
Y342957D01*
X348193D01*
Y350043D01*
X346838D01*
Y350957D01*
X348425D01*
Y358043D01*
D02*
G37*
G36*
X329500Y337866D02*
X326244D01*
Y335595D01*
X329500D01*
Y337866D01*
D02*
G37*
G36*
X383000Y442638D02*
X379744D01*
Y440366D01*
X383000D01*
Y442638D01*
D02*
G37*
G36*
X379008Y543386D02*
X375545D01*
X375585Y543088D01*
X375885Y542363D01*
X376362Y541741D01*
X376985Y541263D01*
X377710Y540963D01*
X378488Y540861D01*
X379008D01*
Y543386D01*
D02*
G37*
G36*
X370858Y541786D02*
X370560Y541747D01*
X369835Y541446D01*
X369213Y540969D01*
X368735Y540346D01*
X368561Y539925D01*
X368020Y539925D01*
X367890Y540239D01*
X367446Y540817D01*
X366868Y541261D01*
X366195Y541539D01*
X365473Y541635D01*
X365433D01*
X364710Y541539D01*
X364037Y541261D01*
X363459Y540817D01*
X363015Y540239D01*
X362760Y539623D01*
X362564Y539566D01*
X362436D01*
X362240Y539623D01*
X361985Y540239D01*
X361541Y540817D01*
X360963Y541261D01*
X360290Y541539D01*
X359567Y541635D01*
X359527D01*
X358805Y541539D01*
X358132Y541261D01*
X357554Y540817D01*
X357110Y540239D01*
X356855Y539623D01*
X356661Y539566D01*
X356528D01*
X356334Y539623D01*
X356079Y540239D01*
X355635Y540817D01*
X355057Y541261D01*
X354384Y541539D01*
X353662Y541635D01*
X353622D01*
X352899Y541539D01*
X352226Y541261D01*
X351648Y540817D01*
X351204Y540239D01*
X350949Y539623D01*
X350753Y539566D01*
X350625D01*
X350429Y539623D01*
X350174Y540239D01*
X349730Y540817D01*
X349152Y541261D01*
X348479Y541539D01*
X347756Y541635D01*
X347716D01*
X346994Y541539D01*
X346321Y541261D01*
X345743Y540817D01*
X345299Y540239D01*
X345044Y539623D01*
X344850Y539566D01*
X344717D01*
X344523Y539623D01*
X344268Y540239D01*
X343824Y540817D01*
X343246Y541261D01*
X342573Y541539D01*
X341851Y541635D01*
X341811D01*
X341088Y541539D01*
X340415Y541261D01*
X339837Y540817D01*
X339393Y540239D01*
X339138Y539623D01*
X338945Y539566D01*
X338811D01*
X338618Y539623D01*
X338362Y540239D01*
X337919Y540817D01*
X337341Y541261D01*
X336667Y541539D01*
X335945Y541635D01*
X335905D01*
X335183Y541539D01*
X334509Y541261D01*
X333931Y540817D01*
X333488Y540239D01*
X333233Y539623D01*
X333036Y539566D01*
X332908D01*
X332712Y539623D01*
X332457Y540239D01*
X332013Y540817D01*
X331435Y541261D01*
X330762Y541539D01*
X330040Y541635D01*
X330000D01*
X329277Y541539D01*
X328604Y541261D01*
X328026Y540817D01*
X327582Y540239D01*
X327304Y539566D01*
X326808D01*
X326529Y540239D01*
X326086Y540817D01*
X325508Y541261D01*
X324834Y541539D01*
X324112Y541635D01*
X324072D01*
X323350Y541539D01*
X322676Y541261D01*
X322098Y540817D01*
X321655Y540239D01*
X321403Y539632D01*
X321142Y539573D01*
X320881Y539632D01*
X320629Y540239D01*
X320186Y540817D01*
X319608Y541261D01*
X318934Y541539D01*
X318212Y541635D01*
X318172D01*
X317450Y541539D01*
X316776Y541261D01*
X316198Y540817D01*
X315755Y540239D01*
X315503Y539632D01*
X315242Y539573D01*
X314981Y539632D01*
X314729Y540239D01*
X314286Y540817D01*
X313708Y541261D01*
X313035Y541539D01*
X312312Y541635D01*
X312272D01*
X311550Y541539D01*
X310876Y541261D01*
X310298Y540817D01*
X309855Y540239D01*
X309603Y539632D01*
X309342Y539573D01*
X309081Y539632D01*
X308829Y540239D01*
X308386Y540817D01*
X307808Y541261D01*
X307135Y541539D01*
X306412Y541635D01*
X306372D01*
X305650Y541539D01*
X304977Y541261D01*
X304398Y540817D01*
X303955Y540239D01*
X303703Y539632D01*
X303442Y539573D01*
X303181Y539632D01*
X302929Y540239D01*
X302486Y540817D01*
X301908Y541261D01*
X301235Y541539D01*
X300512Y541635D01*
X300472D01*
X299750Y541539D01*
X299077Y541261D01*
X298498Y540817D01*
X298055Y540239D01*
X297776Y539566D01*
X297681Y538843D01*
Y536803D01*
X297776Y536081D01*
X298055Y535408D01*
X298498Y534830D01*
X299077Y534386D01*
X299288Y534298D01*
Y534008D01*
X299288Y534008D01*
X299379Y533547D01*
X299641Y533156D01*
X306495Y526302D01*
X306495Y526302D01*
X306729Y526146D01*
X306886Y526041D01*
X307346Y525949D01*
X316311D01*
Y523414D01*
X323791D01*
Y530796D01*
X324501D01*
X326630Y528667D01*
X326407Y528130D01*
X326279Y527154D01*
X326407Y526177D01*
X326784Y525267D01*
X327384Y524486D01*
X328165Y523887D01*
X329075Y523510D01*
X330051Y523381D01*
X331028Y523510D01*
X331937Y523887D01*
X332719Y524486D01*
X333318Y525267D01*
X333695Y526177D01*
X333824Y527154D01*
X333695Y528130D01*
X333318Y529040D01*
X332719Y529821D01*
X331937Y530421D01*
X331028Y530797D01*
X330051Y530926D01*
X329075Y530797D01*
X328248Y530455D01*
X325851Y532852D01*
X325461Y533113D01*
X325000Y533204D01*
X325000Y533204D01*
X308999D01*
X308081Y534122D01*
X308114Y534621D01*
X308386Y534830D01*
X308829Y535408D01*
X309081Y536015D01*
X309342Y536073D01*
X309603Y536015D01*
X309855Y535408D01*
X310298Y534830D01*
X310876Y534386D01*
X311550Y534107D01*
X312272Y534012D01*
X312312D01*
X313035Y534107D01*
X313708Y534386D01*
X314286Y534830D01*
X314729Y535408D01*
X314981Y536015D01*
X315242Y536073D01*
X315503Y536015D01*
X315755Y535408D01*
X316198Y534830D01*
X316776Y534386D01*
X317450Y534107D01*
X318172Y534012D01*
X318212D01*
X318934Y534107D01*
X319608Y534386D01*
X320186Y534830D01*
X320629Y535408D01*
X320881Y536015D01*
X321142Y536073D01*
X321403Y536015D01*
X321655Y535408D01*
X322098Y534830D01*
X322676Y534386D01*
X323350Y534107D01*
X324072Y534012D01*
X324112D01*
X324834Y534107D01*
X325508Y534386D01*
X326086Y534830D01*
X326529Y535408D01*
X326808Y536081D01*
X327304D01*
X327582Y535408D01*
X328026Y534830D01*
X328604Y534386D01*
X329277Y534107D01*
X330000Y534012D01*
X330040D01*
X330762Y534107D01*
X331435Y534386D01*
X332013Y534830D01*
X332457Y535408D01*
X332712Y536024D01*
X332908Y536081D01*
X333036D01*
X333233Y536024D01*
X333488Y535408D01*
X333931Y534830D01*
X334509Y534386D01*
X335183Y534107D01*
X335905Y534012D01*
X335945D01*
X336667Y534107D01*
X337341Y534386D01*
X337919Y534830D01*
X338362Y535408D01*
X338618Y536024D01*
X338811Y536081D01*
X338945D01*
X339138Y536024D01*
X339393Y535408D01*
X339837Y534830D01*
X340415Y534386D01*
X341088Y534107D01*
X341811Y534012D01*
X341851D01*
X342573Y534107D01*
X343246Y534386D01*
X343824Y534830D01*
X344268Y535408D01*
X344523Y536024D01*
X344717Y536081D01*
X344850D01*
X345044Y536024D01*
X345299Y535408D01*
X345743Y534830D01*
X346321Y534386D01*
X346994Y534107D01*
X347716Y534012D01*
X347756D01*
X348479Y534107D01*
X349152Y534386D01*
X349730Y534830D01*
X350174Y535408D01*
X350429Y536024D01*
X350625Y536081D01*
X350753D01*
X350949Y536024D01*
X351204Y535408D01*
X351648Y534830D01*
X352226Y534386D01*
X352899Y534107D01*
X353622Y534012D01*
X353662D01*
X354384Y534107D01*
X355057Y534386D01*
X355635Y534830D01*
X356079Y535408D01*
X356334Y536024D01*
X356528Y536081D01*
X356661D01*
X356855Y536024D01*
X357110Y535408D01*
X357554Y534830D01*
X358132Y534386D01*
X358805Y534107D01*
X359527Y534012D01*
X359567D01*
X360290Y534107D01*
X360963Y534386D01*
X361541Y534830D01*
X361985Y535408D01*
X362240Y536024D01*
X362436Y536081D01*
X362564D01*
X362760Y536024D01*
X363015Y535408D01*
X363459Y534830D01*
X363536Y534770D01*
X363568Y534272D01*
X362133Y532836D01*
X361872Y532445D01*
X361780Y531984D01*
X361780Y531984D01*
Y528942D01*
X361280Y528592D01*
X361016Y528645D01*
X360478Y528538D01*
X360032Y528240D01*
X359585Y528538D01*
X359047Y528645D01*
X358510Y528538D01*
X358063Y528240D01*
X357616Y528538D01*
X357079Y528645D01*
X356541Y528538D01*
X356095Y528240D01*
X355648Y528538D01*
X355110Y528645D01*
X354573Y528538D01*
X354126Y528240D01*
X353679Y528538D01*
X353142Y528645D01*
X352604Y528538D01*
X352158Y528240D01*
X351711Y528538D01*
X351173Y528645D01*
X350636Y528538D01*
X350189Y528240D01*
X349743Y528538D01*
X349205Y528645D01*
X348667Y528538D01*
X348221Y528240D01*
X347774Y528538D01*
X347236Y528645D01*
X346699Y528538D01*
X346252Y528240D01*
X345806Y528538D01*
X345268Y528645D01*
X344730Y528538D01*
X344284Y528240D01*
X343837Y528538D01*
X343299Y528645D01*
X342762Y528538D01*
X342306Y528234D01*
X342001Y527778D01*
X341895Y527240D01*
Y521531D01*
X342001Y520994D01*
X342306Y520538D01*
X342762Y520233D01*
X343299Y520126D01*
X343837Y520233D01*
X344284Y520532D01*
X344730Y520233D01*
X345268Y520126D01*
X345806Y520233D01*
X346252Y520532D01*
X346699Y520233D01*
X347236Y520126D01*
X347501Y520179D01*
X348001Y519829D01*
Y518295D01*
X348001Y518295D01*
X348092Y517834D01*
X348339Y517466D01*
X348312Y517332D01*
X348218Y517076D01*
X347706Y516951D01*
X347158Y517372D01*
X346358Y517703D01*
X345500Y517816D01*
X344642Y517703D01*
X343842Y517372D01*
X343155Y516845D01*
X342629Y516158D01*
X342297Y515358D01*
X342184Y514500D01*
X342297Y513642D01*
X342629Y512842D01*
X343155Y512155D01*
X343694Y511742D01*
Y494616D01*
X343340Y494345D01*
X342813Y493658D01*
X342481Y492858D01*
X342369Y492000D01*
X342481Y491142D01*
X342813Y490342D01*
X343340Y489655D01*
X344026Y489128D01*
X344480Y488940D01*
Y485613D01*
X344480Y485613D01*
X344572Y485152D01*
X344833Y484761D01*
X351445Y478149D01*
X351836Y477887D01*
X352297Y477796D01*
X352297Y477796D01*
X359491D01*
X359858Y477429D01*
X359753Y476826D01*
X359602Y476755D01*
X359585Y476766D01*
X359047Y476873D01*
X358510Y476766D01*
X358063Y476468D01*
X357616Y476766D01*
X357079Y476873D01*
X356541Y476766D01*
X356095Y476468D01*
X355648Y476766D01*
X355110Y476873D01*
X354573Y476766D01*
X354126Y476468D01*
X353679Y476766D01*
X353142Y476873D01*
X352604Y476766D01*
X352158Y476468D01*
X351711Y476766D01*
X351173Y476873D01*
X350636Y476766D01*
X350189Y476468D01*
X349743Y476766D01*
X349205Y476873D01*
X348667Y476766D01*
X348221Y476468D01*
X347774Y476766D01*
X347236Y476873D01*
X346699Y476766D01*
X346252Y476468D01*
X345806Y476766D01*
X345268Y476873D01*
X344730Y476766D01*
X344284Y476468D01*
X343837Y476766D01*
X343299Y476873D01*
X342762Y476766D01*
X342306Y476462D01*
X342001Y476006D01*
X341895Y475468D01*
Y469760D01*
X342001Y469222D01*
X342095Y469082D01*
Y453798D01*
X322658Y434361D01*
X321976Y434644D01*
X321000Y434772D01*
X320024Y434644D01*
X319114Y434267D01*
X318333Y433668D01*
X317733Y432886D01*
X317356Y431976D01*
X317228Y431000D01*
X317356Y430024D01*
X317733Y429114D01*
X318333Y428333D01*
X319114Y427733D01*
X320024Y427356D01*
X321000Y427228D01*
X321976Y427356D01*
X322886Y427733D01*
X323668Y428333D01*
X324267Y429114D01*
X324644Y430024D01*
X324772Y431000D01*
X324644Y431976D01*
X324361Y432658D01*
X343602Y451899D01*
X344064Y451707D01*
Y445767D01*
X332658Y434361D01*
X331976Y434644D01*
X331000Y434772D01*
X330024Y434644D01*
X329114Y434267D01*
X328332Y433668D01*
X327733Y432886D01*
X327356Y431976D01*
X327228Y431000D01*
X327356Y430024D01*
X327733Y429114D01*
X328332Y428333D01*
X329114Y427733D01*
X330024Y427356D01*
X331000Y427228D01*
X331976Y427356D01*
X332886Y427733D01*
X333667Y428333D01*
X334267Y429114D01*
X334644Y430024D01*
X334772Y431000D01*
X334644Y431976D01*
X334361Y432658D01*
X345570Y443867D01*
X346032Y443676D01*
Y437735D01*
X342658Y434361D01*
X341976Y434644D01*
X341000Y434772D01*
X340024Y434644D01*
X339114Y434267D01*
X338333Y433668D01*
X337733Y432886D01*
X337356Y431976D01*
X337228Y431000D01*
X337356Y430024D01*
X337733Y429114D01*
X338333Y428333D01*
X339114Y427733D01*
X340024Y427356D01*
X341000Y427228D01*
X341976Y427356D01*
X342886Y427733D01*
X343668Y428333D01*
X344267Y429114D01*
X344644Y430024D01*
X344772Y431000D01*
X344644Y431976D01*
X344361Y432658D01*
X347539Y435836D01*
X348001Y435644D01*
Y433235D01*
X347733Y432886D01*
X347356Y431976D01*
X347228Y431000D01*
X347356Y430024D01*
X347733Y429114D01*
X348333Y428333D01*
X349114Y427733D01*
X350024Y427356D01*
X351000Y427228D01*
X351976Y427356D01*
X352886Y427733D01*
X353667Y428333D01*
X354267Y429114D01*
X354644Y430024D01*
X354772Y431000D01*
X354644Y431976D01*
X354267Y432886D01*
X353667Y433668D01*
X352886Y434267D01*
X351976Y434644D01*
X351000Y434772D01*
X350785Y434744D01*
X350409Y435074D01*
Y441235D01*
X350871Y441426D01*
X358351Y433946D01*
X358332Y433668D01*
X357733Y432886D01*
X357356Y431976D01*
X357228Y431000D01*
X357356Y430024D01*
X357733Y429114D01*
X358332Y428333D01*
X359114Y427733D01*
X360024Y427356D01*
X361000Y427228D01*
X361976Y427356D01*
X362886Y427733D01*
X363667Y428333D01*
X364267Y429114D01*
X364644Y430024D01*
X364772Y431000D01*
X364644Y431976D01*
X364267Y432886D01*
X363667Y433668D01*
X362886Y434267D01*
X361976Y434644D01*
X361000Y434772D01*
X360939Y434764D01*
X356950Y438753D01*
X356999Y438856D01*
X356999Y438856D01*
X357119Y439109D01*
X357146Y439165D01*
X357166Y439208D01*
X357178Y439232D01*
X357212D01*
X357248D01*
X357426Y439232D01*
X357462D01*
X357462D01*
X360256D01*
Y441504D01*
X357000D01*
Y439694D01*
Y439694D01*
X357000Y439659D01*
X357000Y439480D01*
Y439445D01*
Y439410D01*
X356976Y439399D01*
X356933Y439378D01*
X356877Y439352D01*
X356624Y439231D01*
X356624D01*
X356521Y439182D01*
X352378Y443325D01*
Y468058D01*
X352878Y468407D01*
X353142Y468355D01*
X353679Y468462D01*
X353843Y468571D01*
X354128Y468434D01*
X354185Y467867D01*
X354155Y467845D01*
X353628Y467158D01*
X353297Y466358D01*
X353184Y465500D01*
X353297Y464642D01*
X353628Y463842D01*
X354155Y463155D01*
X354842Y462629D01*
X355642Y462297D01*
X356500Y462184D01*
X356849Y462230D01*
X357389Y461805D01*
X357398Y461730D01*
X357175Y461560D01*
X356639Y460860D01*
X356301Y460046D01*
X356186Y459173D01*
X356301Y458299D01*
X356639Y457485D01*
X357175Y456786D01*
X357874Y456250D01*
X358357Y456049D01*
Y452831D01*
X357213D01*
Y447713D01*
X364299D01*
Y452831D01*
X360766D01*
Y456049D01*
X361249Y456250D01*
X361948Y456786D01*
X362485Y457485D01*
X362822Y458299D01*
X362937Y459173D01*
X362822Y460046D01*
X362622Y460530D01*
X365389Y463298D01*
X366028Y463229D01*
X366070Y463166D01*
X368706Y460530D01*
X368506Y460046D01*
X368391Y459173D01*
X368506Y458299D01*
X368843Y457485D01*
X369380Y456786D01*
X370079Y456250D01*
X370562Y456049D01*
Y453193D01*
X367957D01*
Y448075D01*
X375043D01*
Y453193D01*
X372971D01*
Y456049D01*
X373454Y456250D01*
X374153Y456786D01*
X374690Y457485D01*
X375027Y458299D01*
X375142Y459173D01*
X375027Y460046D01*
X374690Y460860D01*
X374267Y461411D01*
X374582Y461822D01*
X374642Y461797D01*
X375500Y461684D01*
X375920Y461739D01*
X376296Y461410D01*
Y450169D01*
X376296Y450169D01*
X376387Y449708D01*
X376648Y449318D01*
X379184Y446782D01*
X379574Y446521D01*
X379957Y446445D01*
Y445575D01*
X387043D01*
Y450693D01*
X379957D01*
Y450069D01*
X379495Y449878D01*
X378704Y450668D01*
Y463000D01*
X378704Y463000D01*
X378613Y463461D01*
X378494Y463638D01*
X378703Y464142D01*
X378816Y465000D01*
X378703Y465858D01*
X378372Y466658D01*
X377845Y467345D01*
X377534Y467583D01*
X377419Y468175D01*
X377476Y468261D01*
X377967Y468359D01*
X378112Y468262D01*
X378232Y468238D01*
Y472614D01*
Y476991D01*
X378112Y476967D01*
X377586Y476615D01*
X377568Y476588D01*
X377302Y476766D01*
X376764Y476873D01*
X376226Y476766D01*
X375780Y476468D01*
X375333Y476766D01*
X374795Y476873D01*
X374258Y476766D01*
X373811Y476468D01*
X373364Y476766D01*
X372827Y476873D01*
X372289Y476766D01*
X371843Y476468D01*
X371396Y476766D01*
X370858Y476873D01*
X370321Y476766D01*
X370054Y476588D01*
X370037Y476615D01*
X369510Y476967D01*
X369390Y476991D01*
Y472614D01*
Y468238D01*
X369510Y468262D01*
X370037Y468613D01*
X370054Y468640D01*
X370321Y468462D01*
X370858Y468355D01*
X371396Y468462D01*
X371843Y468760D01*
X372289Y468462D01*
X372827Y468355D01*
X373364Y468462D01*
X373727Y468704D01*
X374149Y468453D01*
X374119Y467986D01*
X373842Y467872D01*
X373155Y467345D01*
X372628Y466658D01*
X372297Y465858D01*
X372184Y465000D01*
X372297Y464142D01*
X372628Y463342D01*
X373037Y462810D01*
X372722Y462399D01*
X372640Y462433D01*
X371766Y462548D01*
X370893Y462433D01*
X370409Y462233D01*
X368126Y464517D01*
Y467802D01*
X368390Y468007D01*
Y472614D01*
Y476991D01*
X368269Y476967D01*
X367743Y476615D01*
X367725Y476589D01*
X367459Y476766D01*
X366921Y476873D01*
X366384Y476766D01*
X365937Y476468D01*
X365491Y476766D01*
X364953Y476873D01*
X364415Y476766D01*
X364392Y476751D01*
X364323Y476739D01*
X363734Y476912D01*
X363639Y477054D01*
X363639Y477054D01*
X363292Y477401D01*
X363575Y477825D01*
X363642Y477797D01*
X364500Y477684D01*
X365358Y477797D01*
X366158Y478128D01*
X366845Y478655D01*
X367372Y479342D01*
X367703Y480142D01*
X367816Y481000D01*
X367703Y481858D01*
X367560Y482203D01*
X369139Y483782D01*
X369563Y483499D01*
X369297Y482858D01*
X369184Y482000D01*
X369297Y481142D01*
X369629Y480342D01*
X370155Y479655D01*
X370842Y479129D01*
X371642Y478797D01*
X372500Y478684D01*
X373358Y478797D01*
X374158Y479129D01*
X374845Y479655D01*
X375372Y480342D01*
X375703Y481142D01*
X375816Y482000D01*
X375703Y482858D01*
X375515Y483312D01*
X376703Y484500D01*
X383329D01*
X383679Y484000D01*
X383627Y483736D01*
X383734Y483198D01*
X384032Y482752D01*
X383734Y482305D01*
X383627Y481768D01*
X383734Y481230D01*
X384032Y480783D01*
X383734Y480337D01*
X383627Y479799D01*
X383734Y479261D01*
X384038Y478806D01*
X384494Y478501D01*
X385032Y478394D01*
X390740D01*
X391278Y478501D01*
X391418Y478595D01*
X395202D01*
X404796Y469001D01*
Y437999D01*
X401537Y434740D01*
X397260D01*
Y427260D01*
X403404D01*
X403595Y426798D01*
X401503Y424706D01*
X401000Y424772D01*
X400024Y424644D01*
X399114Y424267D01*
X398333Y423667D01*
X397733Y422886D01*
X397356Y421976D01*
X397228Y421000D01*
X397356Y420024D01*
X397733Y419114D01*
X398333Y418332D01*
X399114Y417733D01*
X400024Y417356D01*
X401000Y417228D01*
X401976Y417356D01*
X402886Y417733D01*
X403667Y418332D01*
X404267Y419114D01*
X404644Y420024D01*
X404772Y421000D01*
X404644Y421976D01*
X404267Y422886D01*
X403756Y423553D01*
X407909Y427706D01*
X408371Y427514D01*
Y419777D01*
X404798Y416204D01*
X397999D01*
X394508Y419695D01*
X394644Y420024D01*
X394772Y421000D01*
X394644Y421976D01*
X394267Y422886D01*
X393668Y423667D01*
X392886Y424267D01*
X391976Y424644D01*
X391000Y424772D01*
X390024Y424644D01*
X389114Y424267D01*
X388333Y423667D01*
X387733Y422886D01*
X387356Y421976D01*
X387228Y421000D01*
X387356Y420024D01*
X387733Y419114D01*
X388333Y418332D01*
X389114Y417733D01*
X390024Y417356D01*
X391000Y417228D01*
X391976Y417356D01*
X392886Y417733D01*
X392987Y417810D01*
X396593Y414204D01*
X396556Y413975D01*
X396413Y413704D01*
X390499D01*
X384508Y419695D01*
X384644Y420024D01*
X384772Y421000D01*
X384644Y421976D01*
X384267Y422886D01*
X383667Y423667D01*
X382886Y424267D01*
X381976Y424644D01*
X381000Y424772D01*
X380024Y424644D01*
X379114Y424267D01*
X378332Y423667D01*
X377733Y422886D01*
X377356Y421976D01*
X377228Y421000D01*
X377356Y420024D01*
X377733Y419114D01*
X378332Y418332D01*
X379114Y417733D01*
X380024Y417356D01*
X381000Y417228D01*
X381976Y417356D01*
X382886Y417733D01*
X382987Y417810D01*
X388631Y412166D01*
X388439Y411704D01*
X382499D01*
X374508Y419695D01*
X374644Y420024D01*
X374772Y421000D01*
X374644Y421976D01*
X374267Y422886D01*
X373668Y423667D01*
X372886Y424267D01*
X371976Y424644D01*
X371000Y424772D01*
X370024Y424644D01*
X369114Y424267D01*
X368333Y423667D01*
X367733Y422886D01*
X367356Y421976D01*
X367228Y421000D01*
X367356Y420024D01*
X367733Y419114D01*
X368333Y418332D01*
X369114Y417733D01*
X370024Y417356D01*
X371000Y417228D01*
X371976Y417356D01*
X372886Y417733D01*
X372987Y417810D01*
X381149Y409649D01*
X381149Y409649D01*
X381539Y409387D01*
X382000Y409296D01*
X382000Y409296D01*
X406500D01*
X406500Y409296D01*
X406961Y409387D01*
X407351Y409649D01*
X413576Y415873D01*
X413837Y416264D01*
X413929Y416724D01*
Y433669D01*
X414391Y433861D01*
X427593Y420658D01*
X427310Y419976D01*
X427182Y419000D01*
X427310Y418024D01*
X427687Y417114D01*
X428287Y416332D01*
X429068Y415733D01*
X429978Y415356D01*
X430954Y415228D01*
X431931Y415356D01*
X432613Y415639D01*
X436546Y411705D01*
Y410405D01*
X433500D01*
Y407634D01*
Y404862D01*
X436546D01*
Y402424D01*
X436543Y401925D01*
X429457D01*
Y401400D01*
X428995Y401208D01*
X422816Y407387D01*
X422425Y407648D01*
X421965Y407740D01*
X421965Y407740D01*
X421150D01*
Y409488D01*
X414957D01*
X414850Y409488D01*
X414653D01*
X414457D01*
X414350Y409488D01*
X408157D01*
Y403583D01*
Y402228D01*
X407976D01*
X407515Y402136D01*
X407359Y402032D01*
X407125Y401875D01*
X407125Y401875D01*
X403478Y398228D01*
X400193D01*
Y400567D01*
X395075D01*
Y393480D01*
X400193D01*
Y395819D01*
X403478D01*
X409796Y389501D01*
Y388560D01*
X409342Y388371D01*
X408655Y387845D01*
X408128Y387158D01*
X407797Y386358D01*
X407684Y385500D01*
X407797Y384642D01*
X408128Y383842D01*
X408655Y383155D01*
X409342Y382628D01*
X410142Y382297D01*
X411000Y382184D01*
X411858Y382297D01*
X412658Y382628D01*
X412918Y382828D01*
X413248Y382451D01*
X398166Y367369D01*
X397704Y367561D01*
Y373831D01*
X400043D01*
Y378949D01*
X392957D01*
Y377594D01*
X388390D01*
X388390Y377594D01*
X387929Y377502D01*
X387538Y377241D01*
X387538Y377241D01*
X386025Y375728D01*
X381693D01*
Y378067D01*
X380940D01*
Y386366D01*
X380803Y387057D01*
X380411Y387644D01*
X375227Y392827D01*
X375316Y393500D01*
X375203Y394358D01*
X374871Y395158D01*
X374345Y395845D01*
X373658Y396372D01*
X372858Y396703D01*
X372000Y396816D01*
X371142Y396703D01*
X370342Y396372D01*
X369655Y395845D01*
X369128Y395158D01*
X368797Y394358D01*
X368684Y393500D01*
X368797Y392642D01*
X369128Y391842D01*
X369655Y391155D01*
X370342Y390629D01*
X371142Y390297D01*
X372000Y390184D01*
X372673Y390273D01*
X377327Y385618D01*
Y378067D01*
X376575D01*
Y370980D01*
X377930D01*
Y361866D01*
X377930Y361866D01*
X378021Y361405D01*
X378282Y361015D01*
X382131Y357166D01*
X381939Y356704D01*
X366543D01*
Y356925D01*
X359457D01*
Y355570D01*
X356693D01*
Y358043D01*
X351575D01*
Y350957D01*
X356693D01*
Y353162D01*
X359457D01*
Y351807D01*
X366543D01*
Y354296D01*
X380939D01*
X381131Y353834D01*
X366635Y339338D01*
X365043D01*
Y340693D01*
X357957D01*
Y339338D01*
X356693D01*
Y342043D01*
X351575D01*
Y334957D01*
X356693D01*
Y336930D01*
X357957D01*
Y335575D01*
X365043D01*
Y336930D01*
X367134D01*
X367134Y336930D01*
X367595Y337021D01*
X367986Y337282D01*
X383070Y352367D01*
X384510D01*
X384702Y351905D01*
X379648Y346851D01*
X379387Y346461D01*
X379296Y346000D01*
X379296Y346000D01*
Y322216D01*
X376957D01*
Y321306D01*
X369758D01*
X369345Y321845D01*
X368658Y322372D01*
X367858Y322703D01*
X367000Y322816D01*
X366142Y322703D01*
X365342Y322372D01*
X364655Y321845D01*
X364128Y321158D01*
X363797Y320358D01*
X363684Y319500D01*
X363797Y318642D01*
X364128Y317842D01*
X364655Y317155D01*
X365342Y316629D01*
X366142Y316297D01*
X367000Y316184D01*
X367858Y316297D01*
X368658Y316629D01*
X369345Y317155D01*
X369758Y317694D01*
X376957D01*
Y317098D01*
X384043D01*
Y318321D01*
X388457D01*
Y317075D01*
X395543D01*
Y322193D01*
X393204D01*
Y323000D01*
X393113Y323461D01*
X392851Y323851D01*
X392851Y323851D01*
X384204Y332499D01*
Y345501D01*
X387133Y348430D01*
X388039D01*
Y348394D01*
X392531D01*
Y347650D01*
X392965D01*
Y346295D01*
X394417D01*
Y345795D01*
X394917D01*
Y342925D01*
X395182D01*
Y333114D01*
X395182Y333114D01*
X395273Y332653D01*
X395534Y332263D01*
X402296Y325501D01*
Y322217D01*
X399957D01*
Y317492D01*
X407043D01*
Y322217D01*
X404704D01*
Y325886D01*
X404979Y326058D01*
X405194Y326103D01*
X407649Y323649D01*
X407649Y323649D01*
X408039Y323387D01*
X408500Y323296D01*
X408500Y323296D01*
X409659D01*
X411457Y321498D01*
Y317098D01*
X418543D01*
Y318296D01*
X426440D01*
X426628Y317842D01*
X427155Y317155D01*
X427842Y316629D01*
X428642Y316297D01*
X429500Y316184D01*
X430358Y316297D01*
X431158Y316629D01*
X431845Y317155D01*
X431977Y317327D01*
X435457D01*
Y316575D01*
X442543D01*
Y317060D01*
X445457D01*
Y316307D01*
X452543D01*
Y319325D01*
X459910Y326691D01*
X460249Y327198D01*
X460845Y327655D01*
X461372Y328342D01*
X461703Y329142D01*
X461816Y330000D01*
X461703Y330858D01*
X461372Y331658D01*
X460845Y332345D01*
X460158Y332872D01*
X459358Y333203D01*
X458500Y333316D01*
X457642Y333203D01*
X456842Y332872D01*
X456155Y332345D01*
X455628Y331658D01*
X455297Y330858D01*
X455184Y330000D01*
X455297Y329142D01*
X455628Y328342D01*
X455986Y327876D01*
X453043Y324934D01*
X452543Y325141D01*
Y329693D01*
X448995D01*
X442411Y336277D01*
X441825Y336669D01*
X441134Y336806D01*
X440258D01*
X439845Y337345D01*
X439158Y337872D01*
X438358Y338203D01*
X437500Y338316D01*
X436642Y338203D01*
X435842Y337872D01*
X435155Y337345D01*
X434628Y336658D01*
X434297Y335858D01*
X434184Y335000D01*
X434297Y334142D01*
X434628Y333342D01*
X435155Y332655D01*
X435842Y332129D01*
X436642Y331797D01*
X437500Y331684D01*
X438358Y331797D01*
X439158Y332129D01*
X439845Y332655D01*
X440016Y332879D01*
X440662Y332917D01*
X445457Y328122D01*
Y324575D01*
X451977D01*
X452184Y324075D01*
X449535Y321425D01*
X445457D01*
Y320673D01*
X442543D01*
Y321693D01*
X435457D01*
Y320940D01*
X432462D01*
X432372Y321158D01*
X431845Y321845D01*
X431158Y322372D01*
X430358Y322703D01*
X429500Y322816D01*
X428642Y322703D01*
X427842Y322372D01*
X427155Y321845D01*
X426628Y321158D01*
X426440Y320704D01*
X418543D01*
Y322216D01*
X414144D01*
X411009Y325352D01*
X410618Y325613D01*
X410157Y325704D01*
X410157Y325704D01*
X408999D01*
X399559Y335144D01*
Y342925D01*
X399823D01*
Y345795D01*
X400823D01*
Y342925D01*
X401087D01*
Y338709D01*
X401087Y338709D01*
X401179Y338248D01*
X401440Y337857D01*
X408148Y331149D01*
X408148Y331149D01*
X408539Y330887D01*
X409000Y330796D01*
X426454D01*
X426454Y330796D01*
X426915Y330887D01*
X427306Y331149D01*
X448334Y352177D01*
X448796Y351985D01*
Y351060D01*
X448342Y350871D01*
X447655Y350345D01*
X447128Y349658D01*
X446797Y348858D01*
X446684Y348000D01*
X446797Y347142D01*
X447128Y346342D01*
X447655Y345655D01*
X448342Y345128D01*
X449142Y344797D01*
X450000Y344684D01*
X450858Y344797D01*
X451658Y345128D01*
X452345Y345655D01*
X452872Y346342D01*
X453203Y347142D01*
X453316Y348000D01*
X453203Y348858D01*
X452872Y349658D01*
X452345Y350345D01*
X451658Y350871D01*
X451204Y351060D01*
Y352820D01*
X483352Y384967D01*
X483613Y385358D01*
X483704Y385819D01*
Y470681D01*
X483704Y470681D01*
X483613Y471142D01*
X483352Y471533D01*
X483352Y471533D01*
X445033Y509852D01*
X444642Y510113D01*
X444533Y510134D01*
X444221Y510886D01*
X443622Y511667D01*
X442840Y512267D01*
X441931Y512644D01*
X440954Y512772D01*
X439978Y512644D01*
X439068Y512267D01*
X438287Y511667D01*
X437687Y510886D01*
X437310Y509976D01*
X437182Y509000D01*
X437310Y508024D01*
X437687Y507114D01*
X438287Y506332D01*
X439068Y505733D01*
X439978Y505356D01*
X440954Y505228D01*
X441931Y505356D01*
X442840Y505733D01*
X443622Y506332D01*
X443976Y506795D01*
X444629Y506850D01*
X450812Y500666D01*
X450621Y500204D01*
X444504D01*
X444221Y500886D01*
X443622Y501667D01*
X442840Y502267D01*
X441931Y502644D01*
X440954Y502772D01*
X439978Y502644D01*
X439068Y502267D01*
X438287Y501667D01*
X437687Y500886D01*
X437310Y499976D01*
X437182Y499000D01*
X437310Y498024D01*
X437593Y497342D01*
X435455Y495204D01*
X432870D01*
X432771Y495704D01*
X432840Y495733D01*
X433622Y496333D01*
X434221Y497114D01*
X434598Y498024D01*
X434727Y499000D01*
X434598Y499976D01*
X434221Y500886D01*
X433622Y501667D01*
X432840Y502267D01*
X431931Y502644D01*
X430954Y502772D01*
X429978Y502644D01*
X429068Y502267D01*
X428287Y501667D01*
X427687Y500886D01*
X427310Y499976D01*
X427182Y499000D01*
X427310Y498024D01*
X427687Y497114D01*
X428287Y496333D01*
X429068Y495733D01*
X429137Y495704D01*
X429038Y495204D01*
X418889D01*
X416876Y497217D01*
X416486Y497478D01*
X416025Y497570D01*
X416025Y497570D01*
X410566D01*
X408873Y499262D01*
X409107Y499736D01*
X409500Y499684D01*
X410358Y499797D01*
X411158Y500129D01*
X411845Y500655D01*
X412371Y501342D01*
X412703Y502142D01*
X412816Y503000D01*
X412703Y503858D01*
X412371Y504658D01*
X411845Y505345D01*
X411158Y505871D01*
X410358Y506203D01*
X409500Y506316D01*
X408642Y506203D01*
X407842Y505871D01*
X407155Y505345D01*
X406629Y504658D01*
X406550Y504467D01*
X405979Y504384D01*
X400162Y510201D01*
X400341Y510729D01*
X400858Y510797D01*
X401658Y511129D01*
X402345Y511655D01*
X402872Y512342D01*
X403203Y513142D01*
X403316Y514000D01*
X403203Y514858D01*
X402872Y515658D01*
X402345Y516345D01*
X401658Y516872D01*
X400858Y517203D01*
X400000Y517316D01*
X399142Y517203D01*
X398342Y516872D01*
X397775Y516436D01*
X393854D01*
X393662Y516898D01*
X395352Y518587D01*
X395352Y518588D01*
X395613Y518978D01*
X395704Y519439D01*
X395704Y519439D01*
Y520237D01*
X396158Y520425D01*
X396845Y520952D01*
X397372Y521639D01*
X397703Y522439D01*
X397816Y523297D01*
X397703Y524155D01*
X397521Y524594D01*
X397855Y525094D01*
X400000D01*
Y527366D01*
X396744D01*
Y526284D01*
X396296Y526063D01*
X396158Y526168D01*
X395358Y526500D01*
X394500Y526613D01*
X393642Y526500D01*
X392842Y526168D01*
X392156Y525641D01*
X391629Y524955D01*
X391297Y524155D01*
X391184Y523297D01*
X391297Y522439D01*
X391629Y521639D01*
X392156Y520952D01*
X392842Y520425D01*
X393054Y520338D01*
X393133Y519775D01*
X391763Y518405D01*
X391418D01*
X391278Y518499D01*
X390740Y518606D01*
X385032D01*
X384494Y518499D01*
X384038Y518194D01*
X383734Y517738D01*
X383627Y517201D01*
X383734Y516663D01*
X384032Y516217D01*
X383734Y515770D01*
X383699Y515597D01*
D01*
X383648Y515341D01*
X383642Y515342D01*
X383618Y515342D01*
X383576Y515344D01*
X383192Y515356D01*
X383162Y515357D01*
X383145Y515358D01*
X383142Y515358D01*
X383110Y515599D01*
Y515599D01*
X383046Y516090D01*
X382714Y516890D01*
X382187Y517577D01*
X381501Y518104D01*
X380701Y518435D01*
X379937Y518536D01*
Y519829D01*
X380437Y520179D01*
X380701Y520126D01*
X381239Y520233D01*
X381694Y520538D01*
X381999Y520994D01*
X382106Y521531D01*
Y527240D01*
X381999Y527778D01*
X381905Y527918D01*
Y528905D01*
X383296Y530296D01*
X385501D01*
X386323Y529474D01*
Y527708D01*
X385869Y527520D01*
X385182Y526993D01*
X384655Y526306D01*
X384324Y525507D01*
X384211Y524649D01*
X384324Y523790D01*
X384655Y522991D01*
X385182Y522304D01*
X385869Y521777D01*
X386669Y521446D01*
X387527Y521333D01*
X388385Y521446D01*
X389185Y521777D01*
X389872Y522304D01*
X390398Y522991D01*
X390730Y523790D01*
X390843Y524649D01*
X390730Y525507D01*
X390398Y526306D01*
X389872Y526993D01*
X389185Y527520D01*
X388731Y527708D01*
Y529973D01*
X388639Y530434D01*
X388378Y530825D01*
X388378Y530825D01*
X386852Y532351D01*
X386461Y532613D01*
X386000Y532704D01*
X386000Y532704D01*
X382797D01*
X382336Y532613D01*
X382180Y532508D01*
X381945Y532351D01*
X381945Y532351D01*
X379849Y530255D01*
X379588Y529865D01*
X379497Y529404D01*
X379497Y529404D01*
Y528942D01*
X378996Y528592D01*
X378732Y528645D01*
X378195Y528538D01*
X377748Y528240D01*
X377302Y528538D01*
X376764Y528645D01*
X376226Y528538D01*
X375780Y528240D01*
X375333Y528538D01*
X374795Y528645D01*
X374258Y528538D01*
X373811Y528240D01*
X373364Y528538D01*
X372827Y528645D01*
X372289Y528538D01*
X371843Y528240D01*
X371396Y528538D01*
X370858Y528645D01*
X370321Y528538D01*
X369874Y528240D01*
X369427Y528538D01*
X368890Y528645D01*
X368352Y528538D01*
X367906Y528240D01*
X367459Y528538D01*
X366921Y528645D01*
X366384Y528538D01*
X366117Y528360D01*
X366100Y528387D01*
X365573Y528738D01*
X365453Y528762D01*
Y524386D01*
X364453D01*
Y528993D01*
X364189Y529198D01*
Y531486D01*
X365250Y532547D01*
X365750D01*
X367649Y530649D01*
X367649Y530649D01*
X368039Y530387D01*
X368500Y530296D01*
X378500D01*
X378500Y530296D01*
X378961Y530387D01*
X379351Y530649D01*
X383668Y534965D01*
X386457D01*
Y533807D01*
X393543D01*
Y534930D01*
X396957D01*
Y533575D01*
X404043D01*
Y538693D01*
X396957D01*
Y537338D01*
X393543D01*
Y538531D01*
X386457D01*
Y537373D01*
X383169D01*
X382708Y537282D01*
X382318Y537021D01*
X382318Y537021D01*
X378001Y532704D01*
X368999D01*
X367390Y534313D01*
X367423Y534812D01*
X367446Y534830D01*
X367890Y535408D01*
X368020Y535721D01*
X368561Y535721D01*
X368735Y535300D01*
X369213Y534678D01*
X369835Y534200D01*
X370560Y533900D01*
X370858Y533861D01*
Y537823D01*
Y541786D01*
D02*
G37*
G36*
X317000Y485921D02*
Y482500D01*
X320421D01*
X320351Y483032D01*
X319953Y483993D01*
X319319Y484819D01*
X318493Y485453D01*
X317532Y485851D01*
X317000Y485921D01*
D02*
G37*
G36*
X383470Y543386D02*
X380008D01*
Y540861D01*
X380528D01*
X381306Y540963D01*
X382031Y541263D01*
X382653Y541741D01*
X383131Y542363D01*
X383431Y543088D01*
X383470Y543386D01*
D02*
G37*
G36*
X460713Y512559D02*
X456382D01*
Y507441D01*
X457343D01*
Y506579D01*
X456842Y506371D01*
X456155Y505845D01*
X455628Y505158D01*
X455297Y504358D01*
X455184Y503500D01*
X455297Y502642D01*
X455628Y501842D01*
X456155Y501155D01*
X456842Y500629D01*
X457642Y500297D01*
X458500Y500184D01*
X459358Y500297D01*
X460158Y500629D01*
X460845Y501155D01*
X461372Y501842D01*
X461703Y502642D01*
X461816Y503500D01*
X461703Y504358D01*
X461372Y505158D01*
X460845Y505845D01*
X460158Y506371D01*
X459751Y506540D01*
Y507441D01*
X460713D01*
Y512559D01*
D02*
G37*
G36*
X340491Y508827D02*
X331738D01*
X331762Y508706D01*
X332113Y508180D01*
X332140Y508162D01*
X331962Y507896D01*
X331855Y507358D01*
X331962Y506821D01*
X332260Y506374D01*
X331962Y505928D01*
X331855Y505390D01*
X331962Y504852D01*
X332140Y504586D01*
X332113Y504568D01*
X331762Y504042D01*
X331738Y503921D01*
X340491D01*
X340467Y504042D01*
X340115Y504568D01*
X340089Y504586D01*
X340266Y504852D01*
X340373Y505390D01*
X340266Y505928D01*
X339968Y506374D01*
X340266Y506821D01*
X340373Y507358D01*
X340266Y507896D01*
X340089Y508162D01*
X340115Y508180D01*
X340467Y508706D01*
X340491Y508827D01*
D02*
G37*
G36*
X490421Y542421D02*
X487000D01*
Y539000D01*
X487532Y539070D01*
X488493Y539468D01*
X489319Y540102D01*
X489953Y540928D01*
X490351Y541889D01*
X490421Y542421D01*
D02*
G37*
G36*
X320240Y515740D02*
X312760D01*
Y508260D01*
X320037D01*
X328604Y499693D01*
X328397Y499193D01*
X324841D01*
X321182Y502851D01*
X320791Y503113D01*
X320331Y503204D01*
X320331Y503204D01*
X320050D01*
X319767Y503886D01*
X319167Y504668D01*
X318386Y505267D01*
X317476Y505644D01*
X316500Y505772D01*
X315524Y505644D01*
X314614Y505267D01*
X313832Y504668D01*
X313233Y503886D01*
X312950Y503204D01*
X311000D01*
X310539Y503113D01*
X310383Y503008D01*
X310149Y502851D01*
X310149Y502851D01*
X308233Y500936D01*
X307043D01*
Y502291D01*
X299957D01*
Y497173D01*
X301796D01*
Y489862D01*
X298867D01*
Y485138D01*
X307134D01*
Y489862D01*
X304205D01*
Y497173D01*
X307043D01*
Y498528D01*
X308732D01*
X308732Y498528D01*
X309193Y498620D01*
X309584Y498881D01*
X311499Y500796D01*
X312950D01*
X313233Y500114D01*
X313832Y499333D01*
X314614Y498733D01*
X315524Y498356D01*
X316500Y498228D01*
X317476Y498356D01*
X318386Y498733D01*
X319167Y499333D01*
X319767Y500114D01*
X319813Y500226D01*
X320304Y500324D01*
X321957Y498671D01*
Y494468D01*
X326159D01*
X329296Y491332D01*
Y490927D01*
X329043Y490531D01*
X328796Y490531D01*
X321957D01*
Y489373D01*
X320830D01*
X319861Y490342D01*
X320144Y491024D01*
X320272Y492000D01*
X320144Y492976D01*
X319767Y493886D01*
X319167Y494667D01*
X318386Y495267D01*
X317476Y495644D01*
X316500Y495772D01*
X315524Y495644D01*
X314614Y495267D01*
X313832Y494667D01*
X313233Y493886D01*
X312856Y492976D01*
X312728Y492000D01*
X312856Y491024D01*
X313233Y490114D01*
X313832Y489332D01*
X314614Y488733D01*
X315524Y488356D01*
X316500Y488228D01*
X317476Y488356D01*
X318158Y488639D01*
X319479Y487318D01*
X319870Y487057D01*
X320331Y486965D01*
X320331Y486965D01*
X321957D01*
Y485807D01*
X329043D01*
Y489050D01*
X329543Y489202D01*
X329648Y489044D01*
X331462Y487230D01*
X331442Y486646D01*
X331410Y486594D01*
X331353Y486556D01*
X302865Y458068D01*
X302604Y457677D01*
X302512Y457217D01*
X302512Y457217D01*
Y419783D01*
X302512Y419783D01*
X302604Y419323D01*
X302865Y418932D01*
X307648Y414149D01*
X307648Y414149D01*
X307883Y413992D01*
X308039Y413887D01*
X308500Y413796D01*
X325000D01*
X325000Y413796D01*
X325461Y413887D01*
X325851Y414149D01*
X329342Y417639D01*
X330024Y417356D01*
X331000Y417228D01*
X331976Y417356D01*
X332886Y417733D01*
X333667Y418332D01*
X334267Y419114D01*
X334644Y420024D01*
X334772Y421000D01*
X334644Y421976D01*
X334267Y422886D01*
X333667Y423667D01*
X332886Y424267D01*
X331976Y424644D01*
X331000Y424772D01*
X330024Y424644D01*
X329114Y424267D01*
X328332Y423667D01*
X327733Y422886D01*
X327356Y421976D01*
X327228Y421000D01*
X327356Y420024D01*
X327639Y419342D01*
X324501Y416204D01*
X318561D01*
X318369Y416666D01*
X319342Y417639D01*
X320024Y417356D01*
X321000Y417228D01*
X321976Y417356D01*
X322886Y417733D01*
X323668Y418332D01*
X324267Y419114D01*
X324644Y420024D01*
X324772Y421000D01*
X324644Y421976D01*
X324267Y422886D01*
X323668Y423667D01*
X322886Y424267D01*
X321976Y424644D01*
X321000Y424772D01*
X320024Y424644D01*
X319114Y424267D01*
X318333Y423667D01*
X317733Y422886D01*
X317356Y421976D01*
X317228Y421000D01*
X317356Y420024D01*
X317639Y419342D01*
X316076Y417779D01*
X313724D01*
X313563Y418253D01*
X313667Y418332D01*
X314267Y419114D01*
X314644Y420024D01*
X314772Y421000D01*
X314644Y421976D01*
X314267Y422886D01*
X313667Y423667D01*
X312886Y424267D01*
X311976Y424644D01*
X311000Y424772D01*
X310024Y424644D01*
X309695Y424508D01*
X308070Y426133D01*
Y427903D01*
X308570Y428150D01*
X309114Y427733D01*
X310024Y427356D01*
X311000Y427228D01*
X311976Y427356D01*
X312886Y427733D01*
X313667Y428333D01*
X314267Y429114D01*
X314644Y430024D01*
X314772Y431000D01*
X314644Y431976D01*
X314267Y432886D01*
X313667Y433668D01*
X312886Y434267D01*
X311976Y434644D01*
X311000Y434772D01*
X310204Y434668D01*
X309704Y434993D01*
Y454820D01*
X333279Y478394D01*
X338968D01*
X339506Y478501D01*
X339962Y478806D01*
X340266Y479261D01*
X340373Y479799D01*
X340266Y480337D01*
X339968Y480783D01*
X340266Y481230D01*
X340373Y481768D01*
X340266Y482305D01*
X339968Y482752D01*
X340266Y483198D01*
X340373Y483736D01*
X340266Y484274D01*
X339968Y484720D01*
X340266Y485167D01*
X340373Y485705D01*
X340266Y486242D01*
X339968Y486689D01*
X340266Y487136D01*
X340373Y487673D01*
X340266Y488211D01*
X339968Y488657D01*
X340266Y489104D01*
X340373Y489642D01*
X340266Y490179D01*
X339968Y490626D01*
X340266Y491073D01*
X340373Y491610D01*
X340266Y492148D01*
X339968Y492594D01*
X340266Y493041D01*
X340373Y493579D01*
X340266Y494116D01*
X339968Y494563D01*
X340266Y495010D01*
X340373Y495547D01*
X340266Y496085D01*
X339968Y496531D01*
X340266Y496978D01*
X340373Y497516D01*
X340266Y498053D01*
X339968Y498500D01*
X340266Y498947D01*
X340373Y499484D01*
X340266Y500022D01*
X339968Y500468D01*
X340266Y500915D01*
X340373Y501453D01*
X340266Y501990D01*
X340089Y502257D01*
X340115Y502275D01*
X340467Y502801D01*
X340491Y502921D01*
X331738D01*
X331762Y502801D01*
X332113Y502275D01*
X332140Y502257D01*
X331962Y501990D01*
X331855Y501453D01*
X331962Y500915D01*
X332059Y500770D01*
X331914Y500442D01*
X331360Y500343D01*
X320240Y511463D01*
Y515740D01*
D02*
G37*
G36*
X383470Y584777D02*
X375545D01*
X375585Y584479D01*
X375885Y583754D01*
X376362Y583132D01*
X376985Y582654D01*
X377399Y582482D01*
X377399Y581941D01*
X377092Y581814D01*
X376514Y581371D01*
X376071Y580793D01*
X375792Y580119D01*
X375697Y579397D01*
Y579357D01*
X375792Y578634D01*
X376071Y577961D01*
X376514Y577383D01*
X377092Y576939D01*
X377699Y576688D01*
X377758Y576427D01*
X377699Y576165D01*
X377092Y575914D01*
X376514Y575471D01*
X376071Y574893D01*
X375792Y574219D01*
X375697Y573497D01*
Y573457D01*
X375792Y572734D01*
X376071Y572061D01*
X376514Y571483D01*
X377092Y571039D01*
X377699Y570788D01*
X377758Y570527D01*
X377699Y570265D01*
X377092Y570014D01*
X376514Y569571D01*
X376071Y568993D01*
X375792Y568319D01*
X375697Y567597D01*
Y567557D01*
X375792Y566834D01*
X376071Y566161D01*
X376514Y565583D01*
X377092Y565139D01*
X377765Y564861D01*
X377907Y564842D01*
Y564338D01*
X377765Y564319D01*
X377092Y564040D01*
X376514Y563597D01*
X376071Y563019D01*
X375792Y562345D01*
X375697Y561623D01*
Y561583D01*
X375792Y560860D01*
X376071Y560187D01*
X376514Y559609D01*
X377092Y559165D01*
X377709Y558910D01*
X377765Y558717D01*
Y558583D01*
X377709Y558390D01*
X377092Y558135D01*
X376514Y557691D01*
X376071Y557113D01*
X375792Y556440D01*
X375697Y555717D01*
Y555677D01*
X375792Y554955D01*
X376071Y554282D01*
X376514Y553703D01*
X377092Y553260D01*
X377708Y553005D01*
X377765Y552809D01*
Y552680D01*
X377708Y552484D01*
X377092Y552229D01*
X376514Y551786D01*
X376071Y551207D01*
X375792Y550534D01*
X375697Y549812D01*
Y549772D01*
X375792Y549049D01*
X376071Y548376D01*
X376514Y547798D01*
X377092Y547355D01*
X377406Y547225D01*
X377406Y546684D01*
X376985Y546509D01*
X376362Y546032D01*
X375885Y545409D01*
X375585Y544684D01*
X375545Y544386D01*
X383470D01*
X383431Y544684D01*
X383131Y545409D01*
X382653Y546032D01*
X382031Y546509D01*
X381610Y546684D01*
X381610Y547225D01*
X381924Y547355D01*
X382502Y547798D01*
X382945Y548376D01*
X383224Y549049D01*
X383319Y549772D01*
Y549812D01*
X383224Y550534D01*
X382945Y551207D01*
X382502Y551786D01*
X381924Y552229D01*
X381308Y552484D01*
X381250Y552680D01*
Y552809D01*
X381308Y553005D01*
X381924Y553260D01*
X382502Y553703D01*
X382945Y554282D01*
X383224Y554955D01*
X383319Y555677D01*
Y555717D01*
X383224Y556440D01*
X382945Y557113D01*
X382502Y557691D01*
X381924Y558135D01*
X381307Y558390D01*
X381250Y558583D01*
Y558717D01*
X381307Y558910D01*
X381924Y559165D01*
X382502Y559609D01*
X382945Y560187D01*
X383224Y560860D01*
X383319Y561583D01*
Y561623D01*
X383224Y562345D01*
X382945Y563019D01*
X382502Y563597D01*
X381924Y564040D01*
X381250Y564319D01*
X381108Y564338D01*
Y564842D01*
X381250Y564861D01*
X381924Y565139D01*
X382502Y565583D01*
X382945Y566161D01*
X383224Y566834D01*
X383319Y567557D01*
Y567597D01*
X383224Y568319D01*
X382945Y568993D01*
X382502Y569571D01*
X381924Y570014D01*
X381317Y570265D01*
X381258Y570527D01*
X381317Y570788D01*
X381924Y571039D01*
X382502Y571483D01*
X382945Y572061D01*
X383224Y572734D01*
X383319Y573457D01*
Y573497D01*
X383224Y574219D01*
X382945Y574893D01*
X382502Y575471D01*
X381924Y575914D01*
X381317Y576165D01*
X381258Y576427D01*
X381317Y576688D01*
X381924Y576939D01*
X382502Y577383D01*
X382945Y577961D01*
X383224Y578634D01*
X383319Y579357D01*
Y579397D01*
X383224Y580119D01*
X382945Y580793D01*
X382502Y581371D01*
X381924Y581814D01*
X381617Y581941D01*
X381617Y582482D01*
X382031Y582654D01*
X382653Y583132D01*
X383131Y583754D01*
X383431Y584479D01*
X383470Y584777D01*
D02*
G37*
G36*
X487000Y546842D02*
Y543421D01*
X490421D01*
X490351Y543953D01*
X489953Y544915D01*
X489319Y545740D01*
X488493Y546374D01*
X487532Y546772D01*
X487000Y546842D01*
D02*
G37*
G36*
X302500Y476689D02*
X298654D01*
Y474614D01*
X302500D01*
Y476689D01*
D02*
G37*
G36*
X307347D02*
X303500D01*
Y474614D01*
X307347D01*
Y476689D01*
D02*
G37*
G36*
X320421Y481500D02*
X317000D01*
Y478079D01*
X317532Y478149D01*
X318493Y478547D01*
X319319Y479181D01*
X319953Y480007D01*
X320351Y480968D01*
X320421Y481500D01*
D02*
G37*
G36*
X316000Y485921D02*
X315468Y485851D01*
X314507Y485453D01*
X313681Y484819D01*
X313047Y483993D01*
X312649Y483032D01*
X312579Y482500D01*
X316000D01*
Y485921D01*
D02*
G37*
G36*
X486000Y546842D02*
X485468Y546772D01*
X484507Y546374D01*
X483681Y545740D01*
X483047Y544915D01*
X482649Y543953D01*
X482579Y543421D01*
X486000D01*
Y546842D01*
D02*
G37*
G36*
X316000Y481500D02*
X312579D01*
X312649Y480968D01*
X313047Y480007D01*
X313681Y479181D01*
X314507Y478547D01*
X315468Y478149D01*
X316000Y478079D01*
Y481500D01*
D02*
G37*
G36*
X404256Y530638D02*
X401000D01*
Y528366D01*
X404256D01*
Y530638D01*
D02*
G37*
G36*
X400000D02*
X396744D01*
Y528366D01*
X400000D01*
Y530638D01*
D02*
G37*
G36*
X307256Y510772D02*
X304000D01*
Y508500D01*
X307256D01*
Y510772D01*
D02*
G37*
G36*
X340491Y512764D02*
X331738D01*
X331762Y512643D01*
X332113Y512117D01*
X332140Y512099D01*
X331962Y511833D01*
X331855Y511295D01*
X331962Y510757D01*
X332140Y510491D01*
X332113Y510473D01*
X331762Y509947D01*
X331738Y509827D01*
X340491D01*
X340467Y509947D01*
X340115Y510473D01*
X340089Y510491D01*
X340266Y510757D01*
X340373Y511295D01*
X340266Y511833D01*
X340089Y512099D01*
X340115Y512117D01*
X340467Y512643D01*
X340491Y512764D01*
D02*
G37*
G36*
X338968Y518822D02*
X336614D01*
Y517701D01*
X340491D01*
X340467Y517821D01*
X340115Y518348D01*
X339589Y518699D01*
X338968Y518822D01*
D02*
G37*
G36*
X404256Y527366D02*
X401000D01*
Y525094D01*
X404256D01*
Y527366D01*
D02*
G37*
G36*
X340491Y516701D02*
X331738D01*
X331762Y516580D01*
X332113Y516054D01*
X332140Y516036D01*
X331962Y515770D01*
X331855Y515232D01*
X331962Y514694D01*
X332140Y514428D01*
X332113Y514410D01*
X331762Y513884D01*
X331738Y513764D01*
X340491D01*
X340467Y513884D01*
X340115Y514410D01*
X340089Y514428D01*
X340266Y514694D01*
X340373Y515232D01*
X340266Y515770D01*
X340089Y516036D01*
X340115Y516054D01*
X340467Y516580D01*
X340491Y516701D01*
D02*
G37*
G36*
X335614Y518822D02*
X333260D01*
X332639Y518699D01*
X332113Y518348D01*
X331762Y517821D01*
X331738Y517701D01*
X335614D01*
Y518822D01*
D02*
G37*
G36*
X307256Y507500D02*
X304000D01*
Y505228D01*
X307256D01*
Y507500D01*
D02*
G37*
G36*
X434694Y512740D02*
X427214D01*
Y505260D01*
X434694D01*
Y512740D01*
D02*
G37*
G36*
X486000Y542421D02*
X482579D01*
X482649Y541889D01*
X483047Y540928D01*
X483681Y540102D01*
X484507Y539468D01*
X485468Y539070D01*
X486000Y539000D01*
Y542421D01*
D02*
G37*
G36*
X303000Y507500D02*
X299744D01*
Y505228D01*
X303000D01*
Y507500D01*
D02*
G37*
G36*
X371858Y541786D02*
Y538323D01*
X374384D01*
Y538843D01*
X374282Y539621D01*
X373981Y540346D01*
X373504Y540969D01*
X372881Y541446D01*
X372156Y541747D01*
X371858Y541786D01*
D02*
G37*
G36*
X374384Y537323D02*
X371858D01*
Y533861D01*
X372156Y533900D01*
X372881Y534200D01*
X373504Y534678D01*
X373981Y535300D01*
X374282Y536025D01*
X374384Y536803D01*
Y537323D01*
D02*
G37*
G36*
X303000Y510772D02*
X299744D01*
Y508500D01*
X303000D01*
Y510772D01*
D02*
G37*
G36*
X464500Y546272D02*
X463524Y546144D01*
X462614Y545767D01*
X461833Y545167D01*
X461233Y544386D01*
X460856Y543476D01*
X460728Y542500D01*
X460856Y541524D01*
X461233Y540614D01*
X461833Y539832D01*
X462614Y539233D01*
X463524Y538856D01*
X464500Y538728D01*
X465476Y538856D01*
X466386Y539233D01*
X467168Y539832D01*
X467767Y540614D01*
X468144Y541524D01*
X468272Y542500D01*
X468144Y543476D01*
X467767Y544386D01*
X467168Y545167D01*
X466386Y545767D01*
X465476Y546144D01*
X464500Y546272D01*
D02*
G37*
G36*
X375256Y445138D02*
X372000D01*
Y442866D01*
X375256D01*
Y445138D01*
D02*
G37*
G36*
X391500Y581816D02*
X390642Y581703D01*
X389842Y581371D01*
X389155Y580845D01*
X388629Y580158D01*
X388297Y579358D01*
X388184Y578500D01*
X388297Y577642D01*
X388629Y576842D01*
X389155Y576155D01*
X389842Y575629D01*
X390296Y575441D01*
Y573543D01*
X388941D01*
Y569212D01*
X394059D01*
Y573543D01*
X392704D01*
Y575441D01*
X393158Y575629D01*
X393845Y576155D01*
X394372Y576842D01*
X394703Y577642D01*
X394816Y578500D01*
X394703Y579358D01*
X394372Y580158D01*
X393845Y580845D01*
X393158Y581371D01*
X392358Y581703D01*
X391500Y581816D01*
D02*
G37*
G36*
X364512Y444776D02*
X361256D01*
Y442504D01*
X364512D01*
Y444776D01*
D02*
G37*
G36*
X371000Y445138D02*
X367744D01*
Y442866D01*
X371000D01*
Y445138D01*
D02*
G37*
G36*
X383000Y453866D02*
X379744D01*
Y451594D01*
X383000D01*
Y453866D01*
D02*
G37*
G36*
X391000Y567850D02*
X388728D01*
Y565972D01*
X391000D01*
Y567850D01*
D02*
G37*
G36*
X420114Y573697D02*
X419137Y573568D01*
X418228Y573191D01*
X417446Y572592D01*
X416847Y571811D01*
X416470Y570901D01*
X416341Y569924D01*
X416470Y568948D01*
X416847Y568038D01*
X417446Y567257D01*
X418228Y566657D01*
X419137Y566281D01*
X420114Y566152D01*
X421090Y566281D01*
X422000Y566657D01*
X422781Y567257D01*
X423381Y568038D01*
X423758Y568948D01*
X423886Y569924D01*
X423758Y570901D01*
X423381Y571811D01*
X422781Y572592D01*
X422000Y573191D01*
X421090Y573568D01*
X420114Y573697D01*
D02*
G37*
G36*
X394272Y567850D02*
X392000D01*
Y565972D01*
X394272D01*
Y567850D01*
D02*
G37*
G36*
X371858Y595139D02*
Y591677D01*
X374384D01*
Y592197D01*
X374282Y592975D01*
X373981Y593700D01*
X373504Y594322D01*
X372881Y594800D01*
X372156Y595100D01*
X371858Y595139D01*
D02*
G37*
G36*
X374384Y590677D02*
X371858D01*
Y587214D01*
X372156Y587254D01*
X372881Y587554D01*
X373504Y588031D01*
X373981Y588654D01*
X374282Y589379D01*
X374384Y590157D01*
Y590677D01*
D02*
G37*
G36*
X387256Y442638D02*
X384000D01*
Y440366D01*
X387256D01*
Y442638D01*
D02*
G37*
G36*
X370858Y595139D02*
X370560Y595100D01*
X369835Y594800D01*
X369213Y594322D01*
X368735Y593700D01*
X368561Y593279D01*
X368020Y593279D01*
X367890Y593593D01*
X367446Y594171D01*
X366868Y594614D01*
X366195Y594893D01*
X365473Y594988D01*
X365433D01*
X364710Y594893D01*
X364037Y594614D01*
X363459Y594171D01*
X363015Y593593D01*
X362760Y592977D01*
X362564Y592919D01*
X362436D01*
X362240Y592977D01*
X361985Y593593D01*
X361541Y594171D01*
X360963Y594614D01*
X360290Y594893D01*
X359567Y594988D01*
X359527D01*
X358805Y594893D01*
X358132Y594614D01*
X357554Y594171D01*
X357110Y593593D01*
X356855Y592976D01*
X356661Y592919D01*
X356528D01*
X356334Y592976D01*
X356079Y593593D01*
X355635Y594171D01*
X355057Y594614D01*
X354384Y594893D01*
X353662Y594988D01*
X353622D01*
X352899Y594893D01*
X352226Y594614D01*
X351648Y594171D01*
X351204Y593593D01*
X350949Y592977D01*
X350753Y592919D01*
X350625D01*
X350429Y592977D01*
X350174Y593593D01*
X349730Y594171D01*
X349152Y594614D01*
X348479Y594893D01*
X347756Y594988D01*
X347716D01*
X346994Y594893D01*
X346321Y594614D01*
X345743Y594171D01*
X345299Y593593D01*
X345044Y592976D01*
X344850Y592919D01*
X344717D01*
X344523Y592976D01*
X344268Y593593D01*
X343824Y594171D01*
X343246Y594614D01*
X342573Y594893D01*
X341851Y594988D01*
X341811D01*
X341088Y594893D01*
X340415Y594614D01*
X339837Y594171D01*
X339393Y593593D01*
X339138Y592976D01*
X338945Y592919D01*
X338811D01*
X338618Y592976D01*
X338362Y593593D01*
X337919Y594171D01*
X337341Y594614D01*
X336667Y594893D01*
X335945Y594988D01*
X335905D01*
X335183Y594893D01*
X334509Y594614D01*
X333931Y594171D01*
X333488Y593593D01*
X333233Y592977D01*
X333036Y592919D01*
X332908D01*
X332712Y592977D01*
X332457Y593593D01*
X332013Y594171D01*
X331435Y594614D01*
X330762Y594893D01*
X330040Y594988D01*
X330000D01*
X329277Y594893D01*
X328604Y594614D01*
X328026Y594171D01*
X327582Y593593D01*
X327304Y592919D01*
X326808D01*
X326529Y593593D01*
X326086Y594171D01*
X325508Y594614D01*
X324834Y594893D01*
X324112Y594988D01*
X324072D01*
X323350Y594893D01*
X322676Y594614D01*
X322098Y594171D01*
X321655Y593593D01*
X321403Y592986D01*
X321142Y592927D01*
X320881Y592986D01*
X320629Y593593D01*
X320186Y594171D01*
X319608Y594614D01*
X318934Y594893D01*
X318212Y594988D01*
X318172D01*
X317450Y594893D01*
X316776Y594614D01*
X316198Y594171D01*
X315755Y593593D01*
X315503Y592986D01*
X315242Y592927D01*
X314981Y592986D01*
X314729Y593593D01*
X314286Y594171D01*
X313708Y594614D01*
X313035Y594893D01*
X312312Y594988D01*
X312272D01*
X311550Y594893D01*
X310876Y594614D01*
X310298Y594171D01*
X309855Y593593D01*
X309603Y592986D01*
X309342Y592927D01*
X309081Y592986D01*
X308829Y593593D01*
X308386Y594171D01*
X307808Y594614D01*
X307135Y594893D01*
X306412Y594988D01*
X306372D01*
X305650Y594893D01*
X304977Y594614D01*
X304398Y594171D01*
X303955Y593593D01*
X303703Y592986D01*
X303442Y592927D01*
X303181Y592986D01*
X302929Y593593D01*
X302486Y594171D01*
X301908Y594614D01*
X301235Y594893D01*
X300512Y594988D01*
X300472D01*
X299750Y594893D01*
X299077Y594614D01*
X298498Y594171D01*
X298055Y593593D01*
X297776Y592919D01*
X297681Y592197D01*
Y590157D01*
X297776Y589434D01*
X298055Y588761D01*
X298498Y588183D01*
X299077Y587740D01*
X299750Y587461D01*
X300472Y587366D01*
X300512D01*
X301235Y587461D01*
X301908Y587740D01*
X302486Y588183D01*
X302929Y588761D01*
X303181Y589368D01*
X303442Y589427D01*
X303703Y589368D01*
X303955Y588761D01*
X304398Y588183D01*
X304977Y587740D01*
X305650Y587461D01*
X306372Y587366D01*
X306412D01*
X307135Y587461D01*
X307808Y587740D01*
X308386Y588183D01*
X308829Y588761D01*
X309081Y589368D01*
X309342Y589427D01*
X309603Y589368D01*
X309855Y588761D01*
X310298Y588183D01*
X310876Y587740D01*
X311550Y587461D01*
X312272Y587366D01*
X312312D01*
X313035Y587461D01*
X313708Y587740D01*
X314286Y588183D01*
X314729Y588761D01*
X314981Y589368D01*
X315242Y589427D01*
X315503Y589368D01*
X315755Y588761D01*
X316198Y588183D01*
X316776Y587740D01*
X317450Y587461D01*
X318172Y587366D01*
X318212D01*
X318934Y587461D01*
X319608Y587740D01*
X320186Y588183D01*
X320629Y588761D01*
X320881Y589368D01*
X321142Y589427D01*
X321403Y589368D01*
X321655Y588761D01*
X322098Y588183D01*
X322676Y587740D01*
X323350Y587461D01*
X324072Y587366D01*
X324112D01*
X324834Y587461D01*
X325508Y587740D01*
X326086Y588183D01*
X326529Y588761D01*
X326808Y589434D01*
X327304D01*
X327582Y588761D01*
X328026Y588183D01*
X328604Y587740D01*
X329277Y587461D01*
X330000Y587366D01*
X330040D01*
X330762Y587461D01*
X331435Y587740D01*
X332013Y588183D01*
X332457Y588761D01*
X332712Y589377D01*
X332908Y589434D01*
X333036D01*
X333233Y589377D01*
X333488Y588761D01*
X333931Y588183D01*
X334509Y587740D01*
X335183Y587461D01*
X335905Y587366D01*
X335945D01*
X336667Y587461D01*
X337341Y587740D01*
X337919Y588183D01*
X338362Y588761D01*
X338618Y589377D01*
X338811Y589434D01*
X338945D01*
X339138Y589377D01*
X339393Y588761D01*
X339837Y588183D01*
X340415Y587740D01*
X341088Y587461D01*
X341811Y587366D01*
X341851D01*
X342573Y587461D01*
X343246Y587740D01*
X343824Y588183D01*
X344268Y588761D01*
X344523Y589377D01*
X344717Y589434D01*
X344850D01*
X345044Y589377D01*
X345299Y588761D01*
X345743Y588183D01*
X346321Y587740D01*
X346994Y587461D01*
X347716Y587366D01*
X347756D01*
X348479Y587461D01*
X349152Y587740D01*
X349730Y588183D01*
X350174Y588761D01*
X350429Y589377D01*
X350625Y589434D01*
X350753D01*
X350949Y589377D01*
X351204Y588761D01*
X351648Y588183D01*
X352226Y587740D01*
X352899Y587461D01*
X353622Y587366D01*
X353662D01*
X354384Y587461D01*
X355057Y587740D01*
X355635Y588183D01*
X356079Y588761D01*
X356334Y589377D01*
X356528Y589434D01*
X356661D01*
X356855Y589377D01*
X357110Y588761D01*
X357554Y588183D01*
X357766Y588020D01*
X357809Y587357D01*
X354609Y584157D01*
X354155Y584345D01*
X353297Y584458D01*
X352439Y584345D01*
X351639Y584013D01*
X350953Y583486D01*
X350426Y582800D01*
X350094Y582000D01*
X349981Y581142D01*
X350094Y580284D01*
X350426Y579484D01*
X350953Y578797D01*
X351639Y578270D01*
X352439Y577939D01*
X353297Y577826D01*
X354155Y577939D01*
X354955Y578270D01*
X355642Y578797D01*
X356169Y579484D01*
X356500Y580284D01*
X356613Y581142D01*
X356500Y582000D01*
X356312Y582454D01*
X360399Y586540D01*
X360399Y586540D01*
X360660Y586931D01*
X360752Y587392D01*
Y587652D01*
X360963Y587740D01*
X361541Y588183D01*
X361985Y588761D01*
X362240Y589377D01*
X362436Y589434D01*
X362564D01*
X362760Y589377D01*
X363015Y588761D01*
X363459Y588183D01*
X364037Y587740D01*
X364248Y587652D01*
Y554540D01*
X363842Y554372D01*
X363155Y553845D01*
X362629Y553158D01*
X362297Y552358D01*
X362184Y551500D01*
X362297Y550642D01*
X362629Y549842D01*
X363155Y549155D01*
X363842Y548629D01*
X364642Y548297D01*
X365500Y548184D01*
X366358Y548297D01*
X367158Y548629D01*
X367845Y549155D01*
X368372Y549842D01*
X368703Y550642D01*
X368816Y551500D01*
X368703Y552358D01*
X368372Y553158D01*
X367845Y553845D01*
X367158Y554372D01*
X366657Y554579D01*
Y587652D01*
X366868Y587740D01*
X367446Y588183D01*
X367890Y588761D01*
X368020Y589075D01*
X368561Y589075D01*
X368735Y588654D01*
X369213Y588031D01*
X369835Y587554D01*
X370560Y587254D01*
X370858Y587214D01*
Y591177D01*
Y595139D01*
D02*
G37*
G36*
X379008Y588303D02*
X378488D01*
X377710Y588200D01*
X376985Y587900D01*
X376362Y587422D01*
X375885Y586800D01*
X375585Y586075D01*
X375545Y585777D01*
X379008D01*
Y588303D01*
D02*
G37*
G36*
X479500Y593837D02*
X477805Y593703D01*
X476151Y593306D01*
X474580Y592656D01*
X473130Y591767D01*
X471837Y590663D01*
X470733Y589370D01*
X469844Y587920D01*
X469194Y586349D01*
X468797Y584695D01*
X468663Y583000D01*
X468797Y581305D01*
X469194Y579651D01*
X469844Y578080D01*
X470733Y576630D01*
X471837Y575337D01*
X473130Y574233D01*
X474580Y573345D01*
X476151Y572694D01*
X477805Y572297D01*
X479500Y572163D01*
X481195Y572297D01*
X482849Y572694D01*
X484420Y573345D01*
X485870Y574233D01*
X487163Y575337D01*
X488267Y576630D01*
X489155Y578080D01*
X489806Y579651D01*
X490203Y581305D01*
X490337Y583000D01*
X490203Y584695D01*
X489806Y586349D01*
X489155Y587920D01*
X488267Y589370D01*
X487163Y590663D01*
X485870Y591767D01*
X484420Y592656D01*
X482849Y593306D01*
X481195Y593703D01*
X479500Y593837D01*
D02*
G37*
G36*
X360256Y444776D02*
X357000D01*
Y442504D01*
X360256D01*
Y444776D01*
D02*
G37*
G36*
X380528Y588303D02*
X380008D01*
Y585777D01*
X383470D01*
X383431Y586075D01*
X383131Y586800D01*
X382653Y587422D01*
X382031Y587900D01*
X381306Y588200D01*
X380528Y588303D01*
D02*
G37*
G36*
X406347Y567768D02*
X402500D01*
Y565693D01*
X406347D01*
Y567768D01*
D02*
G37*
G36*
X420114Y563697D02*
X419137Y563568D01*
X418228Y563192D01*
X417446Y562592D01*
X416847Y561811D01*
X416470Y560901D01*
X416341Y559925D01*
X416470Y558948D01*
X416847Y558038D01*
X417446Y557257D01*
X418228Y556658D01*
X419137Y556281D01*
X420114Y556152D01*
X421090Y556281D01*
X422000Y556658D01*
X422781Y557257D01*
X423381Y558038D01*
X423758Y558948D01*
X423886Y559925D01*
X423758Y560901D01*
X423381Y561811D01*
X422781Y562592D01*
X422000Y563192D01*
X421090Y563568D01*
X420114Y563697D01*
D02*
G37*
G36*
X464500Y566272D02*
X463524Y566144D01*
X462614Y565767D01*
X461833Y565168D01*
X461233Y564386D01*
X460856Y563476D01*
X460728Y562500D01*
X460856Y561524D01*
X461233Y560614D01*
X461833Y559832D01*
X462614Y559233D01*
X463524Y558856D01*
X464500Y558728D01*
X465476Y558856D01*
X466386Y559233D01*
X467168Y559832D01*
X467767Y560614D01*
X468144Y561524D01*
X468272Y562500D01*
X468144Y563476D01*
X467767Y564386D01*
X467168Y565168D01*
X466386Y565767D01*
X465476Y566144D01*
X464500Y566272D01*
D02*
G37*
G36*
X401500Y564693D02*
X397654D01*
Y562618D01*
X401500D01*
Y564693D01*
D02*
G37*
G36*
X486500Y556694D02*
X485524Y556565D01*
X484614Y556188D01*
X483833Y555589D01*
X483233Y554807D01*
X482950Y554125D01*
X467875D01*
X467767Y554386D01*
X467168Y555167D01*
X466386Y555767D01*
X465476Y556144D01*
X464500Y556272D01*
X463524Y556144D01*
X462614Y555767D01*
X461833Y555167D01*
X461233Y554386D01*
X460856Y553476D01*
X460728Y552500D01*
X460856Y551524D01*
X461233Y550614D01*
X461833Y549832D01*
X462614Y549233D01*
X463524Y548856D01*
X464500Y548728D01*
X465476Y548856D01*
X466386Y549233D01*
X467168Y549832D01*
X467767Y550614D01*
X468144Y551524D01*
X468169Y551717D01*
X482950D01*
X483233Y551035D01*
X483833Y550254D01*
X484614Y549654D01*
X485524Y549277D01*
X486500Y549149D01*
X487476Y549277D01*
X488386Y549654D01*
X489167Y550254D01*
X489767Y551035D01*
X490144Y551945D01*
X490272Y552921D01*
X490144Y553898D01*
X489767Y554807D01*
X489167Y555589D01*
X488386Y556188D01*
X487476Y556565D01*
X486500Y556694D01*
D02*
G37*
G36*
X389500Y554816D02*
X388642Y554703D01*
X387842Y554372D01*
X387155Y553845D01*
X386629Y553158D01*
X386297Y552358D01*
X386184Y551500D01*
X386297Y550642D01*
X386629Y549842D01*
X387155Y549155D01*
X387842Y548629D01*
X388642Y548297D01*
X388796Y548277D01*
Y547193D01*
X386457D01*
Y542468D01*
X393543D01*
Y547193D01*
X391204D01*
Y548664D01*
X391845Y549155D01*
X392372Y549842D01*
X392560Y550296D01*
X397866D01*
Y549445D01*
X406134D01*
Y554169D01*
X397866D01*
Y552704D01*
X392560D01*
X392372Y553158D01*
X391845Y553845D01*
X391158Y554372D01*
X390358Y554703D01*
X389500Y554816D01*
D02*
G37*
G36*
X307347Y473614D02*
X303500D01*
Y471540D01*
X307347D01*
Y473614D01*
D02*
G37*
G36*
X302500D02*
X298654D01*
Y471540D01*
X302500D01*
Y473614D01*
D02*
G37*
G36*
X406347Y564693D02*
X402500D01*
Y562618D01*
X406347D01*
Y564693D01*
D02*
G37*
G36*
X401500Y567768D02*
X397654D01*
Y565693D01*
X401500D01*
Y567768D01*
D02*
G37*
G36*
X387256Y453866D02*
X384000D01*
Y451594D01*
X387256D01*
Y453866D01*
D02*
G37*
G36*
X383000Y457138D02*
X379744D01*
Y454866D01*
X383000D01*
Y457138D01*
D02*
G37*
G36*
X387256D02*
X384000D01*
Y454866D01*
X387256D01*
Y457138D01*
D02*
G37*
G36*
X391000Y564972D02*
X388728D01*
Y563094D01*
X391000D01*
Y564972D01*
D02*
G37*
G36*
X379232Y476991D02*
Y472614D01*
Y468007D01*
X379497Y467802D01*
Y464933D01*
X379497Y464933D01*
X379588Y464472D01*
X379849Y464081D01*
X379957Y463974D01*
Y460075D01*
X387043D01*
Y465193D01*
X382144D01*
X381905Y465432D01*
Y469082D01*
X381999Y469222D01*
X382106Y469760D01*
Y475468D01*
X381999Y476006D01*
X381694Y476462D01*
X381239Y476766D01*
X380701Y476873D01*
X380163Y476766D01*
X379897Y476589D01*
X379879Y476615D01*
X379353Y476967D01*
X379232Y476991D01*
D02*
G37*
G36*
X394272Y564972D02*
X392000D01*
Y563094D01*
X394272D01*
Y564972D01*
D02*
G37*
%LPD*%
G36*
X303703Y536015D02*
X303955Y535408D01*
X304398Y534830D01*
X304977Y534386D01*
X305188Y534298D01*
Y534108D01*
X305188Y534108D01*
X305279Y533647D01*
X305541Y533256D01*
X307648Y531148D01*
X308039Y530887D01*
X308500Y530796D01*
X316311D01*
Y528358D01*
X307845D01*
X302213Y533990D01*
X302257Y534654D01*
X302486Y534830D01*
X302929Y535408D01*
X303181Y536015D01*
X303442Y536073D01*
X303703Y536015D01*
D02*
G37*
G36*
X409296Y347001D02*
Y339500D01*
X409296Y339500D01*
X409387Y339039D01*
X409649Y338649D01*
X414631Y333666D01*
X414439Y333204D01*
X409499D01*
X403496Y339207D01*
Y343138D01*
X403532D01*
Y347650D01*
X404374D01*
Y348058D01*
X404761Y348376D01*
X404791Y348369D01*
X407626D01*
X407877Y348419D01*
X409296Y347001D01*
D02*
G37*
G36*
X381731Y370496D02*
X381628Y370362D01*
X381297Y369562D01*
X381184Y368704D01*
X381297Y367846D01*
X381628Y367046D01*
X382155Y366360D01*
X382842Y365833D01*
X383642Y365501D01*
X384500Y365388D01*
X385358Y365501D01*
X386158Y365833D01*
X386845Y366360D01*
X387371Y367046D01*
X387560Y367500D01*
X391797D01*
X393213Y366084D01*
Y364004D01*
X393177D01*
Y359492D01*
X392531D01*
Y358748D01*
X388039D01*
Y358712D01*
X383991D01*
X380338Y362365D01*
Y370980D01*
X381473D01*
X381731Y370496D01*
D02*
G37*
G36*
X390604Y322693D02*
X390397Y322193D01*
X388457D01*
Y320946D01*
X384043D01*
Y322216D01*
X381704D01*
Y330913D01*
X381975Y331056D01*
X382204Y331093D01*
X390604Y322693D01*
D02*
G37*
G36*
X427593Y430658D02*
X427310Y429976D01*
X427182Y429000D01*
X427310Y428024D01*
X427687Y427114D01*
X428287Y426333D01*
X429068Y425733D01*
X429978Y425356D01*
X430954Y425228D01*
X431931Y425356D01*
X432613Y425639D01*
X434274Y423977D01*
Y421638D01*
X433775Y421468D01*
X433622Y421667D01*
X432840Y422267D01*
X431931Y422644D01*
X430954Y422772D01*
X429978Y422644D01*
X429296Y422361D01*
X415704Y435953D01*
Y441894D01*
X416166Y442085D01*
X427593Y430658D01*
D02*
G37*
G36*
X368221Y515365D02*
Y503376D01*
X367773Y503190D01*
X367087Y502663D01*
X366560Y501977D01*
X366228Y501177D01*
X366115Y500319D01*
X366228Y499461D01*
X366560Y498661D01*
X367087Y497974D01*
X367773Y497447D01*
X368573Y497116D01*
X369431Y497003D01*
X370289Y497116D01*
X371089Y497447D01*
X371776Y497974D01*
X372303Y498661D01*
X372634Y499461D01*
X372732Y500206D01*
X372844Y500325D01*
X372976Y500410D01*
X373226Y500510D01*
X373877Y500240D01*
X374735Y500127D01*
X375593Y500240D01*
X376393Y500571D01*
X377080Y501098D01*
X377606Y501785D01*
X377938Y502585D01*
X378051Y503443D01*
X377938Y504301D01*
X377739Y504780D01*
X378091Y505238D01*
X378500Y505184D01*
X379358Y505297D01*
X380158Y505628D01*
X380845Y506155D01*
X381371Y506842D01*
X381703Y507642D01*
X381816Y508500D01*
X381703Y509358D01*
X381371Y510158D01*
X380845Y510845D01*
X380158Y511372D01*
X380008Y511434D01*
X380075Y511947D01*
X380701Y512029D01*
X381501Y512361D01*
X382187Y512888D01*
X382714Y513574D01*
X383046Y514374D01*
X383110Y514865D01*
D01*
X383142Y515106D01*
X383145Y515107D01*
X383162Y515107D01*
X383192Y515108D01*
X383576Y515121D01*
X383618Y515122D01*
X383642Y515123D01*
X383648Y515123D01*
X383699Y514867D01*
Y514867D01*
X383734Y514694D01*
X384032Y514248D01*
X383734Y513801D01*
X383627Y513264D01*
X383734Y512726D01*
X384032Y512280D01*
X383734Y511833D01*
X383627Y511295D01*
X383734Y510757D01*
X384032Y510311D01*
X383734Y509865D01*
X383627Y509327D01*
X383734Y508789D01*
X384032Y508343D01*
X383734Y507896D01*
X383627Y507358D01*
X383734Y506821D01*
X384032Y506374D01*
X383734Y505928D01*
X383627Y505390D01*
X383734Y504852D01*
X384032Y504405D01*
X383734Y503959D01*
X383627Y503421D01*
X383734Y502884D01*
X384032Y502437D01*
X383734Y501990D01*
X383627Y501453D01*
X383734Y500915D01*
X384032Y500468D01*
X383734Y500022D01*
X383627Y499484D01*
X383734Y498947D01*
X384032Y498500D01*
X383734Y498053D01*
X383627Y497516D01*
X383734Y496978D01*
X384032Y496531D01*
X383734Y496085D01*
X383627Y495547D01*
X383734Y495010D01*
X384032Y494563D01*
X383734Y494116D01*
X383627Y493579D01*
X383679Y493315D01*
X383330Y492814D01*
X372610D01*
X372149Y492723D01*
X371993Y492618D01*
X371759Y492462D01*
X371759Y492462D01*
X365501Y486204D01*
X358559D01*
X358371Y486658D01*
X357845Y487345D01*
X357158Y487872D01*
X356358Y488203D01*
X355500Y488316D01*
X354642Y488203D01*
X353842Y487872D01*
X353155Y487345D01*
X352628Y486658D01*
X352297Y485858D01*
X352184Y485000D01*
X352297Y484142D01*
X352628Y483342D01*
X353155Y482655D01*
X353842Y482128D01*
X354642Y481797D01*
X355500Y481684D01*
X356358Y481797D01*
X357158Y482128D01*
X357845Y482655D01*
X358371Y483342D01*
X358559Y483796D01*
X362002D01*
X362030Y483713D01*
X362118Y483296D01*
X361629Y482658D01*
X361297Y481858D01*
X361184Y481000D01*
X361297Y480142D01*
X361325Y480075D01*
X360901Y479792D01*
X360841Y479851D01*
X360451Y480113D01*
X359990Y480204D01*
X359990Y480204D01*
X352796D01*
X346888Y486111D01*
Y488940D01*
X347342Y489128D01*
X348029Y489655D01*
X348556Y490342D01*
X348887Y491142D01*
X349000Y492000D01*
X348887Y492858D01*
X348556Y493658D01*
X348029Y494345D01*
X347342Y494872D01*
X347306Y494886D01*
Y510337D01*
X347768Y510529D01*
X348649Y509649D01*
X348649Y509649D01*
X348883Y509492D01*
X349039Y509387D01*
X349500Y509296D01*
X357206D01*
X357206Y509296D01*
X357538Y509362D01*
X357840Y508990D01*
X357856Y508954D01*
X357628Y508658D01*
X357297Y507858D01*
X357184Y507000D01*
X357297Y506142D01*
X357628Y505342D01*
X358033Y504815D01*
X358018Y504302D01*
X357967Y504170D01*
X355723Y501926D01*
X355462Y501535D01*
X355370Y501075D01*
X355370Y501075D01*
Y499688D01*
X354917Y499500D01*
X354230Y498973D01*
X353703Y498286D01*
X353372Y497487D01*
X353259Y496629D01*
X353372Y495770D01*
X353703Y494971D01*
X354230Y494284D01*
X354917Y493757D01*
X355716Y493426D01*
X356575Y493313D01*
X357433Y493426D01*
X358232Y493757D01*
X358919Y494284D01*
X359446Y494971D01*
X359777Y495770D01*
X359790Y495865D01*
X360316Y496032D01*
X360842Y495628D01*
X361642Y495297D01*
X362500Y495184D01*
X363358Y495297D01*
X364158Y495628D01*
X364845Y496155D01*
X365371Y496842D01*
X365703Y497642D01*
X365816Y498500D01*
X365703Y499358D01*
X365371Y500158D01*
X364845Y500845D01*
X364473Y501130D01*
X364417Y501781D01*
X366757Y504121D01*
X366757Y504121D01*
X366914Y504355D01*
X367018Y504512D01*
X367110Y504973D01*
Y514907D01*
X367759Y515556D01*
X368221Y515365D01*
D02*
G37*
G36*
X436543Y396807D02*
X436546Y396308D01*
Y389749D01*
X429106Y382309D01*
X428682Y382593D01*
X428703Y382642D01*
X428816Y383500D01*
X428703Y384358D01*
X428371Y385158D01*
X427845Y385845D01*
X427158Y386371D01*
X426358Y386703D01*
X425500Y386816D01*
X424642Y386703D01*
X423842Y386371D01*
X423155Y385845D01*
X422628Y385158D01*
X422440Y384704D01*
X419614D01*
X419407Y385204D01*
X431010Y396807D01*
X436543D01*
D02*
G37*
G36*
X418390Y492796D02*
X429038D01*
X429137Y492296D01*
X429068Y492267D01*
X428287Y491668D01*
X427687Y490886D01*
X427405Y490204D01*
X417371D01*
X417124Y490704D01*
X417372Y491026D01*
X417703Y491826D01*
X417782Y492430D01*
X418219Y492791D01*
X418303Y492813D01*
X418390Y492796D01*
D02*
G37*
G36*
X458585Y490666D02*
X458394Y490204D01*
X444504D01*
X444221Y490886D01*
X443622Y491668D01*
X442840Y492267D01*
X441931Y492644D01*
X440954Y492772D01*
X439978Y492644D01*
X439068Y492267D01*
X438287Y491668D01*
X437687Y490886D01*
X437310Y489976D01*
X437182Y489000D01*
X437310Y488024D01*
X437687Y487114D01*
X438287Y486333D01*
X439068Y485733D01*
X439978Y485356D01*
X440954Y485228D01*
X441931Y485356D01*
X442840Y485733D01*
X443622Y486333D01*
X444221Y487114D01*
X444504Y487796D01*
X459228D01*
X466358Y480666D01*
X466166Y480204D01*
X444504D01*
X444221Y480886D01*
X443622Y481668D01*
X442840Y482267D01*
X441931Y482644D01*
X440954Y482772D01*
X439978Y482644D01*
X439068Y482267D01*
X438287Y481668D01*
X437687Y480886D01*
X437310Y479976D01*
X437182Y479000D01*
X437310Y478024D01*
X437687Y477114D01*
X438287Y476333D01*
X439068Y475733D01*
X439978Y475356D01*
X440954Y475228D01*
X441931Y475356D01*
X442840Y475733D01*
X443622Y476333D01*
X444221Y477114D01*
X444504Y477796D01*
X467001D01*
X476571Y468226D01*
Y388274D01*
X441666Y353369D01*
X441204Y353561D01*
Y414108D01*
X441113Y414569D01*
X441000Y414737D01*
X441228Y415264D01*
X441931Y415356D01*
X442840Y415733D01*
X443622Y416332D01*
X444221Y417114D01*
X444598Y418024D01*
X444727Y419000D01*
X444598Y419976D01*
X444221Y420886D01*
X443622Y421667D01*
X442840Y422267D01*
X441931Y422644D01*
X440954Y422772D01*
X439978Y422644D01*
X439068Y422267D01*
X438287Y421667D01*
X437687Y420886D01*
X437310Y419976D01*
X437290Y419823D01*
X436755Y419591D01*
X436683Y419643D01*
Y424475D01*
X436591Y424936D01*
X436330Y425327D01*
X434316Y427342D01*
X434598Y428024D01*
X434727Y429000D01*
X434598Y429976D01*
X434221Y430886D01*
X433622Y431668D01*
X432840Y432267D01*
X431931Y432644D01*
X430954Y432772D01*
X429978Y432644D01*
X429296Y432361D01*
X417704Y443953D01*
Y451939D01*
X418166Y452131D01*
X428308Y441989D01*
X428287Y441668D01*
X427687Y440886D01*
X427310Y439976D01*
X427182Y439000D01*
X427310Y438024D01*
X427687Y437114D01*
X428287Y436333D01*
X429068Y435733D01*
X429978Y435356D01*
X430954Y435228D01*
X431931Y435356D01*
X432840Y435733D01*
X433622Y436333D01*
X434221Y437114D01*
X434317Y437345D01*
X434837Y437293D01*
X434887Y437039D01*
X435148Y436649D01*
X438648Y433148D01*
X438649Y433148D01*
X439039Y432887D01*
X439188Y432858D01*
X439239Y432338D01*
X439068Y432267D01*
X438287Y431668D01*
X437687Y430886D01*
X437310Y429976D01*
X437182Y429000D01*
X437310Y428024D01*
X437687Y427114D01*
X438287Y426333D01*
X439068Y425733D01*
X439978Y425356D01*
X440954Y425228D01*
X441931Y425356D01*
X442840Y425733D01*
X443622Y426333D01*
X444221Y427114D01*
X444598Y428024D01*
X444727Y429000D01*
X444598Y429976D01*
X444221Y430886D01*
X443622Y431668D01*
X442840Y432267D01*
X442771Y432296D01*
X442871Y432796D01*
X446001D01*
X451937Y426860D01*
Y426287D01*
X451057Y425922D01*
X450193Y425259D01*
X449531Y424396D01*
X449114Y423390D01*
X448972Y422311D01*
X449114Y421232D01*
X449531Y420226D01*
X450193Y419363D01*
X451057Y418700D01*
X452063Y418284D01*
X453142Y418142D01*
X454221Y418284D01*
X455227Y418700D01*
X456090Y419363D01*
X456753Y420226D01*
X457169Y421232D01*
X457311Y422311D01*
X457169Y423390D01*
X456753Y424396D01*
X456090Y425259D01*
X455227Y425922D01*
X454346Y426287D01*
Y427358D01*
X454254Y427819D01*
X454150Y427976D01*
X453993Y428210D01*
X453993Y428210D01*
X447352Y434852D01*
X446961Y435113D01*
X446500Y435204D01*
X446500Y435204D01*
X442871D01*
X442771Y435704D01*
X442840Y435733D01*
X443622Y436333D01*
X444221Y437114D01*
X444598Y438024D01*
X444727Y439000D01*
X444598Y439976D01*
X444221Y440886D01*
X443622Y441668D01*
X442840Y442267D01*
X441931Y442644D01*
X440954Y442772D01*
X439978Y442644D01*
X439068Y442267D01*
X438287Y441668D01*
X437704Y440908D01*
X437653Y440904D01*
X437204Y441084D01*
Y443954D01*
X437204Y443954D01*
X437113Y444415D01*
X436852Y444806D01*
X434316Y447342D01*
X434598Y448024D01*
X434727Y449000D01*
X434598Y449976D01*
X434221Y450886D01*
X433622Y451667D01*
X432840Y452267D01*
X431931Y452644D01*
X430954Y452772D01*
X429978Y452644D01*
X429296Y452361D01*
X421279Y460378D01*
Y466319D01*
X421741Y466510D01*
X427593Y460658D01*
X427310Y459976D01*
X427182Y459000D01*
X427310Y458024D01*
X427687Y457114D01*
X428287Y456332D01*
X429068Y455733D01*
X429978Y455356D01*
X430954Y455228D01*
X431931Y455356D01*
X432840Y455733D01*
X433622Y456332D01*
X434221Y457114D01*
X434598Y458024D01*
X434727Y459000D01*
X434598Y459976D01*
X434316Y460658D01*
X435764Y462107D01*
X438124D01*
X438240Y461607D01*
X437687Y460886D01*
X437310Y459976D01*
X437182Y459000D01*
X437310Y458024D01*
X437687Y457114D01*
X438287Y456332D01*
X439068Y455733D01*
X439978Y455356D01*
X440954Y455228D01*
X441931Y455356D01*
X442840Y455733D01*
X443622Y456332D01*
X444221Y457114D01*
X444598Y458024D01*
X444727Y459000D01*
X444598Y459976D01*
X444221Y460886D01*
X443668Y461607D01*
X443785Y462107D01*
X449166D01*
X449531Y461226D01*
X450193Y460363D01*
X451057Y459700D01*
X452063Y459284D01*
X453142Y459141D01*
X454221Y459284D01*
X455227Y459700D01*
X456090Y460363D01*
X456753Y461226D01*
X457169Y462232D01*
X457311Y463311D01*
X457169Y464390D01*
X456753Y465396D01*
X456090Y466259D01*
X455227Y466922D01*
X454221Y467339D01*
X453142Y467481D01*
X452063Y467339D01*
X451057Y466922D01*
X450193Y466259D01*
X449531Y465396D01*
X449166Y464515D01*
X435265D01*
X435265Y464515D01*
X434804Y464424D01*
X434414Y464163D01*
X434414Y464162D01*
X432613Y462361D01*
X431931Y462644D01*
X430954Y462772D01*
X429978Y462644D01*
X429296Y462361D01*
X422854Y468803D01*
Y474541D01*
X423316Y474732D01*
X427533Y470515D01*
X427310Y469976D01*
X427182Y469000D01*
X427310Y468024D01*
X427687Y467114D01*
X428287Y466332D01*
X429068Y465733D01*
X429978Y465356D01*
X430954Y465228D01*
X431931Y465356D01*
X432840Y465733D01*
X433622Y466332D01*
X434221Y467114D01*
X434598Y468024D01*
X434727Y469000D01*
X434598Y469976D01*
X434221Y470886D01*
X433622Y471667D01*
X432840Y472267D01*
X431931Y472644D01*
X430954Y472772D01*
X429978Y472644D01*
X429152Y472302D01*
X414120Y487334D01*
X414312Y487796D01*
X427405D01*
X427687Y487114D01*
X428287Y486333D01*
X429068Y485733D01*
X429978Y485356D01*
X430954Y485228D01*
X431931Y485356D01*
X432840Y485733D01*
X433622Y486333D01*
X434221Y487114D01*
X434598Y488024D01*
X434727Y489000D01*
X434598Y489976D01*
X434221Y490886D01*
X433622Y491668D01*
X432840Y492267D01*
X432771Y492296D01*
X432870Y492796D01*
X435954D01*
X435954Y492796D01*
X436415Y492887D01*
X436806Y493149D01*
X439296Y495639D01*
X439978Y495356D01*
X440954Y495228D01*
X441931Y495356D01*
X442840Y495733D01*
X443622Y496333D01*
X444221Y497114D01*
X444504Y497796D01*
X451455D01*
X458585Y490666D01*
D02*
G37*
G36*
X428282Y398515D02*
X428475Y398386D01*
X428595Y397798D01*
X414049Y383252D01*
X413672Y383582D01*
X413871Y383842D01*
X414203Y384642D01*
X414316Y385500D01*
X414203Y386358D01*
X413871Y387158D01*
X413345Y387845D01*
X412658Y388371D01*
X412204Y388560D01*
Y390000D01*
X412204Y390000D01*
X412113Y390461D01*
X411852Y390851D01*
X405680Y397024D01*
X407695Y399040D01*
X408157Y398848D01*
Y398071D01*
X414350D01*
X414457Y398071D01*
X414653D01*
X414850D01*
X414957Y398071D01*
X421150D01*
Y403583D01*
Y404940D01*
X421650Y405147D01*
X428282Y398515D01*
D02*
G37*
G36*
X438796Y387886D02*
Y352999D01*
X423726Y337929D01*
X418774D01*
X415204Y341499D01*
Y349727D01*
X415113Y350188D01*
X414852Y350579D01*
X411595Y353835D01*
X411802Y354335D01*
X419307D01*
Y350957D01*
X420060D01*
Y347643D01*
X419786Y347286D01*
X419455Y346487D01*
X419342Y345628D01*
X419455Y344770D01*
X419786Y343971D01*
X420313Y343284D01*
X421000Y342757D01*
X421800Y342426D01*
X422658Y342313D01*
X423516Y342426D01*
X424316Y342757D01*
X425002Y343284D01*
X425529Y343971D01*
X425861Y344770D01*
X425974Y345628D01*
X425861Y346487D01*
X425529Y347286D01*
X425002Y347973D01*
X424316Y348500D01*
X423673Y348766D01*
Y350957D01*
X424425D01*
Y358043D01*
X419307D01*
Y356744D01*
X415734D01*
X415543Y357206D01*
X418807Y360470D01*
X419307Y360263D01*
Y359957D01*
X424425D01*
Y367043D01*
X419307D01*
Y363070D01*
X418500D01*
X418500Y363070D01*
X418039Y362979D01*
X417649Y362718D01*
X413643Y358712D01*
X408866D01*
Y358748D01*
X404374D01*
Y359492D01*
X403532D01*
Y363329D01*
X416499Y376296D01*
X426000D01*
X426000Y376296D01*
X426461Y376387D01*
X426852Y376648D01*
X438296Y388093D01*
X438796Y387886D01*
D02*
G37*
G36*
X392957Y373831D02*
X395296D01*
Y368114D01*
X394796Y367907D01*
X393147Y369556D01*
X392757Y369817D01*
X392296Y369908D01*
X392296Y369908D01*
X387560D01*
X387371Y370362D01*
X386845Y371049D01*
X386158Y371576D01*
X385358Y371907D01*
X384500Y372020D01*
X383642Y371907D01*
X382842Y371576D01*
X382193Y371077D01*
X382030Y371108D01*
X381693Y371267D01*
Y373319D01*
X386524D01*
X386524Y373319D01*
X386984Y373411D01*
X387375Y373672D01*
X388889Y375186D01*
X392957D01*
Y373831D01*
D02*
G37*
G36*
X427593Y450658D02*
X427310Y449976D01*
X427182Y449000D01*
X427310Y448024D01*
X427687Y447114D01*
X428287Y446333D01*
X429068Y445733D01*
X429978Y445356D01*
X430954Y445228D01*
X431931Y445356D01*
X432613Y445639D01*
X434796Y443455D01*
Y440806D01*
X434296Y440706D01*
X434221Y440886D01*
X433622Y441668D01*
X432840Y442267D01*
X431931Y442644D01*
X430954Y442772D01*
X430933Y442770D01*
X419704Y453999D01*
Y457894D01*
X420166Y458085D01*
X427593Y450658D01*
D02*
G37*
%LPC*%
G36*
X471358Y467629D02*
Y463811D01*
X475176D01*
X475093Y464446D01*
X474655Y465503D01*
X473958Y466411D01*
X473050Y467108D01*
X471993Y467546D01*
X471358Y467629D01*
D02*
G37*
G36*
X440954Y472772D02*
X439978Y472644D01*
X439068Y472267D01*
X438287Y471667D01*
X437687Y470886D01*
X437310Y469976D01*
X437182Y469000D01*
X437310Y468024D01*
X437687Y467114D01*
X438287Y466332D01*
X439068Y465733D01*
X439978Y465356D01*
X440954Y465228D01*
X441931Y465356D01*
X442840Y465733D01*
X443622Y466332D01*
X444221Y467114D01*
X444598Y468024D01*
X444727Y469000D01*
X444598Y469976D01*
X444221Y470886D01*
X443622Y471667D01*
X442840Y472267D01*
X441931Y472644D01*
X440954Y472772D01*
D02*
G37*
G36*
X470358Y467629D02*
X469724Y467546D01*
X468666Y467108D01*
X467758Y466411D01*
X467062Y465503D01*
X466624Y464446D01*
X466540Y463811D01*
X470358D01*
Y467629D01*
D02*
G37*
G36*
Y462811D02*
X466540D01*
X466624Y462176D01*
X467062Y461119D01*
X467758Y460211D01*
X468666Y459514D01*
X469724Y459076D01*
X470358Y458993D01*
Y462811D01*
D02*
G37*
G36*
X475176D02*
X471358D01*
Y458993D01*
X471993Y459076D01*
X473050Y459514D01*
X473958Y460211D01*
X474655Y461119D01*
X475093Y462176D01*
X475176Y462811D01*
D02*
G37*
G36*
Y439583D02*
X471358D01*
Y435765D01*
X471993Y435848D01*
X473050Y436286D01*
X473958Y436983D01*
X474655Y437891D01*
X475093Y438948D01*
X475176Y439583D01*
D02*
G37*
G36*
X470358D02*
X466540D01*
X466624Y438948D01*
X467062Y437891D01*
X467758Y436983D01*
X468666Y436286D01*
X469724Y435848D01*
X470358Y435765D01*
Y439583D01*
D02*
G37*
G36*
X453142Y444252D02*
X452063Y444110D01*
X451057Y443694D01*
X450193Y443031D01*
X449531Y442167D01*
X449114Y441162D01*
X448972Y440083D01*
X449114Y439004D01*
X449531Y437998D01*
X450193Y437134D01*
X451057Y436472D01*
X452063Y436055D01*
X453142Y435913D01*
X454221Y436055D01*
X455227Y436472D01*
X456090Y437134D01*
X456753Y437998D01*
X457169Y439004D01*
X457311Y440083D01*
X457169Y441162D01*
X456753Y442167D01*
X456090Y443031D01*
X455227Y443694D01*
X454221Y444110D01*
X453142Y444252D01*
D02*
G37*
G36*
X470358Y444401D02*
X469724Y444317D01*
X468666Y443879D01*
X467758Y443183D01*
X467062Y442275D01*
X466624Y441217D01*
X466540Y440583D01*
X470358D01*
Y444401D01*
D02*
G37*
G36*
X471358D02*
Y440583D01*
X475176D01*
X475093Y441217D01*
X474655Y442275D01*
X473958Y443183D01*
X473050Y443879D01*
X471993Y444317D01*
X471358Y444401D01*
D02*
G37*
G36*
X475176Y421811D02*
X471358D01*
Y417993D01*
X471993Y418077D01*
X473050Y418514D01*
X473958Y419211D01*
X474655Y420119D01*
X475093Y421176D01*
X475176Y421811D01*
D02*
G37*
G36*
X470358D02*
X466540D01*
X466624Y421176D01*
X467062Y420119D01*
X467758Y419211D01*
X468666Y418514D01*
X469724Y418077D01*
X470358Y417993D01*
Y421811D01*
D02*
G37*
G36*
X440954Y452772D02*
X439978Y452644D01*
X439068Y452267D01*
X438287Y451667D01*
X437687Y450886D01*
X437310Y449976D01*
X437182Y449000D01*
X437310Y448024D01*
X437687Y447114D01*
X438287Y446333D01*
X439068Y445733D01*
X439978Y445356D01*
X440954Y445228D01*
X441931Y445356D01*
X442840Y445733D01*
X443622Y446333D01*
X444221Y447114D01*
X444598Y448024D01*
X444727Y449000D01*
X444598Y449976D01*
X444221Y450886D01*
X443622Y451667D01*
X442840Y452267D01*
X441931Y452644D01*
X440954Y452772D01*
D02*
G37*
G36*
X471358Y426629D02*
Y422811D01*
X475176D01*
X475093Y423446D01*
X474655Y424503D01*
X473958Y425411D01*
X473050Y426108D01*
X471993Y426546D01*
X471358Y426629D01*
D02*
G37*
G36*
X470358D02*
X469724Y426546D01*
X468666Y426108D01*
X467758Y425411D01*
X467062Y424503D01*
X466624Y423446D01*
X466540Y422811D01*
X470358D01*
Y426629D01*
D02*
G37*
G36*
X471358Y403401D02*
Y399583D01*
X475176D01*
X475093Y400217D01*
X474655Y401275D01*
X473958Y402183D01*
X473050Y402879D01*
X471993Y403317D01*
X471358Y403401D01*
D02*
G37*
G36*
X432905Y354000D02*
X430634D01*
Y350744D01*
X432905D01*
Y354000D01*
D02*
G37*
G36*
X429634Y358256D02*
X427362D01*
Y355000D01*
X429634D01*
Y358256D01*
D02*
G37*
G36*
X432905Y367256D02*
X430634D01*
Y364000D01*
X432905D01*
Y367256D01*
D02*
G37*
G36*
X429634Y354000D02*
X427362D01*
Y350744D01*
X429634D01*
Y354000D01*
D02*
G37*
G36*
X432905Y363000D02*
X430634D01*
Y359744D01*
X432905D01*
Y363000D01*
D02*
G37*
G36*
X429634D02*
X427362D01*
Y359744D01*
X429634D01*
Y363000D01*
D02*
G37*
G36*
X432905Y358256D02*
X430634D01*
Y355000D01*
X432905D01*
Y358256D01*
D02*
G37*
G36*
X429634Y367256D02*
X427362D01*
Y364000D01*
X429634D01*
Y367256D01*
D02*
G37*
G36*
X423000Y371000D02*
X420036D01*
X420090Y370586D01*
X420443Y369735D01*
X421004Y369004D01*
X421735Y368443D01*
X422586Y368090D01*
X423000Y368036D01*
Y371000D01*
D02*
G37*
G36*
X475176Y398583D02*
X471358D01*
Y394765D01*
X471993Y394848D01*
X473050Y395286D01*
X473958Y395983D01*
X474655Y396891D01*
X475093Y397948D01*
X475176Y398583D01*
D02*
G37*
G36*
X470358D02*
X466540D01*
X466624Y397948D01*
X467062Y396891D01*
X467758Y395983D01*
X468666Y395286D01*
X469724Y394848D01*
X470358Y394765D01*
Y398583D01*
D02*
G37*
G36*
Y403401D02*
X469724Y403317D01*
X468666Y402879D01*
X467758Y402183D01*
X467062Y401275D01*
X466624Y400217D01*
X466540Y399583D01*
X470358D01*
Y403401D01*
D02*
G37*
G36*
X453142Y403252D02*
X452063Y403110D01*
X451057Y402694D01*
X450193Y402031D01*
X449531Y401167D01*
X449114Y400162D01*
X448972Y399083D01*
X449114Y398004D01*
X449531Y396998D01*
X450193Y396134D01*
X451057Y395472D01*
X452063Y395055D01*
X453142Y394913D01*
X454221Y395055D01*
X455227Y395472D01*
X456090Y396134D01*
X456753Y396998D01*
X457169Y398004D01*
X457311Y399083D01*
X457169Y400162D01*
X456753Y401167D01*
X456090Y402031D01*
X455227Y402694D01*
X454221Y403110D01*
X453142Y403252D01*
D02*
G37*
G36*
X423000Y374964D02*
X422586Y374910D01*
X421735Y374557D01*
X421004Y373996D01*
X420443Y373265D01*
X420090Y372414D01*
X420036Y372000D01*
X423000D01*
Y374964D01*
D02*
G37*
G36*
X426964Y371000D02*
X424000D01*
Y368036D01*
X424414Y368090D01*
X425265Y368443D01*
X425996Y369004D01*
X426557Y369735D01*
X426910Y370586D01*
X426964Y371000D01*
D02*
G37*
G36*
X430954Y482772D02*
X429978Y482644D01*
X429068Y482267D01*
X428287Y481668D01*
X427687Y480886D01*
X427310Y479976D01*
X427182Y479000D01*
X427310Y478024D01*
X427687Y477114D01*
X428287Y476333D01*
X429068Y475733D01*
X429978Y475356D01*
X430954Y475228D01*
X431931Y475356D01*
X432840Y475733D01*
X433622Y476333D01*
X434221Y477114D01*
X434598Y478024D01*
X434727Y479000D01*
X434598Y479976D01*
X434221Y480886D01*
X433622Y481668D01*
X432840Y482267D01*
X431931Y482644D01*
X430954Y482772D01*
D02*
G37*
G36*
X424000Y374964D02*
Y372000D01*
X426964D01*
X426910Y372414D01*
X426557Y373265D01*
X425996Y373996D01*
X425265Y374557D01*
X424414Y374910D01*
X424000Y374964D01*
D02*
G37*
%LPD*%
D10*
X270860Y332432D02*
G03*
X281516Y343421I-90J10749D01*
G01*
X288025Y353894D02*
G03*
X281516Y347476I0J-6509D01*
G01*
X379134Y374524D02*
Y386366D01*
X372000Y393500D02*
X379134Y386366D01*
X281516Y343421D02*
Y347384D01*
X367000Y319500D02*
X380343D01*
X421866Y346420D02*
Y354500D01*
X205000Y332432D02*
X270860D01*
X288225Y354000D02*
X298866D01*
X288118Y353893D02*
X288225Y354000D01*
X351000Y397500D02*
Y420500D01*
X441134Y335000D02*
X449000Y327134D01*
X439268Y318866D02*
X449000D01*
X429866Y319134D02*
X439000D01*
X449000Y318866D02*
X449265Y318601D01*
X437500Y335000D02*
X441134D01*
X449265Y318601D02*
X458633Y327968D01*
X350606Y398894D02*
X364000Y385500D01*
X316500Y512000D02*
X318000D01*
X345500Y492184D02*
Y514500D01*
Y492184D02*
X345684Y492000D01*
D11*
X288118Y353893D02*
G03*
X288025Y353894I-92J-6509D01*
G01*
X281516Y343421D02*
X281659Y343279D01*
X380524Y319634D02*
X392000D01*
D12*
X400500Y527866D02*
D03*
Y536134D02*
D03*
X383500Y448134D02*
D03*
Y439866D02*
D03*
X361500Y338134D02*
D03*
Y329866D02*
D03*
X439000Y310866D02*
D03*
Y319134D02*
D03*
X449000Y318866D02*
D03*
Y327134D02*
D03*
X392000Y319634D02*
D03*
Y311366D02*
D03*
X415000Y311390D02*
D03*
Y319657D02*
D03*
X380500Y311390D02*
D03*
Y319657D02*
D03*
X363000Y376996D02*
D03*
Y368728D02*
D03*
X396500Y384657D02*
D03*
Y376390D02*
D03*
X363000Y362634D02*
D03*
Y354366D02*
D03*
X360756Y442004D02*
D03*
Y450272D02*
D03*
X371500Y442366D02*
D03*
Y450634D02*
D03*
X314000Y362134D02*
D03*
Y353866D02*
D03*
X330000Y338366D02*
D03*
Y346634D02*
D03*
X383500Y454366D02*
D03*
Y462634D02*
D03*
X303500Y508000D02*
D03*
Y499732D02*
D03*
X433000Y407634D02*
D03*
Y399366D02*
D03*
D13*
X351134Y408500D02*
D03*
X342866D02*
D03*
X354134Y338500D02*
D03*
X345866D02*
D03*
X354134Y354500D02*
D03*
X345866D02*
D03*
X430134Y363500D02*
D03*
X421866D02*
D03*
X430134Y354500D02*
D03*
X421866D02*
D03*
X337366Y346500D02*
D03*
X345634D02*
D03*
X314366D02*
D03*
X322634D02*
D03*
X307134Y354000D02*
D03*
X298866D02*
D03*
X389366Y397024D02*
D03*
X397634D02*
D03*
X370866Y374524D02*
D03*
X379134D02*
D03*
D14*
X350713Y399000D02*
D03*
X343705D02*
D03*
D15*
X402000Y551807D02*
D03*
Y565193D02*
D03*
X303000Y474114D02*
D03*
Y487500D02*
D03*
D16*
X464453Y510000D02*
D03*
X458547D02*
D03*
D17*
X403500Y311193D02*
D03*
Y319854D02*
D03*
X325500Y496831D02*
D03*
Y488169D02*
D03*
X390000Y544831D02*
D03*
Y536169D02*
D03*
D18*
X406209Y349634D02*
D03*
D19*
Y351602D02*
D03*
Y353571D02*
D03*
Y355539D02*
D03*
Y357508D02*
D03*
X390697D02*
D03*
Y355539D02*
D03*
Y353571D02*
D03*
Y351602D02*
D03*
Y349634D02*
D03*
D20*
X402291Y361346D02*
D03*
X400323D02*
D03*
X398354D02*
D03*
X396386D02*
D03*
X394417D02*
D03*
Y345795D02*
D03*
X396386D02*
D03*
X398354D02*
D03*
X400323D02*
D03*
X402291D02*
D03*
D21*
X398453Y353571D02*
D03*
D22*
X480126Y490433D02*
D03*
Y519567D02*
D03*
D23*
X485146Y493976D02*
D03*
Y516024D02*
D03*
D24*
X475500Y510118D02*
D03*
Y507559D02*
D03*
Y505000D02*
D03*
Y502441D02*
D03*
Y499882D02*
D03*
D25*
X474713Y493583D02*
D03*
Y516417D02*
D03*
D26*
X391500Y571378D02*
D03*
Y565472D02*
D03*
D27*
X411307Y401024D02*
D03*
Y406535D02*
D03*
X418000D02*
D03*
Y401024D02*
D03*
D28*
X343299Y472614D02*
D03*
X345268D02*
D03*
X347236D02*
D03*
X349205D02*
D03*
X351173D02*
D03*
X353142D02*
D03*
X355110D02*
D03*
X357079D02*
D03*
X359047D02*
D03*
X361016D02*
D03*
X362984D02*
D03*
X364953D02*
D03*
X366921D02*
D03*
X368890D02*
D03*
X370858D02*
D03*
X372827D02*
D03*
X374795D02*
D03*
X376764D02*
D03*
X378732D02*
D03*
X380701D02*
D03*
Y524386D02*
D03*
X378732D02*
D03*
X376764D02*
D03*
X374795D02*
D03*
X372827D02*
D03*
X370858D02*
D03*
X368890D02*
D03*
X366921D02*
D03*
X364953D02*
D03*
X362984D02*
D03*
X361016D02*
D03*
X359047D02*
D03*
X357079D02*
D03*
X355110D02*
D03*
X353142D02*
D03*
X351173D02*
D03*
X349205D02*
D03*
X347236D02*
D03*
X345268D02*
D03*
X343299D02*
D03*
D29*
X387886Y479799D02*
D03*
Y481768D02*
D03*
Y483736D02*
D03*
Y485705D02*
D03*
Y487673D02*
D03*
Y489642D02*
D03*
Y491610D02*
D03*
Y493579D02*
D03*
Y495547D02*
D03*
Y497516D02*
D03*
Y499484D02*
D03*
Y501453D02*
D03*
Y503421D02*
D03*
Y505390D02*
D03*
Y507358D02*
D03*
Y509327D02*
D03*
Y511295D02*
D03*
Y513264D02*
D03*
Y515232D02*
D03*
Y517201D02*
D03*
X336114D02*
D03*
Y515232D02*
D03*
Y513264D02*
D03*
Y511295D02*
D03*
Y509327D02*
D03*
Y507358D02*
D03*
Y505390D02*
D03*
Y503421D02*
D03*
Y501453D02*
D03*
Y499484D02*
D03*
Y497516D02*
D03*
Y495547D02*
D03*
Y493579D02*
D03*
Y491610D02*
D03*
Y489642D02*
D03*
Y487673D02*
D03*
Y485705D02*
D03*
Y483736D02*
D03*
Y481768D02*
D03*
Y479799D02*
D03*
D30*
X300492Y591177D02*
D03*
X306392D02*
D03*
X312292D02*
D03*
X318192D02*
D03*
X324092D02*
D03*
X330020D02*
D03*
X335925D02*
D03*
X341831D02*
D03*
X347736D02*
D03*
X353642D02*
D03*
X359547D02*
D03*
X365453D02*
D03*
X371358D02*
D03*
Y537823D02*
D03*
X365453D02*
D03*
X359547D02*
D03*
X353642D02*
D03*
X347736D02*
D03*
X341831D02*
D03*
X335925D02*
D03*
X330020D02*
D03*
X324092D02*
D03*
X318192D02*
D03*
X312292D02*
D03*
X306392D02*
D03*
X300492D02*
D03*
D31*
X379508Y585277D02*
D03*
Y579377D02*
D03*
Y573477D02*
D03*
Y567577D02*
D03*
Y561603D02*
D03*
Y555697D02*
D03*
Y549792D02*
D03*
Y543886D02*
D03*
D32*
X414142Y357508D02*
X418500Y361866D01*
X406209Y357508D02*
X414142D01*
X422658Y345628D02*
Y346842D01*
X416000Y377500D02*
X426000D01*
X402291Y363791D02*
X416000Y377500D01*
X402291Y361346D02*
Y363791D01*
X400323Y364823D02*
X419000Y383500D01*
X400323Y361346D02*
Y364823D01*
X419000Y383500D02*
X425500D01*
X398354Y365854D02*
X431866Y399366D01*
X398354Y361346D02*
Y365854D01*
X414000Y341000D02*
X418276Y336724D01*
X412075Y340152D02*
X417077Y335150D01*
X410500Y339500D02*
X416425Y333575D01*
X402291Y338709D02*
X409000Y332000D01*
X310500Y420500D02*
Y422000D01*
X320500Y432000D02*
Y433500D01*
X406500Y410500D02*
X412724Y416724D01*
X405500Y412500D02*
X411150Y418150D01*
X400500Y422000D02*
X408000Y429500D01*
X382000Y410500D02*
X406500D01*
X390000Y412500D02*
X405500D01*
X397500Y415000D02*
X405297D01*
X429134Y399366D02*
X431866D01*
X418000Y406535D02*
X421965D01*
X429134Y399366D01*
X402291Y338709D02*
Y345795D01*
X370500Y422000D02*
X382000Y410500D01*
X380500Y422000D02*
X390000Y412500D01*
X390500Y422000D02*
X397500Y415000D01*
X411000Y385500D02*
Y390000D01*
X383000Y332000D02*
X392000Y323000D01*
X383000Y332000D02*
Y346000D01*
X386634Y349634D01*
X390697D01*
X386102Y351602D02*
X390697D01*
X380500Y346000D02*
X386102Y351602D01*
X380500Y319657D02*
Y346000D01*
X407976Y401024D02*
X411307D01*
X403976Y397024D02*
X407976Y401024D01*
X397634Y397024D02*
X403976D01*
X411000Y390000D01*
X385500Y368704D02*
X392296D01*
X394417Y366583D01*
Y361346D02*
Y366583D01*
X379134Y361866D02*
Y374524D01*
Y361866D02*
X383492Y357508D01*
X390697D01*
X415000Y319657D02*
X415157Y319500D01*
X429500D01*
X410157Y324500D02*
X415000Y319657D01*
X408500Y324500D02*
X410157D01*
X398354Y334646D02*
X408500Y324500D01*
X398354Y334646D02*
Y345795D01*
X403500Y319854D02*
Y326000D01*
X396386Y333114D02*
X403500Y326000D01*
X396386Y333114D02*
Y345795D01*
X396500Y361461D02*
Y376390D01*
X388390D02*
X396500D01*
X386524Y374524D02*
X388390Y376390D01*
X379134Y374524D02*
X386524D01*
X392000Y319634D02*
Y323000D01*
X405297Y415000D02*
X409575Y419278D01*
X406209Y349634D02*
X408366D01*
X410500Y347500D01*
Y339500D02*
Y347500D01*
X414000Y341000D02*
Y349727D01*
X410491Y353236D02*
X414000Y349727D01*
X412075Y340152D02*
Y349425D01*
X410232Y351268D02*
X412075Y349425D01*
X406543Y353236D02*
X410491D01*
X406209Y353571D02*
X406543Y353236D01*
X406209Y351602D02*
X406543Y351268D01*
X410232D01*
X418500Y361866D02*
X420232D01*
X421866Y363500D01*
X364134Y355500D02*
X390657D01*
X390697Y355539D01*
X420827D02*
X421866Y354500D01*
X406209Y355539D02*
X420827D01*
X421866Y346420D02*
X422658Y345628D01*
X426000Y377500D02*
X437750Y389250D01*
X307134Y354000D02*
X313866D01*
X314000Y353866D01*
Y346866D02*
Y353866D01*
Y346866D02*
X314366Y346500D01*
X337732Y346634D02*
X337866Y346500D01*
X322634D02*
X329866D01*
X330000Y346634D01*
X337732D01*
X363000Y354366D02*
X364134Y355500D01*
X354268Y354366D02*
X363000D01*
X354134Y354500D02*
X354268Y354366D01*
X354500Y338134D02*
X361500D01*
X354134Y338500D02*
X354500Y338134D01*
X345866Y338500D02*
Y346268D01*
X345634Y346500D02*
X345866Y346268D01*
X345634Y346500D02*
Y354268D01*
X345866Y354500D01*
X439000Y319134D02*
X439268Y318866D01*
X429500Y319500D02*
X429866Y319134D01*
X363000Y362634D02*
Y368728D01*
Y362634D02*
X363000Y362634D01*
X361500Y338134D02*
X367134D01*
X382571Y353571D01*
X390697D01*
X360500Y432000D02*
Y433500D01*
X364953Y464564D02*
Y472614D01*
X359562Y459173D02*
X364953Y464564D01*
X366921Y464018D02*
Y472614D01*
Y464018D02*
X371766Y459173D01*
X359562Y451466D02*
Y459173D01*
Y451466D02*
X360756Y450272D01*
X371766Y450900D02*
Y459173D01*
X371500Y450634D02*
X371766Y450900D01*
X375500Y467959D02*
X376567Y469026D01*
X375500Y465000D02*
Y467959D01*
X356500Y465500D02*
X358988Y467988D01*
X361750D01*
X362787Y469026D01*
Y472417D01*
X362984Y472614D01*
X351173Y442827D02*
X360500Y433500D01*
X351173Y442827D02*
Y472614D01*
X349205Y432795D02*
Y472614D01*
Y432795D02*
X351000Y431000D01*
X347236Y437236D02*
Y472614D01*
X341000Y431000D02*
X347236Y437236D01*
X345268Y445268D02*
Y472614D01*
X331000Y431000D02*
X345268Y445268D01*
X343299Y453299D02*
Y472614D01*
X321000Y431000D02*
X343299Y453299D01*
X306866Y425634D02*
X310500Y422000D01*
X303716Y419783D02*
X308500Y415000D01*
X305291Y420436D02*
X309152Y416575D01*
X316575D01*
X321000Y421000D01*
X308500Y415000D02*
X325000D01*
X330500Y420500D01*
Y422000D01*
X380701Y464933D02*
Y472614D01*
Y464933D02*
X383000Y462634D01*
X303716Y419783D02*
Y457217D01*
X332205Y485705D01*
X336114D01*
X305291Y420436D02*
Y456564D01*
X332463Y483736D01*
X336114D01*
X306866Y425634D02*
Y455912D01*
X332722Y481768D01*
X336114D01*
X332980Y479799D02*
X336114D01*
X335917Y487870D02*
X336114Y487673D01*
X320331Y502000D02*
X325500Y496831D01*
X316500Y502000D02*
X320331D01*
X311000D02*
X316500D01*
X308732Y499732D02*
X311000Y502000D01*
X303500Y499732D02*
X308732D01*
X303000Y499233D02*
X303500Y499732D01*
X303000Y487500D02*
Y499233D01*
X332484Y497516D02*
X336114D01*
X318000Y512000D02*
X332484Y497516D01*
X320331Y488169D02*
X325500D01*
X316500Y492000D02*
X320331Y488169D01*
X387886Y481768D02*
X388083Y481571D01*
X387886Y483736D02*
X388083Y483539D01*
X387886Y499484D02*
X388083Y499287D01*
X430954Y439000D02*
Y441046D01*
X420075Y459879D02*
X430954Y449000D01*
X421650Y468305D02*
X430954Y459000D01*
X414500Y435454D02*
X430954Y419000D01*
X416500Y443454D02*
X430954Y429000D01*
X418500Y453500D02*
X430954Y441046D01*
X400500Y432000D02*
X406000Y437500D01*
X388083Y481571D02*
X396929D01*
X408000Y470500D01*
Y429500D02*
Y470500D01*
X388083Y483539D02*
X397461D01*
X409575Y471425D01*
Y419278D02*
Y471425D01*
X387886Y489642D02*
X393858D01*
X411150Y472350D01*
Y418150D02*
Y472350D01*
X387886Y493579D02*
X392148D01*
X412724Y473003D01*
Y416724D02*
Y473003D01*
X387886Y495547D02*
X392407D01*
X414500Y473454D01*
Y435454D02*
Y473454D01*
X387886Y497516D02*
X392666D01*
X416500Y473681D01*
Y443454D02*
Y473681D01*
X388083Y499287D02*
X393121D01*
X418500Y473908D01*
Y453500D02*
Y473908D01*
X387886Y501453D02*
X393183D01*
X420075Y474561D01*
Y459879D02*
Y474561D01*
X421650Y468305D02*
Y475350D01*
X387886Y503421D02*
X393579D01*
X421650Y475350D01*
X308500Y433500D02*
X311000Y431000D01*
X308500Y433500D02*
Y455319D01*
X332980Y479799D01*
X325500Y496831D02*
X330500Y491831D01*
X332526Y487870D02*
X335917D01*
X330500Y489896D02*
Y491831D01*
Y489896D02*
X332526Y487870D01*
X376205Y485705D02*
X387886D01*
X371327Y487673D02*
X387886D01*
X372500Y482000D02*
X376205Y485705D01*
X372610Y491610D02*
X387886D01*
X362787Y475697D02*
Y476202D01*
Y475697D02*
X362984Y475500D01*
Y472614D02*
Y475500D01*
X359990Y479000D02*
X362787Y476202D01*
X352297Y479000D02*
X359990D01*
X364500Y481000D02*
X364654D01*
X371327Y487673D01*
X355500Y485000D02*
X366000D01*
X372610Y491610D01*
X387886Y515232D02*
X398768D01*
X400000Y514000D01*
X387886Y507358D02*
X394620D01*
X387886Y505390D02*
X394361D01*
X387886Y509327D02*
X394879D01*
X387886Y511295D02*
X395137D01*
X387886Y513264D02*
X395396D01*
X387886Y517201D02*
X392262D01*
X362984Y524386D02*
X363000Y524401D01*
X349205Y518295D02*
Y524386D01*
Y518295D02*
X351500Y516000D01*
X355110Y518390D02*
Y524386D01*
X437750Y389250D02*
Y412204D01*
X430954Y419000D02*
X437750Y412204D01*
X409000Y332000D02*
X426454D01*
X416425Y333575D02*
X425802D01*
X417077Y335150D02*
X425150D01*
X418276Y336724D02*
X424224D01*
X435479Y418629D02*
Y424475D01*
X430954Y429000D02*
X435479Y424475D01*
X424224Y336724D02*
X440000Y352500D01*
Y414108D01*
X435479Y418629D02*
X440000Y414108D01*
X416025Y496365D02*
X418390Y494000D01*
X435954D01*
X440954Y499000D01*
X372819Y524378D02*
X372827Y524386D01*
X356575Y496629D02*
Y501075D01*
X358819Y503319D01*
X362025D01*
X362500Y498500D02*
Y501567D01*
X370661Y524189D02*
X370858Y524386D01*
X374599Y524189D02*
X374795Y524386D01*
X360500Y507000D02*
Y511567D01*
X355110Y518390D02*
X357500Y516000D01*
X362984Y519166D02*
Y524386D01*
X361181Y517362D02*
X362984Y519166D01*
X362500Y501567D02*
X365905Y504973D01*
Y515406D01*
X361181Y514475D02*
Y517362D01*
X360500Y511567D02*
X362756Y513823D01*
Y516710D01*
X362025Y503319D02*
X364331Y505625D01*
Y516058D01*
X362756Y516710D02*
X366921Y520876D01*
Y524386D01*
X364331Y516058D02*
X368890Y520617D01*
Y524386D01*
X365905Y515406D02*
X370661Y520161D01*
Y524189D01*
X372819Y519819D02*
Y524378D01*
X374599Y519098D02*
Y524189D01*
X371000Y507178D02*
X374735Y503443D01*
X371000Y507178D02*
Y515500D01*
X374599Y519098D01*
X369425Y500324D02*
X369431Y500319D01*
X369425Y500324D02*
Y516425D01*
X372819Y519819D01*
X378732Y516342D02*
Y524386D01*
Y516342D02*
X379843Y515232D01*
X376764Y519037D02*
Y524386D01*
X374500Y516773D02*
X376764Y519037D01*
X374500Y512500D02*
Y516773D01*
Y512500D02*
X378500Y508500D01*
X392262Y517201D02*
X394500Y519439D01*
Y523297D01*
X430751Y469000D02*
X430954D01*
X412978Y489000D02*
X430954D01*
X411521Y492684D02*
X414500D01*
X410067Y496365D02*
X416025D01*
X394361Y505390D02*
X430751Y469000D01*
X394620Y507358D02*
X412978Y489000D01*
X394879Y509327D02*
X411521Y492684D01*
X395137Y511295D02*
X410067Y496365D01*
X405660Y503000D02*
X409500D01*
X395396Y513264D02*
X405660Y503000D01*
X440954Y479000D02*
X467500D01*
X440954Y489000D02*
X459727D01*
X440954Y509000D02*
X444181D01*
X440954Y499000D02*
X451954D01*
X406000Y437500D02*
Y469500D01*
X387886Y479799D02*
X395701D01*
X406000Y469500D01*
X450000Y348000D02*
Y353319D01*
X435265Y463311D02*
X453142D01*
X430954Y459000D02*
X435265Y463311D01*
X430954Y449000D02*
X436000Y443954D01*
Y437500D02*
Y443954D01*
Y437500D02*
X439500Y434000D01*
X446500D01*
X453142Y427358D01*
Y422311D02*
Y427358D01*
X345684Y485613D02*
Y492000D01*
Y485613D02*
X352297Y479000D01*
X450000Y353319D02*
X482500Y385819D01*
Y470681D01*
X444181Y509000D02*
X482500Y470681D01*
X480925Y386471D02*
Y470029D01*
X451954Y499000D02*
X480925Y470029D01*
X425802Y333575D02*
X479350Y387123D01*
Y469377D01*
X459727Y489000D02*
X479350Y469377D01*
X425150Y335150D02*
X477776Y387776D01*
Y468724D01*
X467500Y479000D02*
X477776Y468724D01*
X426454Y332000D02*
X480925Y386471D01*
X380701Y524386D02*
Y529404D01*
X382797Y531500D01*
X386000D01*
X387527Y529973D01*
Y524649D02*
Y529973D01*
X345500Y514500D02*
X349500Y510500D01*
X357206D01*
X361181Y514475D01*
X362984Y524386D02*
Y531984D01*
X359547Y587392D02*
Y591177D01*
X353297Y581142D02*
X359547Y587392D01*
X365453Y551547D02*
X365500Y551500D01*
X365453Y551547D02*
Y591177D01*
X391500Y571378D02*
Y578500D01*
X389500Y551500D02*
X400307D01*
X400500Y551693D01*
X390000Y544831D02*
Y551000D01*
X389500Y551500D02*
X390000Y551000D01*
X300492Y534008D02*
Y537823D01*
Y534008D02*
X307346Y527154D01*
X320051D01*
X329846D02*
X330051D01*
X325000Y532000D02*
X329846Y527154D01*
X306392Y534108D02*
Y537823D01*
Y534108D02*
X308500Y532000D01*
X325000D01*
X464921Y552921D02*
X486500D01*
X464500Y552500D02*
X464921Y552921D01*
X375500Y465000D02*
X377500Y463000D01*
Y450169D02*
Y463000D01*
Y450169D02*
X380035Y447634D01*
X383500D01*
X390000Y536169D02*
X390035Y536134D01*
X378500Y531500D02*
X383169Y536169D01*
X368500Y531500D02*
X378500D01*
X365453Y534453D02*
Y537823D01*
X362984Y531984D02*
X365453Y534453D01*
Y534547D02*
X368500Y531500D01*
X390035Y536134D02*
X400500D01*
X383169Y536169D02*
X390000D01*
X458547Y503547D02*
Y510000D01*
X458500Y503500D02*
X458547Y503547D01*
D33*
X464571Y510118D02*
X475500D01*
X464453Y510000D02*
X464571Y510118D01*
X464453Y510000D02*
Y521547D01*
X462000Y524000D02*
X464453Y521547D01*
D34*
X311000Y421000D02*
D03*
Y431000D02*
D03*
X321000Y421000D02*
D03*
Y431000D02*
D03*
X331000Y421000D02*
D03*
Y431000D02*
D03*
X341000Y421000D02*
D03*
Y431000D02*
D03*
X351000Y421000D02*
D03*
Y431000D02*
D03*
X361000Y421000D02*
D03*
Y431000D02*
D03*
X371000Y421000D02*
D03*
Y431000D02*
D03*
X381000Y421000D02*
D03*
Y431000D02*
D03*
X391000Y421000D02*
D03*
Y431000D02*
D03*
X401000Y421000D02*
D03*
X330051Y527154D02*
D03*
X486500Y542921D02*
D03*
Y552921D02*
D03*
X464500Y542500D02*
D03*
Y552500D02*
D03*
Y562500D02*
D03*
X440954Y419000D02*
D03*
X430954D02*
D03*
X440954Y429000D02*
D03*
X430954D02*
D03*
X440954Y439000D02*
D03*
X430954D02*
D03*
X440954Y449000D02*
D03*
X430954D02*
D03*
X440954Y459000D02*
D03*
X430954D02*
D03*
X440954Y469000D02*
D03*
X430954D02*
D03*
X440954Y479000D02*
D03*
X430954D02*
D03*
X440954Y489000D02*
D03*
X430954D02*
D03*
X440954Y499000D02*
D03*
X430954D02*
D03*
X440954Y509000D02*
D03*
X316500Y502000D02*
D03*
Y492000D02*
D03*
Y482000D02*
D03*
X420114Y569924D02*
D03*
Y559925D02*
D03*
D35*
X401000Y431000D02*
D03*
X320051Y527154D02*
D03*
D36*
X480000Y319000D02*
D03*
X252500D02*
D03*
Y583000D02*
D03*
D37*
X479500D02*
D03*
D38*
X474713Y495472D02*
D03*
Y514567D02*
D03*
D39*
X486642Y493976D02*
D03*
Y516063D02*
D03*
D40*
X371766Y459173D02*
D03*
X359562D02*
D03*
D41*
X205000Y332500D02*
D03*
Y482500D02*
D03*
D42*
X470858Y463311D02*
D03*
X453142Y440083D02*
D03*
Y463311D02*
D03*
X470858Y440083D02*
D03*
Y422311D02*
D03*
X453142Y399083D02*
D03*
Y422311D02*
D03*
X470858Y399083D02*
D03*
D43*
X430954Y509000D02*
D03*
X316500Y512000D02*
D03*
D44*
X399000Y449500D02*
D03*
Y441500D02*
D03*
X465500Y497000D02*
D03*
X476000Y546500D02*
D03*
X478000Y564500D02*
D03*
X409500Y524500D02*
D03*
X418500D02*
D03*
X397500Y586000D02*
D03*
X405500Y574500D02*
D03*
X405000Y583500D02*
D03*
X394500Y593000D02*
D03*
X405000D02*
D03*
X384000D02*
D03*
X484000Y480500D02*
D03*
X462500Y357000D02*
D03*
X468000Y387500D02*
D03*
X458500Y378000D02*
D03*
X449000Y368500D02*
D03*
Y378000D02*
D03*
Y387500D02*
D03*
X458500D02*
D03*
X423000Y371000D02*
D03*
X462500Y431500D02*
D03*
X461500Y472500D02*
D03*
X328000Y509000D02*
D03*
X316500Y447500D02*
D03*
X324500Y454500D02*
D03*
X375000Y405000D02*
D03*
X362000D02*
D03*
X462500Y344500D02*
D03*
X474000D02*
D03*
Y357500D02*
D03*
X484000Y344000D02*
D03*
Y357500D02*
D03*
Y370000D02*
D03*
X341500Y386000D02*
D03*
Y375500D02*
D03*
X324500Y376000D02*
D03*
X307000D02*
D03*
Y386500D02*
D03*
X324500D02*
D03*
X324000Y400000D02*
D03*
X307500D02*
D03*
X333000Y330500D02*
D03*
X323000D02*
D03*
X351000Y322000D02*
D03*
X341000D02*
D03*
X333000D02*
D03*
X323000D02*
D03*
X313500D02*
D03*
X303000Y322500D02*
D03*
X359500Y312500D02*
D03*
X351000Y313000D02*
D03*
X341000D02*
D03*
X333000D02*
D03*
X323000D02*
D03*
X313500D02*
D03*
X303000D02*
D03*
X313500Y330500D02*
D03*
X303000D02*
D03*
X372000Y393500D02*
D03*
X422658Y345628D02*
D03*
X384500Y368704D02*
D03*
X425500Y383500D02*
D03*
X400000Y514000D02*
D03*
X411000Y385500D02*
D03*
X367000Y319500D02*
D03*
X429500D02*
D03*
X364000Y385500D02*
D03*
X437500Y335000D02*
D03*
X458500Y330000D02*
D03*
X356500Y465500D02*
D03*
X375500Y465000D02*
D03*
X345684Y492000D02*
D03*
X372500Y482000D02*
D03*
X355500Y485000D02*
D03*
X364500Y481000D02*
D03*
X414500Y492684D02*
D03*
X345500Y514500D02*
D03*
X387527Y524649D02*
D03*
X351500Y516000D02*
D03*
X450000Y348000D02*
D03*
X360500Y507000D02*
D03*
X374735Y503443D02*
D03*
X378500Y508500D02*
D03*
X356575Y496629D02*
D03*
X369431Y500319D02*
D03*
X362500Y498500D02*
D03*
X379843Y515232D02*
D03*
X357500Y516000D02*
D03*
X394500Y523297D02*
D03*
X409500Y503000D02*
D03*
X353297Y581142D02*
D03*
X391500Y578500D02*
D03*
X365500Y551500D02*
D03*
X389500D02*
D03*
X458500Y503500D02*
D03*
X462000Y524000D02*
D03*
X301500Y523000D02*
D03*
D45*
X398354Y353571D02*
D03*
X395500Y356524D02*
D03*
X401524D02*
D03*
X395500Y350500D02*
D03*
X401524D02*
D03*
M02*
