%FSLAX25Y25*%
%MOIN*%
G70*
G01*
G75*
G04 Layer_Color=255*
%ADD10C,0.01969*%
%ADD11C,0.01000*%
%ADD12R,0.05512X0.03543*%
%ADD13R,0.03543X0.05512*%
%ADD14R,0.04016X0.07008*%
%ADD15R,0.06693X0.03150*%
%ADD16R,0.02756X0.03543*%
%ADD17R,0.05512X0.03150*%
%ADD18O,0.03740X0.00906*%
%ADD19R,0.03740X0.00906*%
%ADD20R,0.00906X0.03740*%
%ADD21R,0.09843X0.09843*%
%ADD22R,0.02756X0.02165*%
%ADD23R,0.12795X0.05118*%
%ADD24R,0.07087X0.01772*%
%ADD25R,0.05709X0.07874*%
%ADD26R,0.03543X0.02756*%
%ADD27R,0.04724X0.04331*%
%ADD28O,0.01181X0.06890*%
%ADD29O,0.06890X0.01181*%
G04:AMPARAMS|DCode=30|XSize=60mil|YSize=40mil|CornerRadius=19.8mil|HoleSize=0mil|Usage=FLASHONLY|Rotation=270.000|XOffset=0mil|YOffset=0mil|HoleType=Round|Shape=RoundedRectangle|*
%AMROUNDEDRECTD30*
21,1,0.06000,0.00040,0,0,270.0*
21,1,0.02040,0.04000,0,0,270.0*
1,1,0.03960,-0.00020,-0.01020*
1,1,0.03960,-0.00020,0.01020*
1,1,0.03960,0.00020,0.01020*
1,1,0.03960,0.00020,-0.01020*
%
%ADD30ROUNDEDRECTD30*%
G04:AMPARAMS|DCode=31|XSize=60mil|YSize=40mil|CornerRadius=19.8mil|HoleSize=0mil|Usage=FLASHONLY|Rotation=180.000|XOffset=0mil|YOffset=0mil|HoleType=Round|Shape=RoundedRectangle|*
%AMROUNDEDRECTD31*
21,1,0.06000,0.00040,0,0,180.0*
21,1,0.02040,0.04000,0,0,180.0*
1,1,0.03960,-0.01020,0.00020*
1,1,0.03960,0.01020,0.00020*
1,1,0.03960,0.01020,-0.00020*
1,1,0.03960,-0.01020,-0.00020*
%
%ADD31ROUNDEDRECTD31*%
%ADD32C,0.00787*%
%ADD33C,0.01500*%
%ADD34C,0.05906*%
%ADD35R,0.05906X0.05906*%
%ADD36C,0.20000*%
%ADD37C,0.20031*%
%ADD38O,0.04724X0.03150*%
%ADD39O,0.05118X0.03150*%
%ADD40C,0.05118*%
%ADD41C,0.09843*%
%ADD42C,0.06693*%
%ADD43R,0.05906X0.05906*%
%ADD44C,0.05000*%
%ADD45C,0.01969*%
%ADD46C,0.04000*%
%ADD47C,0.07543*%
%ADD48C,0.15799*%
%ADD49O,0.08331X0.06756*%
%ADD50O,0.08724X0.06756*%
%ADD51C,0.06756*%
%ADD52C,0.10299*%
%ADD53C,0.08724*%
%ADD54R,0.02362X0.03740*%
%ADD55R,0.07008X0.04016*%
%ADD56R,0.03150X0.05512*%
%ADD57R,0.03740X0.02362*%
D12*
X448500Y542134D02*
D03*
Y533866D02*
D03*
D13*
X461634Y452000D02*
D03*
X453366D02*
D03*
X452866Y411000D02*
D03*
X461134D02*
D03*
D14*
X456496Y515500D02*
D03*
X463504D02*
D03*
D34*
X311000Y421000D02*
D03*
Y431000D02*
D03*
X321000Y421000D02*
D03*
Y431000D02*
D03*
X331000Y421000D02*
D03*
Y431000D02*
D03*
X341000Y421000D02*
D03*
Y431000D02*
D03*
X351000Y421000D02*
D03*
Y431000D02*
D03*
X361000Y421000D02*
D03*
Y431000D02*
D03*
X371000Y421000D02*
D03*
Y431000D02*
D03*
X381000Y421000D02*
D03*
Y431000D02*
D03*
X391000Y421000D02*
D03*
Y431000D02*
D03*
X401000Y421000D02*
D03*
X330051Y527154D02*
D03*
X486500Y542921D02*
D03*
Y552921D02*
D03*
X464500Y542500D02*
D03*
Y552500D02*
D03*
Y562500D02*
D03*
X440954Y419000D02*
D03*
X430954D02*
D03*
X440954Y429000D02*
D03*
X430954D02*
D03*
X440954Y439000D02*
D03*
X430954D02*
D03*
X440954Y449000D02*
D03*
X430954D02*
D03*
X440954Y459000D02*
D03*
X430954D02*
D03*
X440954Y469000D02*
D03*
X430954D02*
D03*
X440954Y479000D02*
D03*
X430954D02*
D03*
X440954Y489000D02*
D03*
X430954D02*
D03*
X440954Y499000D02*
D03*
X430954D02*
D03*
X440954Y509000D02*
D03*
X316500Y502000D02*
D03*
Y492000D02*
D03*
Y482000D02*
D03*
X420114Y569924D02*
D03*
Y559925D02*
D03*
D35*
X401000Y431000D02*
D03*
X320051Y527154D02*
D03*
D36*
X480000Y319000D02*
D03*
X252500D02*
D03*
Y583000D02*
D03*
D37*
X479500D02*
D03*
D38*
X474713Y495472D02*
D03*
Y514567D02*
D03*
D39*
X486642Y493976D02*
D03*
Y516063D02*
D03*
D40*
X371766Y459173D02*
D03*
X359562D02*
D03*
D41*
X205000Y332500D02*
D03*
Y482500D02*
D03*
D42*
X470858Y463311D02*
D03*
X453142Y440083D02*
D03*
Y463311D02*
D03*
X470858Y440083D02*
D03*
Y422311D02*
D03*
X453142Y399083D02*
D03*
Y422311D02*
D03*
X470858Y399083D02*
D03*
D43*
X430954Y509000D02*
D03*
X316500Y512000D02*
D03*
D54*
X427760Y534677D02*
D03*
X435240D02*
D03*
Y544323D02*
D03*
X431500D02*
D03*
X427760D02*
D03*
D55*
X470500Y526496D02*
D03*
Y533504D02*
D03*
X435500Y560504D02*
D03*
Y553496D02*
D03*
X417500Y541496D02*
D03*
Y548504D02*
D03*
X421500Y589504D02*
D03*
Y582496D02*
D03*
X481000Y533504D02*
D03*
Y526496D02*
D03*
X456500Y588504D02*
D03*
Y581496D02*
D03*
X352500Y553996D02*
D03*
Y561004D02*
D03*
D56*
X361831Y572000D02*
D03*
X353169D02*
D03*
D57*
X438677Y582740D02*
D03*
Y575260D02*
D03*
X448323D02*
D03*
Y579000D02*
D03*
Y582740D02*
D03*
M02*
