%FSLAX25Y25*%
%MOIN*%
G70*
G01*
G75*
G04 Layer_Color=32768*
%ADD10C,0.01969*%
%ADD11C,0.01000*%
%ADD12R,0.05512X0.03543*%
%ADD13R,0.03543X0.05512*%
%ADD14R,0.04016X0.07008*%
%ADD15R,0.06693X0.03150*%
%ADD16R,0.02756X0.03543*%
%ADD17R,0.05512X0.03150*%
%ADD18O,0.03740X0.00906*%
%ADD19R,0.03740X0.00906*%
%ADD20R,0.00906X0.03740*%
%ADD21R,0.09843X0.09843*%
%ADD22R,0.02756X0.02165*%
%ADD23R,0.12795X0.05118*%
%ADD24R,0.07087X0.01772*%
%ADD25R,0.05709X0.07874*%
%ADD26R,0.03543X0.02756*%
%ADD27R,0.04724X0.04331*%
%ADD28O,0.01181X0.06890*%
%ADD29O,0.06890X0.01181*%
G04:AMPARAMS|DCode=30|XSize=60mil|YSize=40mil|CornerRadius=19.8mil|HoleSize=0mil|Usage=FLASHONLY|Rotation=270.000|XOffset=0mil|YOffset=0mil|HoleType=Round|Shape=RoundedRectangle|*
%AMROUNDEDRECTD30*
21,1,0.06000,0.00040,0,0,270.0*
21,1,0.02040,0.04000,0,0,270.0*
1,1,0.03960,-0.00020,-0.01020*
1,1,0.03960,-0.00020,0.01020*
1,1,0.03960,0.00020,0.01020*
1,1,0.03960,0.00020,-0.01020*
%
%ADD30ROUNDEDRECTD30*%
G04:AMPARAMS|DCode=31|XSize=60mil|YSize=40mil|CornerRadius=19.8mil|HoleSize=0mil|Usage=FLASHONLY|Rotation=180.000|XOffset=0mil|YOffset=0mil|HoleType=Round|Shape=RoundedRectangle|*
%AMROUNDEDRECTD31*
21,1,0.06000,0.00040,0,0,180.0*
21,1,0.02040,0.04000,0,0,180.0*
1,1,0.03960,-0.01020,0.00020*
1,1,0.03960,0.01020,0.00020*
1,1,0.03960,0.01020,-0.00020*
1,1,0.03960,-0.01020,-0.00020*
%
%ADD31ROUNDEDRECTD31*%
%ADD32C,0.00787*%
%ADD33C,0.01500*%
%ADD34C,0.05906*%
%ADD35R,0.05906X0.05906*%
%ADD36C,0.20000*%
%ADD37C,0.20031*%
%ADD38O,0.04724X0.03150*%
%ADD39O,0.05118X0.03150*%
%ADD40C,0.05118*%
%ADD41C,0.09843*%
%ADD42C,0.06693*%
%ADD43R,0.05906X0.05906*%
%ADD44C,0.05000*%
%ADD45C,0.01969*%
%ADD46C,0.04000*%
%ADD47C,0.07543*%
%ADD48C,0.15799*%
%ADD49O,0.08331X0.06756*%
%ADD50O,0.08724X0.06756*%
%ADD51C,0.06756*%
%ADD52C,0.10299*%
%ADD53C,0.08724*%
%ADD54R,0.02362X0.03740*%
%ADD55R,0.07008X0.04016*%
%ADD56R,0.03150X0.05512*%
%ADD57R,0.03740X0.02362*%
%ADD58C,0.00984*%
%ADD59C,0.02362*%
%ADD60C,0.02000*%
%ADD61C,0.00197*%
%ADD62C,0.00394*%
%ADD63C,0.00591*%
%ADD64C,0.01600*%
%ADD65C,0.00500*%
%ADD66R,0.06312X0.04343*%
%ADD67R,0.04343X0.06312*%
%ADD68R,0.04816X0.07808*%
%ADD69R,0.07493X0.03950*%
%ADD70R,0.03556X0.04343*%
%ADD71R,0.06312X0.03950*%
%ADD72O,0.04540X0.01706*%
%ADD73R,0.04540X0.01706*%
%ADD74R,0.01706X0.04540*%
%ADD75R,0.10642X0.10642*%
%ADD76R,0.03556X0.02965*%
%ADD77R,0.13595X0.05918*%
%ADD78R,0.07887X0.02572*%
%ADD79R,0.06509X0.08674*%
%ADD80R,0.04343X0.03556*%
%ADD81R,0.05524X0.05131*%
%ADD82O,0.01981X0.07690*%
%ADD83O,0.07690X0.01981*%
G04:AMPARAMS|DCode=84|XSize=68mil|YSize=48mil|CornerRadius=23.8mil|HoleSize=0mil|Usage=FLASHONLY|Rotation=270.000|XOffset=0mil|YOffset=0mil|HoleType=Round|Shape=RoundedRectangle|*
%AMROUNDEDRECTD84*
21,1,0.06800,0.00040,0,0,270.0*
21,1,0.02040,0.04800,0,0,270.0*
1,1,0.04760,-0.00020,-0.01020*
1,1,0.04760,-0.00020,0.01020*
1,1,0.04760,0.00020,0.01020*
1,1,0.04760,0.00020,-0.01020*
%
%ADD84ROUNDEDRECTD84*%
G04:AMPARAMS|DCode=85|XSize=68mil|YSize=48mil|CornerRadius=23.8mil|HoleSize=0mil|Usage=FLASHONLY|Rotation=180.000|XOffset=0mil|YOffset=0mil|HoleType=Round|Shape=RoundedRectangle|*
%AMROUNDEDRECTD85*
21,1,0.06800,0.00040,0,0,180.0*
21,1,0.02040,0.04800,0,0,180.0*
1,1,0.04760,-0.01020,0.00020*
1,1,0.04760,0.01020,0.00020*
1,1,0.04760,0.01020,-0.00020*
1,1,0.04760,-0.01020,-0.00020*
%
%ADD85ROUNDEDRECTD85*%
%ADD86C,0.06706*%
%ADD87R,0.06706X0.06706*%
%ADD88C,0.20800*%
%ADD89C,0.20832*%
%ADD90O,0.05524X0.03950*%
%ADD91O,0.05918X0.03950*%
%ADD92C,0.05918*%
%ADD93C,0.10642*%
%ADD94C,0.07493*%
%ADD95R,0.06706X0.06706*%
%ADD96C,0.05800*%
%ADD97C,0.02769*%
%ADD98R,0.03162X0.04540*%
%ADD99R,0.07808X0.04816*%
%ADD100R,0.03950X0.06312*%
%ADD101R,0.04540X0.03162*%
%ADD102C,0.00600*%
D61*
X396760Y525110D02*
X404240D01*
X396760Y538890D02*
X404240D01*
X396760Y525110D02*
Y538890D01*
X404240Y525110D02*
Y538890D01*
X379760Y450890D02*
X387240D01*
X379760Y437110D02*
X387240D01*
Y450890D01*
X379760Y437110D02*
Y450890D01*
X357760Y340890D02*
X365240D01*
X357760Y327110D02*
X365240D01*
Y340890D01*
X357760Y327110D02*
Y340890D01*
X353890Y404760D02*
Y412240D01*
X340110Y404760D02*
Y412240D01*
Y404760D02*
X353890D01*
X340110Y412240D02*
X353890D01*
X435260Y308110D02*
X442740D01*
X435260Y321890D02*
X442740D01*
X435260Y308110D02*
Y321890D01*
X442740Y308110D02*
Y321890D01*
X445260Y316110D02*
X452740D01*
X445260Y329890D02*
X452740D01*
X445260Y316110D02*
Y329890D01*
X452740Y316110D02*
Y329890D01*
X388260Y322390D02*
X395740D01*
X388260Y308610D02*
X395740D01*
Y322390D01*
X388260Y308610D02*
Y322390D01*
X411260Y308634D02*
X418740D01*
X411260Y322413D02*
X418740D01*
X411260Y308634D02*
Y322413D01*
X418740Y308634D02*
Y322413D01*
X376760Y308634D02*
X384240D01*
X376760Y322413D02*
X384240D01*
X376760Y308634D02*
Y322413D01*
X384240Y308634D02*
Y322413D01*
X356890Y334760D02*
Y342240D01*
X343110Y334760D02*
Y342240D01*
Y334760D02*
X356890D01*
X343110Y342240D02*
X356890D01*
Y350760D02*
Y358240D01*
X343110Y350760D02*
Y358240D01*
Y350760D02*
X356890D01*
X343110Y358240D02*
X356890D01*
X359260Y379752D02*
X366740D01*
X359260Y365972D02*
X366740D01*
Y379752D01*
X359260Y365972D02*
Y379752D01*
X432890Y359760D02*
Y367240D01*
X419110Y359760D02*
Y367240D01*
Y359760D02*
X432890D01*
X419110Y367240D02*
X432890D01*
X392760Y387413D02*
X400240D01*
X392760Y373634D02*
X400240D01*
Y387413D01*
X392760Y373634D02*
Y387413D01*
X359260Y365390D02*
X366740D01*
X359260Y351610D02*
X366740D01*
Y365390D01*
X359260Y351610D02*
Y365390D01*
X438587Y531823D02*
Y547177D01*
X424413Y531823D02*
Y547177D01*
Y531823D02*
X438587D01*
X424413Y547177D02*
X438587D01*
X357016Y439248D02*
X364496D01*
X357016Y453028D02*
X364496D01*
X357016Y439248D02*
Y453028D01*
X364496Y439248D02*
Y453028D01*
X367760Y439610D02*
X375240D01*
X367760Y453390D02*
X375240D01*
X367760Y439610D02*
Y453390D01*
X375240Y439610D02*
Y453390D01*
X432890Y350760D02*
Y358240D01*
X419110Y350760D02*
Y358240D01*
Y350760D02*
X432890D01*
X419110Y358240D02*
X432890D01*
X310260Y364890D02*
X317740D01*
X310260Y351110D02*
X317740D01*
Y364890D01*
X310260Y351110D02*
Y364890D01*
X326260Y335610D02*
X333740D01*
X326260Y349390D02*
X333740D01*
X326260Y335610D02*
Y349390D01*
X333740Y335610D02*
Y349390D01*
X334610Y342760D02*
Y350240D01*
X348390Y342760D02*
Y350240D01*
X334610D02*
X348390D01*
X334610Y342760D02*
X348390D01*
X311610D02*
Y350240D01*
X325390Y342760D02*
Y350240D01*
X311610D02*
X325390D01*
X311610Y342760D02*
X325390D01*
X309890Y350260D02*
Y357740D01*
X296110Y350260D02*
Y357740D01*
Y350260D02*
X309890D01*
X296110Y357740D02*
X309890D01*
X386610Y393283D02*
Y400764D01*
X400390Y393283D02*
Y400764D01*
X386610D02*
X400390D01*
X386610Y393283D02*
X400390D01*
X368110Y370783D02*
Y378264D01*
X381890Y370783D02*
Y378264D01*
X368110D02*
X381890D01*
X368110Y370783D02*
X381890D01*
X444760Y544890D02*
X452240D01*
X444760Y531110D02*
X452240D01*
X444760D02*
Y544890D01*
X452240Y531110D02*
Y544890D01*
X379760Y451610D02*
X387240D01*
X379760Y465390D02*
X387240D01*
X379760Y451610D02*
Y465390D01*
X387240Y451610D02*
Y465390D01*
X331685Y468185D02*
X392315D01*
X331685Y528815D02*
X392315D01*
X331685Y468185D02*
Y528815D01*
X392315Y468185D02*
Y528815D01*
X299760Y510756D02*
X307240D01*
X299760Y496976D02*
X307240D01*
Y510756D01*
X299760Y496976D02*
Y510756D01*
X429260Y410390D02*
X436740D01*
X429260Y396610D02*
X436740D01*
Y410390D01*
X429260Y396610D02*
Y410390D01*
X464390Y448260D02*
Y455740D01*
X450610Y448260D02*
Y455740D01*
X464390D01*
X450610Y448260D02*
X464390D01*
X450110Y407260D02*
X463890D01*
X450110Y414740D02*
X463890D01*
X450110Y407260D02*
Y414740D01*
X463890Y407260D02*
Y414740D01*
X435823Y571913D02*
X451177D01*
X435823Y586087D02*
X451177D01*
X435823Y571913D02*
Y586087D01*
X451177Y571913D02*
Y586087D01*
D62*
X400500Y530031D02*
Y533968D01*
X398531Y532000D02*
X402468D01*
X383500Y442031D02*
Y445968D01*
X381532Y444000D02*
X385469D01*
X361500Y332032D02*
Y335969D01*
X359531Y334000D02*
X363468D01*
X345031Y408500D02*
X348969D01*
X347000Y406531D02*
Y410468D01*
X466224Y507835D02*
Y512165D01*
X456776Y507835D02*
Y512165D01*
Y507835D02*
X466224D01*
X456776Y512165D02*
X466224D01*
X459630Y510000D02*
X463370D01*
X461500Y508130D02*
Y511870D01*
X439000Y313031D02*
Y316968D01*
X437031Y315000D02*
X440968D01*
X449000Y321031D02*
Y324969D01*
X447031Y323000D02*
X450968D01*
X399760Y308732D02*
X407240D01*
X399760Y322315D02*
X407240D01*
X399760Y308732D02*
Y322315D01*
X407240Y308732D02*
Y322315D01*
X403500Y313555D02*
Y317492D01*
X401531Y315524D02*
X405469D01*
X392000Y313532D02*
Y317469D01*
X390032Y315500D02*
X393969D01*
X415000Y313555D02*
Y317492D01*
X413031Y315524D02*
X416969D01*
X380500Y313555D02*
Y317492D01*
X378531Y315524D02*
X382469D01*
X348031Y338500D02*
X351968D01*
X350000Y336532D02*
Y340469D01*
X348031Y354500D02*
X351968D01*
X350000Y352532D02*
Y356469D01*
X363000Y370894D02*
Y374831D01*
X361032Y372862D02*
X364969D01*
X424032Y363500D02*
X427969D01*
X426000Y361532D02*
Y365469D01*
X396500Y378555D02*
Y382492D01*
X394532Y380524D02*
X398469D01*
X363000Y356532D02*
Y360469D01*
X361032Y358500D02*
X364969D01*
X389335Y573149D02*
X393665D01*
X389335Y563701D02*
X393665D01*
Y573149D01*
X389335Y563701D02*
Y573149D01*
X391500Y566555D02*
Y570295D01*
X389630Y568425D02*
X393370D01*
X429531Y539500D02*
X433469D01*
X431500Y537531D02*
Y541468D01*
X360756Y444169D02*
Y448106D01*
X358787Y446138D02*
X362724D01*
X371500Y444531D02*
Y448469D01*
X369531Y446500D02*
X373469D01*
X424032Y354500D02*
X427969D01*
X426000Y352532D02*
Y356469D01*
X314000Y356031D02*
Y359968D01*
X312032Y358000D02*
X315968D01*
X330000Y340532D02*
Y344469D01*
X328031Y342500D02*
X331968D01*
X339531Y346500D02*
X343468D01*
X341500Y344532D02*
Y348469D01*
X316531Y346500D02*
X320468D01*
X318500Y344532D02*
Y348469D01*
X301031Y354000D02*
X304969D01*
X303000Y352031D02*
Y355968D01*
X391531Y397024D02*
X395469D01*
X393500Y395055D02*
Y398992D01*
X373031Y374524D02*
X376969D01*
X375000Y372555D02*
Y376492D01*
X448500Y536031D02*
Y539969D01*
X446531Y538000D02*
X450468D01*
X321760Y499291D02*
X329240D01*
X321760Y485708D02*
X329240D01*
Y499291D01*
X321760Y485708D02*
Y499291D01*
X325500Y490531D02*
Y494468D01*
X323532Y492500D02*
X327469D01*
X383500Y456531D02*
Y460468D01*
X381531Y458500D02*
X385468D01*
X362000Y496531D02*
Y500468D01*
X360032Y498500D02*
X363969D01*
X303500Y501898D02*
Y505835D01*
X301532Y503866D02*
X305469D01*
X433000Y401532D02*
Y405469D01*
X431031Y403500D02*
X434968D01*
X455531Y452000D02*
X459469D01*
X457500Y450031D02*
Y453969D01*
X457000Y409031D02*
Y412969D01*
X455031Y411000D02*
X458969D01*
X364291Y568260D02*
Y575740D01*
X350709Y568260D02*
Y575740D01*
X364291D01*
X350709Y568260D02*
X364291D01*
X355532Y572000D02*
X359469D01*
X357500Y570032D02*
Y573969D01*
X386260Y547291D02*
X393740D01*
X386260Y533709D02*
X393740D01*
Y547291D01*
X386260Y533709D02*
Y547291D01*
X390000Y538531D02*
Y542468D01*
X388032Y540500D02*
X391968D01*
X443500Y577031D02*
Y580969D01*
X441531Y579000D02*
X445469D01*
M02*
