M48
;Layer_Color=9474304
;FILE_FORMAT=2:5
INCH,LZ
;TYPE=PLATED
T1F00S00C0.01575
T2F00S00C0.02756
T4F00S00C0.02800
T5F00S00C0.03543
T6F00S00C0.04724
T7F00S00C0.06299
T8F00S00C0.11799
%
T01
X03955Y03505
X0398354Y0353571
X03955Y0356524
X0401524
Y03505
T02
X0359562Y0459173
X0371766
T04
X0303Y0313
Y03225
Y03305
X0307Y0376
Y03865
X03075Y04
X0324
X03245Y03865
Y0376
X03415Y03755
Y0386
X0364Y03855
X0372Y03935
X0375Y0405
X0362
X03845Y0368704
X0423Y0371
X04255Y03835
X0411Y03855
X0449Y03875
Y0378
X04585
Y03875
X0468
X04625Y0357
Y03445
X045Y0348
X0449Y03685
X04375Y0335
X04295Y03195
X0422658Y0345628
X04585Y033
X0367Y03195
X03595Y03125
X0351Y0313
Y0322
X0341
X0333
Y03305
X0323
Y0322
Y0313
X03135
Y0322
Y03305
X0333Y0313
X0341
X03245Y04545
X03165Y04475
X03565Y04655
X03755Y0465
X0399Y04495
Y04415
X04625Y04315
X0484Y037
Y03575
X0474
Y03445
X0484Y0344
Y04805
X0476Y05465
X0478Y05645
X0462Y0524
X04585Y05035
X04655Y0497
X04615Y04725
X04145Y0492684
X04095Y0503
X04Y0514
X03945Y0523297
X0387527Y0524649
X0379843Y0515232
X03785Y05085
X0374735Y0503443
X0369431Y0500319
X03625Y04985
X0356575Y0496629
X03555Y0485
X03645Y0481
X03725Y0482
X0345684Y0492
X03455Y05145
X03515Y0516
X03575
X03605Y0507
X0328Y0509
X03655Y05515
X03895
X03915Y05785
X03975Y0586
X0405Y05835
X04055Y05745
X0405Y0593
X03945
X0384
X0353297Y0581142
X04095Y05245
X04185
X03015Y0523
T05
X0311Y0421
Y0431
X0321
Y0421
X0331
Y0431
X0341
Y0421
X0351
Y0431
X0361
Y0421
X0371
Y0431
X0381
Y0421
X0391
Y0431
X0401
Y0421
X0430954Y0419
X0440954
Y0429
X0430954
Y0439
X0440954
Y0449
X0430954
Y0459
X0440954
X04865Y0542921
Y0552921
X04645Y05525
Y05425
Y05625
X0420114Y0559925
Y0569924
X0430954Y0509
Y0499
Y0489
Y0479
Y0469
X0440954
Y0479
Y0489
Y0499
Y0509
X03165Y0512
Y0502
Y0492
Y0482
X0320051Y0527154
X0330051
T06
X0453142Y0399083
Y0422311
Y0440083
Y0463311
X0470858
Y0440083
Y0422311
Y0399083
T07
X0205Y03325
Y04825
T08
X02525Y0319
X048
X04795Y0583
X02525
M30
