%FSLAX25Y25*%
%MOIN*%
G70*
G01*
G75*
G04 Layer_Color=8388736*
%ADD10C,0.01969*%
%ADD11C,0.01000*%
%ADD12R,0.05512X0.03543*%
%ADD13R,0.03543X0.05512*%
%ADD14R,0.04016X0.07008*%
%ADD15R,0.06693X0.03150*%
%ADD16R,0.02756X0.03543*%
%ADD17R,0.05512X0.03150*%
%ADD18O,0.03740X0.00906*%
%ADD19R,0.03740X0.00906*%
%ADD20R,0.00906X0.03740*%
%ADD21R,0.09843X0.09843*%
%ADD22R,0.02756X0.02165*%
%ADD23R,0.12795X0.05118*%
%ADD24R,0.07087X0.01772*%
%ADD25R,0.05709X0.07874*%
%ADD26R,0.03543X0.02756*%
%ADD27R,0.04724X0.04331*%
%ADD28O,0.01181X0.06890*%
%ADD29O,0.06890X0.01181*%
G04:AMPARAMS|DCode=30|XSize=60mil|YSize=40mil|CornerRadius=19.8mil|HoleSize=0mil|Usage=FLASHONLY|Rotation=270.000|XOffset=0mil|YOffset=0mil|HoleType=Round|Shape=RoundedRectangle|*
%AMROUNDEDRECTD30*
21,1,0.06000,0.00040,0,0,270.0*
21,1,0.02040,0.04000,0,0,270.0*
1,1,0.03960,-0.00020,-0.01020*
1,1,0.03960,-0.00020,0.01020*
1,1,0.03960,0.00020,0.01020*
1,1,0.03960,0.00020,-0.01020*
%
%ADD30ROUNDEDRECTD30*%
G04:AMPARAMS|DCode=31|XSize=60mil|YSize=40mil|CornerRadius=19.8mil|HoleSize=0mil|Usage=FLASHONLY|Rotation=180.000|XOffset=0mil|YOffset=0mil|HoleType=Round|Shape=RoundedRectangle|*
%AMROUNDEDRECTD31*
21,1,0.06000,0.00040,0,0,180.0*
21,1,0.02040,0.04000,0,0,180.0*
1,1,0.03960,-0.01020,0.00020*
1,1,0.03960,0.01020,0.00020*
1,1,0.03960,0.01020,-0.00020*
1,1,0.03960,-0.01020,-0.00020*
%
%ADD31ROUNDEDRECTD31*%
%ADD32C,0.00787*%
%ADD33C,0.01500*%
%ADD34C,0.05906*%
%ADD35R,0.05906X0.05906*%
%ADD36C,0.20000*%
%ADD37C,0.20031*%
%ADD38O,0.04724X0.03150*%
%ADD39O,0.05118X0.03150*%
%ADD40C,0.05118*%
%ADD41C,0.09843*%
%ADD42C,0.06693*%
%ADD43R,0.05906X0.05906*%
%ADD44C,0.05000*%
%ADD45C,0.01969*%
%ADD46C,0.04000*%
%ADD47C,0.07543*%
%ADD48C,0.15799*%
%ADD49O,0.08331X0.06756*%
%ADD50O,0.08724X0.06756*%
%ADD51C,0.06756*%
%ADD52C,0.10299*%
%ADD53C,0.08724*%
%ADD54R,0.02362X0.03740*%
%ADD55R,0.07008X0.04016*%
%ADD56R,0.03150X0.05512*%
%ADD57R,0.03740X0.02362*%
%ADD58C,0.00984*%
%ADD59C,0.02362*%
%ADD60C,0.02000*%
%ADD61C,0.00197*%
%ADD62C,0.00394*%
%ADD63C,0.00591*%
%ADD64C,0.01600*%
%ADD65C,0.00500*%
%ADD66R,0.06312X0.04343*%
%ADD67R,0.04343X0.06312*%
%ADD68R,0.04816X0.07808*%
%ADD69R,0.07493X0.03950*%
%ADD70R,0.03556X0.04343*%
%ADD71R,0.06312X0.03950*%
%ADD72O,0.04540X0.01706*%
%ADD73R,0.04540X0.01706*%
%ADD74R,0.01706X0.04540*%
%ADD75R,0.10642X0.10642*%
%ADD76R,0.03556X0.02965*%
%ADD77R,0.13595X0.05918*%
%ADD78R,0.07887X0.02572*%
%ADD79R,0.06509X0.08674*%
%ADD80R,0.04343X0.03556*%
%ADD81R,0.05524X0.05131*%
%ADD82O,0.01981X0.07690*%
%ADD83O,0.07690X0.01981*%
G04:AMPARAMS|DCode=84|XSize=68mil|YSize=48mil|CornerRadius=23.8mil|HoleSize=0mil|Usage=FLASHONLY|Rotation=270.000|XOffset=0mil|YOffset=0mil|HoleType=Round|Shape=RoundedRectangle|*
%AMROUNDEDRECTD84*
21,1,0.06800,0.00040,0,0,270.0*
21,1,0.02040,0.04800,0,0,270.0*
1,1,0.04760,-0.00020,-0.01020*
1,1,0.04760,-0.00020,0.01020*
1,1,0.04760,0.00020,0.01020*
1,1,0.04760,0.00020,-0.01020*
%
%ADD84ROUNDEDRECTD84*%
G04:AMPARAMS|DCode=85|XSize=68mil|YSize=48mil|CornerRadius=23.8mil|HoleSize=0mil|Usage=FLASHONLY|Rotation=180.000|XOffset=0mil|YOffset=0mil|HoleType=Round|Shape=RoundedRectangle|*
%AMROUNDEDRECTD85*
21,1,0.06800,0.00040,0,0,180.0*
21,1,0.02040,0.04800,0,0,180.0*
1,1,0.04760,-0.01020,0.00020*
1,1,0.04760,0.01020,0.00020*
1,1,0.04760,0.01020,-0.00020*
1,1,0.04760,-0.01020,-0.00020*
%
%ADD85ROUNDEDRECTD85*%
%ADD86C,0.06706*%
%ADD87R,0.06706X0.06706*%
%ADD88C,0.20800*%
%ADD89C,0.20832*%
%ADD90O,0.05524X0.03950*%
%ADD91O,0.05918X0.03950*%
%ADD92C,0.05918*%
%ADD93C,0.10642*%
%ADD94C,0.07493*%
%ADD95R,0.06706X0.06706*%
%ADD96C,0.05800*%
%ADD97C,0.02769*%
D66*
X400500Y527866D02*
D03*
Y536134D02*
D03*
X383500Y448134D02*
D03*
Y439866D02*
D03*
X361500Y338134D02*
D03*
Y329866D02*
D03*
X439000Y310866D02*
D03*
Y319134D02*
D03*
X449000Y318866D02*
D03*
Y327134D02*
D03*
X392000Y319634D02*
D03*
Y311366D02*
D03*
X415000Y311390D02*
D03*
Y319657D02*
D03*
X380500Y311390D02*
D03*
Y319657D02*
D03*
X363000Y376996D02*
D03*
Y368728D02*
D03*
X396500Y384657D02*
D03*
Y376390D02*
D03*
X363000Y362634D02*
D03*
Y354366D02*
D03*
X360756Y442004D02*
D03*
Y450272D02*
D03*
X371500Y442366D02*
D03*
Y450634D02*
D03*
X314000Y362134D02*
D03*
Y353866D02*
D03*
X330000Y338366D02*
D03*
Y346634D02*
D03*
X383500Y454366D02*
D03*
Y462634D02*
D03*
X303500Y508000D02*
D03*
Y499732D02*
D03*
X433000Y407634D02*
D03*
Y399366D02*
D03*
D67*
X351134Y408500D02*
D03*
X342866D02*
D03*
X354134Y338500D02*
D03*
X345866D02*
D03*
X354134Y354500D02*
D03*
X345866D02*
D03*
X430134Y363500D02*
D03*
X421866D02*
D03*
X430134Y354500D02*
D03*
X421866D02*
D03*
X337366Y346500D02*
D03*
X345634D02*
D03*
X314366D02*
D03*
X322634D02*
D03*
X307134Y354000D02*
D03*
X298866D02*
D03*
X389366Y397024D02*
D03*
X397634D02*
D03*
X370866Y374524D02*
D03*
X379134D02*
D03*
D68*
X350713Y399000D02*
D03*
X343705D02*
D03*
D69*
X402000Y551807D02*
D03*
Y565193D02*
D03*
X303000Y474114D02*
D03*
Y487500D02*
D03*
D70*
X464453Y510000D02*
D03*
X458547D02*
D03*
D71*
X403500Y311193D02*
D03*
Y319854D02*
D03*
X325500Y496831D02*
D03*
Y488169D02*
D03*
X390000Y544831D02*
D03*
Y536169D02*
D03*
D72*
X406209Y349634D02*
D03*
D73*
Y351602D02*
D03*
Y353571D02*
D03*
Y355539D02*
D03*
Y357508D02*
D03*
X390697D02*
D03*
Y355539D02*
D03*
Y353571D02*
D03*
Y351602D02*
D03*
Y349634D02*
D03*
D74*
X402291Y361346D02*
D03*
X400323D02*
D03*
X398354D02*
D03*
X396386D02*
D03*
X394417D02*
D03*
Y345795D02*
D03*
X396386D02*
D03*
X398354D02*
D03*
X400323D02*
D03*
X402291D02*
D03*
D75*
X398453Y353571D02*
D03*
D76*
X480126Y490433D02*
D03*
Y519567D02*
D03*
D77*
X485146Y493976D02*
D03*
Y516024D02*
D03*
D78*
X475500Y510118D02*
D03*
Y507559D02*
D03*
Y505000D02*
D03*
Y502441D02*
D03*
Y499882D02*
D03*
D79*
X474713Y493583D02*
D03*
Y516417D02*
D03*
D80*
X391500Y571378D02*
D03*
Y565472D02*
D03*
D81*
X411307Y401024D02*
D03*
Y406535D02*
D03*
X418000D02*
D03*
Y401024D02*
D03*
D82*
X343299Y472614D02*
D03*
X345268D02*
D03*
X347236D02*
D03*
X349205D02*
D03*
X351173D02*
D03*
X353142D02*
D03*
X355110D02*
D03*
X357079D02*
D03*
X359047D02*
D03*
X361016D02*
D03*
X362984D02*
D03*
X364953D02*
D03*
X366921D02*
D03*
X368890D02*
D03*
X370858D02*
D03*
X372827D02*
D03*
X374795D02*
D03*
X376764D02*
D03*
X378732D02*
D03*
X380701D02*
D03*
Y524386D02*
D03*
X378732D02*
D03*
X376764D02*
D03*
X374795D02*
D03*
X372827D02*
D03*
X370858D02*
D03*
X368890D02*
D03*
X366921D02*
D03*
X364953D02*
D03*
X362984D02*
D03*
X361016D02*
D03*
X359047D02*
D03*
X357079D02*
D03*
X355110D02*
D03*
X353142D02*
D03*
X351173D02*
D03*
X349205D02*
D03*
X347236D02*
D03*
X345268D02*
D03*
X343299D02*
D03*
D83*
X387886Y479799D02*
D03*
Y481768D02*
D03*
Y483736D02*
D03*
Y485705D02*
D03*
Y487673D02*
D03*
Y489642D02*
D03*
Y491610D02*
D03*
Y493579D02*
D03*
Y495547D02*
D03*
Y497516D02*
D03*
Y499484D02*
D03*
Y501453D02*
D03*
Y503421D02*
D03*
Y505390D02*
D03*
Y507358D02*
D03*
Y509327D02*
D03*
Y511295D02*
D03*
Y513264D02*
D03*
Y515232D02*
D03*
Y517201D02*
D03*
X336114D02*
D03*
Y515232D02*
D03*
Y513264D02*
D03*
Y511295D02*
D03*
Y509327D02*
D03*
Y507358D02*
D03*
Y505390D02*
D03*
Y503421D02*
D03*
Y501453D02*
D03*
Y499484D02*
D03*
Y497516D02*
D03*
Y495547D02*
D03*
Y493579D02*
D03*
Y491610D02*
D03*
Y489642D02*
D03*
Y487673D02*
D03*
Y485705D02*
D03*
Y483736D02*
D03*
Y481768D02*
D03*
Y479799D02*
D03*
D84*
X300492Y591177D02*
D03*
X306392D02*
D03*
X312292D02*
D03*
X318192D02*
D03*
X324092D02*
D03*
X330020D02*
D03*
X335925D02*
D03*
X341831D02*
D03*
X347736D02*
D03*
X353642D02*
D03*
X359547D02*
D03*
X365453D02*
D03*
X371358D02*
D03*
Y537823D02*
D03*
X365453D02*
D03*
X359547D02*
D03*
X353642D02*
D03*
X347736D02*
D03*
X341831D02*
D03*
X335925D02*
D03*
X330020D02*
D03*
X324092D02*
D03*
X318192D02*
D03*
X312292D02*
D03*
X306392D02*
D03*
X300492D02*
D03*
D85*
X379508Y585277D02*
D03*
Y579377D02*
D03*
Y573477D02*
D03*
Y567577D02*
D03*
Y561603D02*
D03*
Y555697D02*
D03*
Y549792D02*
D03*
Y543886D02*
D03*
D86*
X311000Y421000D02*
D03*
Y431000D02*
D03*
X321000Y421000D02*
D03*
Y431000D02*
D03*
X331000Y421000D02*
D03*
Y431000D02*
D03*
X341000Y421000D02*
D03*
Y431000D02*
D03*
X351000Y421000D02*
D03*
Y431000D02*
D03*
X361000Y421000D02*
D03*
Y431000D02*
D03*
X371000Y421000D02*
D03*
Y431000D02*
D03*
X381000Y421000D02*
D03*
Y431000D02*
D03*
X391000Y421000D02*
D03*
Y431000D02*
D03*
X401000Y421000D02*
D03*
X330051Y527154D02*
D03*
X486500Y542921D02*
D03*
Y552921D02*
D03*
X464500Y542500D02*
D03*
Y552500D02*
D03*
Y562500D02*
D03*
X440954Y419000D02*
D03*
X430954D02*
D03*
X440954Y429000D02*
D03*
X430954D02*
D03*
X440954Y439000D02*
D03*
X430954D02*
D03*
X440954Y449000D02*
D03*
X430954D02*
D03*
X440954Y459000D02*
D03*
X430954D02*
D03*
X440954Y469000D02*
D03*
X430954D02*
D03*
X440954Y479000D02*
D03*
X430954D02*
D03*
X440954Y489000D02*
D03*
X430954D02*
D03*
X440954Y499000D02*
D03*
X430954D02*
D03*
X440954Y509000D02*
D03*
X316500Y502000D02*
D03*
Y492000D02*
D03*
Y482000D02*
D03*
X420114Y569924D02*
D03*
Y559925D02*
D03*
D87*
X401000Y431000D02*
D03*
X320051Y527154D02*
D03*
D88*
X480000Y319000D02*
D03*
X252500D02*
D03*
Y583000D02*
D03*
D89*
X479500D02*
D03*
D90*
X474713Y495472D02*
D03*
Y514567D02*
D03*
D91*
X486642Y493976D02*
D03*
Y516063D02*
D03*
D92*
X371766Y459173D02*
D03*
X359562D02*
D03*
D93*
X205000Y332500D02*
D03*
Y482500D02*
D03*
D94*
X470858Y463311D02*
D03*
X453142Y440083D02*
D03*
Y463311D02*
D03*
X470858Y440083D02*
D03*
Y422311D02*
D03*
X453142Y399083D02*
D03*
Y422311D02*
D03*
X470858Y399083D02*
D03*
D95*
X430954Y509000D02*
D03*
X316500Y512000D02*
D03*
D96*
X399000Y449500D02*
D03*
Y441500D02*
D03*
X465500Y497000D02*
D03*
X476000Y546500D02*
D03*
X478000Y564500D02*
D03*
X409500Y524500D02*
D03*
X418500D02*
D03*
X397500Y586000D02*
D03*
X405500Y574500D02*
D03*
X405000Y583500D02*
D03*
X394500Y593000D02*
D03*
X405000D02*
D03*
X384000D02*
D03*
X484000Y480500D02*
D03*
X462500Y357000D02*
D03*
X468000Y387500D02*
D03*
X458500Y378000D02*
D03*
X449000Y368500D02*
D03*
Y378000D02*
D03*
Y387500D02*
D03*
X458500D02*
D03*
X423000Y371000D02*
D03*
X462500Y431500D02*
D03*
X461500Y472500D02*
D03*
X328000Y509000D02*
D03*
X316500Y447500D02*
D03*
X324500Y454500D02*
D03*
X375000Y405000D02*
D03*
X362000D02*
D03*
X462500Y344500D02*
D03*
X474000D02*
D03*
Y357500D02*
D03*
X484000Y344000D02*
D03*
Y357500D02*
D03*
Y370000D02*
D03*
X341500Y386000D02*
D03*
Y375500D02*
D03*
X324500Y376000D02*
D03*
X307000D02*
D03*
Y386500D02*
D03*
X324500D02*
D03*
X324000Y400000D02*
D03*
X307500D02*
D03*
X333000Y330500D02*
D03*
X323000D02*
D03*
X351000Y322000D02*
D03*
X341000D02*
D03*
X333000D02*
D03*
X323000D02*
D03*
X313500D02*
D03*
X303000Y322500D02*
D03*
X359500Y312500D02*
D03*
X351000Y313000D02*
D03*
X341000D02*
D03*
X333000D02*
D03*
X323000D02*
D03*
X313500D02*
D03*
X303000D02*
D03*
X313500Y330500D02*
D03*
X303000D02*
D03*
X372000Y393500D02*
D03*
X422658Y345628D02*
D03*
X384500Y368704D02*
D03*
X425500Y383500D02*
D03*
X400000Y514000D02*
D03*
X411000Y385500D02*
D03*
X367000Y319500D02*
D03*
X429500D02*
D03*
X364000Y385500D02*
D03*
X437500Y335000D02*
D03*
X458500Y330000D02*
D03*
X356500Y465500D02*
D03*
X375500Y465000D02*
D03*
X345684Y492000D02*
D03*
X372500Y482000D02*
D03*
X355500Y485000D02*
D03*
X364500Y481000D02*
D03*
X414500Y492684D02*
D03*
X345500Y514500D02*
D03*
X387527Y524649D02*
D03*
X351500Y516000D02*
D03*
X450000Y348000D02*
D03*
X360500Y507000D02*
D03*
X374735Y503443D02*
D03*
X378500Y508500D02*
D03*
X356575Y496629D02*
D03*
X369431Y500319D02*
D03*
X362500Y498500D02*
D03*
X379843Y515232D02*
D03*
X357500Y516000D02*
D03*
X394500Y523297D02*
D03*
X409500Y503000D02*
D03*
X353297Y581142D02*
D03*
X391500Y578500D02*
D03*
X365500Y551500D02*
D03*
X389500D02*
D03*
X458500Y503500D02*
D03*
X462000Y524000D02*
D03*
X301500Y523000D02*
D03*
D97*
X398354Y353571D02*
D03*
X395500Y356524D02*
D03*
X401524D02*
D03*
X395500Y350500D02*
D03*
X401524D02*
D03*
M02*
