%FSLAX25Y25*%
%MOIN*%
G70*
G01*
G75*
G04 Layer_Color=8421504*
%ADD10C,0.01969*%
%ADD11C,0.01000*%
%ADD12R,0.05512X0.03543*%
%ADD13R,0.03543X0.05512*%
%ADD14R,0.04016X0.07008*%
%ADD15R,0.06693X0.03150*%
%ADD16R,0.02756X0.03543*%
%ADD17R,0.05512X0.03150*%
%ADD18O,0.03740X0.00906*%
%ADD19R,0.03740X0.00906*%
%ADD20R,0.00906X0.03740*%
%ADD21R,0.09843X0.09843*%
%ADD22R,0.02756X0.02165*%
%ADD23R,0.12795X0.05118*%
%ADD24R,0.07087X0.01772*%
%ADD25R,0.05709X0.07874*%
%ADD26R,0.03543X0.02756*%
%ADD27R,0.04724X0.04331*%
%ADD28O,0.01181X0.06890*%
%ADD29O,0.06890X0.01181*%
G04:AMPARAMS|DCode=30|XSize=60mil|YSize=40mil|CornerRadius=19.8mil|HoleSize=0mil|Usage=FLASHONLY|Rotation=270.000|XOffset=0mil|YOffset=0mil|HoleType=Round|Shape=RoundedRectangle|*
%AMROUNDEDRECTD30*
21,1,0.06000,0.00040,0,0,270.0*
21,1,0.02040,0.04000,0,0,270.0*
1,1,0.03960,-0.00020,-0.01020*
1,1,0.03960,-0.00020,0.01020*
1,1,0.03960,0.00020,0.01020*
1,1,0.03960,0.00020,-0.01020*
%
%ADD30ROUNDEDRECTD30*%
G04:AMPARAMS|DCode=31|XSize=60mil|YSize=40mil|CornerRadius=19.8mil|HoleSize=0mil|Usage=FLASHONLY|Rotation=180.000|XOffset=0mil|YOffset=0mil|HoleType=Round|Shape=RoundedRectangle|*
%AMROUNDEDRECTD31*
21,1,0.06000,0.00040,0,0,180.0*
21,1,0.02040,0.04000,0,0,180.0*
1,1,0.03960,-0.01020,0.00020*
1,1,0.03960,0.01020,0.00020*
1,1,0.03960,0.01020,-0.00020*
1,1,0.03960,-0.01020,-0.00020*
%
%ADD31ROUNDEDRECTD31*%
%ADD32C,0.00787*%
%ADD33C,0.01500*%
%ADD34C,0.05906*%
%ADD35R,0.05906X0.05906*%
%ADD36C,0.20000*%
%ADD37C,0.20031*%
%ADD38O,0.04724X0.03150*%
%ADD39O,0.05118X0.03150*%
%ADD40C,0.05118*%
%ADD41C,0.09843*%
%ADD42C,0.06693*%
%ADD43R,0.05906X0.05906*%
%ADD44C,0.05000*%
%ADD45C,0.01969*%
%ADD46C,0.04000*%
%ADD47C,0.07543*%
%ADD48C,0.15799*%
%ADD49O,0.08331X0.06756*%
%ADD50O,0.08724X0.06756*%
%ADD51C,0.06756*%
%ADD52C,0.10299*%
%ADD53C,0.08724*%
%ADD54R,0.02362X0.03740*%
%ADD55R,0.07008X0.04016*%
%ADD56R,0.03150X0.05512*%
%ADD57R,0.03740X0.02362*%
%ADD58C,0.00984*%
%ADD59C,0.02362*%
%ADD60C,0.02000*%
%ADD61C,0.00197*%
%ADD62C,0.00394*%
%ADD63C,0.00591*%
%ADD64C,0.01600*%
%ADD65C,0.00500*%
D12*
X400500Y527866D02*
D03*
Y536134D02*
D03*
X383500Y448134D02*
D03*
Y439866D02*
D03*
X361500Y338134D02*
D03*
Y329866D02*
D03*
X439000Y310866D02*
D03*
Y319134D02*
D03*
X449000Y318866D02*
D03*
Y327134D02*
D03*
X392000Y319634D02*
D03*
Y311366D02*
D03*
X415000Y311390D02*
D03*
Y319657D02*
D03*
X380500Y311390D02*
D03*
Y319657D02*
D03*
X363000Y376996D02*
D03*
Y368728D02*
D03*
X396500Y384657D02*
D03*
Y376390D02*
D03*
X363000Y362634D02*
D03*
Y354366D02*
D03*
X360756Y442004D02*
D03*
Y450272D02*
D03*
X371500Y442366D02*
D03*
Y450634D02*
D03*
X314000Y362134D02*
D03*
Y353866D02*
D03*
X330000Y338366D02*
D03*
Y346634D02*
D03*
X383500Y454366D02*
D03*
Y462634D02*
D03*
X303500Y508000D02*
D03*
Y499732D02*
D03*
X433000Y407634D02*
D03*
Y399366D02*
D03*
D13*
X351134Y408500D02*
D03*
X342866D02*
D03*
X354134Y338500D02*
D03*
X345866D02*
D03*
X354134Y354500D02*
D03*
X345866D02*
D03*
X430134Y363500D02*
D03*
X421866D02*
D03*
X430134Y354500D02*
D03*
X421866D02*
D03*
X337366Y346500D02*
D03*
X345634D02*
D03*
X314366D02*
D03*
X322634D02*
D03*
X307134Y354000D02*
D03*
X298866D02*
D03*
X389366Y397024D02*
D03*
X397634D02*
D03*
X370866Y374524D02*
D03*
X379134D02*
D03*
D14*
X350713Y399000D02*
D03*
X343705D02*
D03*
D15*
X402000Y551807D02*
D03*
Y565193D02*
D03*
X303000Y474114D02*
D03*
Y487500D02*
D03*
D16*
X464453Y510000D02*
D03*
X458547D02*
D03*
D17*
X403500Y311193D02*
D03*
Y319854D02*
D03*
X325500Y496831D02*
D03*
Y488169D02*
D03*
X390000Y544831D02*
D03*
Y536169D02*
D03*
D18*
X406209Y349634D02*
D03*
D19*
Y351602D02*
D03*
Y353571D02*
D03*
Y355539D02*
D03*
Y357508D02*
D03*
X390697D02*
D03*
Y355539D02*
D03*
Y353571D02*
D03*
Y351602D02*
D03*
Y349634D02*
D03*
D20*
X402291Y361346D02*
D03*
X400323D02*
D03*
X398354D02*
D03*
X396386D02*
D03*
X394417D02*
D03*
Y345795D02*
D03*
X396386D02*
D03*
X398354D02*
D03*
X400323D02*
D03*
X402291D02*
D03*
D21*
X398453Y353571D02*
D03*
D22*
X480126Y490433D02*
D03*
Y519567D02*
D03*
D23*
X485146Y493976D02*
D03*
Y516024D02*
D03*
D24*
X475500Y510118D02*
D03*
Y507559D02*
D03*
Y505000D02*
D03*
Y502441D02*
D03*
Y499882D02*
D03*
D25*
X474713Y493583D02*
D03*
Y516417D02*
D03*
D26*
X391500Y571378D02*
D03*
Y565472D02*
D03*
D27*
X411307Y401024D02*
D03*
Y406535D02*
D03*
X418000D02*
D03*
Y401024D02*
D03*
D28*
X343299Y472614D02*
D03*
X345268D02*
D03*
X347236D02*
D03*
X349205D02*
D03*
X351173D02*
D03*
X353142D02*
D03*
X355110D02*
D03*
X357079D02*
D03*
X359047D02*
D03*
X361016D02*
D03*
X362984D02*
D03*
X364953D02*
D03*
X366921D02*
D03*
X368890D02*
D03*
X370858D02*
D03*
X372827D02*
D03*
X374795D02*
D03*
X376764D02*
D03*
X378732D02*
D03*
X380701D02*
D03*
Y524386D02*
D03*
X378732D02*
D03*
X376764D02*
D03*
X374795D02*
D03*
X372827D02*
D03*
X370858D02*
D03*
X368890D02*
D03*
X366921D02*
D03*
X364953D02*
D03*
X362984D02*
D03*
X361016D02*
D03*
X359047D02*
D03*
X357079D02*
D03*
X355110D02*
D03*
X353142D02*
D03*
X351173D02*
D03*
X349205D02*
D03*
X347236D02*
D03*
X345268D02*
D03*
X343299D02*
D03*
D29*
X387886Y479799D02*
D03*
Y481768D02*
D03*
Y483736D02*
D03*
Y485705D02*
D03*
Y487673D02*
D03*
Y489642D02*
D03*
Y491610D02*
D03*
Y493579D02*
D03*
Y495547D02*
D03*
Y497516D02*
D03*
Y499484D02*
D03*
Y501453D02*
D03*
Y503421D02*
D03*
Y505390D02*
D03*
Y507358D02*
D03*
Y509327D02*
D03*
Y511295D02*
D03*
Y513264D02*
D03*
Y515232D02*
D03*
Y517201D02*
D03*
X336114D02*
D03*
Y515232D02*
D03*
Y513264D02*
D03*
Y511295D02*
D03*
Y509327D02*
D03*
Y507358D02*
D03*
Y505390D02*
D03*
Y503421D02*
D03*
Y501453D02*
D03*
Y499484D02*
D03*
Y497516D02*
D03*
Y495547D02*
D03*
Y493579D02*
D03*
Y491610D02*
D03*
Y489642D02*
D03*
Y487673D02*
D03*
Y485705D02*
D03*
Y483736D02*
D03*
Y481768D02*
D03*
Y479799D02*
D03*
D30*
X300492Y591177D02*
D03*
X306392D02*
D03*
X312292D02*
D03*
X318192D02*
D03*
X324092D02*
D03*
X330020D02*
D03*
X335925D02*
D03*
X341831D02*
D03*
X347736D02*
D03*
X353642D02*
D03*
X359547D02*
D03*
X365453D02*
D03*
X371358D02*
D03*
Y537823D02*
D03*
X365453D02*
D03*
X359547D02*
D03*
X353642D02*
D03*
X347736D02*
D03*
X341831D02*
D03*
X335925D02*
D03*
X330020D02*
D03*
X324092D02*
D03*
X318192D02*
D03*
X312292D02*
D03*
X306392D02*
D03*
X300492D02*
D03*
D31*
X379508Y585277D02*
D03*
Y579377D02*
D03*
Y573477D02*
D03*
Y567577D02*
D03*
Y561603D02*
D03*
Y555697D02*
D03*
Y549792D02*
D03*
Y543886D02*
D03*
M02*
